<?xml version="1.0" encoding="us-ascii" standalone="no"?><svg xmlns="http://www.w3.org/2000/svg" xmlns:xlink="http://www.w3.org/1999/xlink" contentStyleType="text/css" height="781px" preserveAspectRatio="none" style="width:1229px;height:781px;background:#FFFFFF;" version="1.1" viewBox="0 0 1229 781" width="1229px" zoomAndPan="magnify"><defs/><g><text fill="#000000" font-family="sans-serif" font-size="14" font-weight="bold" lengthAdjust="spacing" textLength="106" x="563" y="30.1074">Joining a game</text><rect fill="none" height="563.1797" style="stroke:#000000;stroke-width:1.5;" width="1195" x="18" y="163.8242"/><rect fill="none" height="273.5898" style="stroke:#000000;stroke-width:1.5;" width="1175.5" x="27.5" y="350.5703"/><rect fill="none" height="129.7949" style="stroke:#000000;stroke-width:1.5;" width="1155.5" x="37.5" y="487.3652"/><line style="stroke:#181818;stroke-width:0.5;stroke-dasharray:5.0,5.0;" x1="69.5" x2="69.5" y1="78.2422" y2="744.0039"/><line style="stroke:#181818;stroke-width:0.5;stroke-dasharray:5.0,5.0;" x1="616.5" x2="616.5" y1="78.2422" y2="744.0039"/><line style="stroke:#181818;stroke-width:0.5;stroke-dasharray:5.0,5.0;" x1="1163" x2="1163" y1="78.2422" y2="744.0039"/><rect fill="#E2E2F0" height="32.6211" rx="2.5" ry="2.5" style="stroke:#181818;stroke-width:0.5;" width="44" x="47.5" y="44.6211"/><text fill="#000000" font-family="sans-serif" font-size="14" lengthAdjust="spacing" textLength="30" x="54.5" y="66.7285">Alice</text><rect fill="#E2E2F0" height="32.6211" rx="2.5" ry="2.5" style="stroke:#181818;stroke-width:0.5;" width="44" x="47.5" y="743.0039"/><text fill="#000000" font-family="sans-serif" font-size="14" lengthAdjust="spacing" textLength="30" x="54.5" y="765.1113">Alice</text><rect fill="#E2E2F0" height="32.6211" rx="2.5" ry="2.5" style="stroke:#181818;stroke-width:0.5;" width="56" x="588.5" y="44.6211"/><text fill="#000000" font-family="sans-serif" font-size="14" lengthAdjust="spacing" textLength="42" x="595.5" y="66.7285">Server</text><rect fill="#E2E2F0" height="32.6211" rx="2.5" ry="2.5" style="stroke:#181818;stroke-width:0.5;" width="56" x="588.5" y="743.0039"/><text fill="#000000" font-family="sans-serif" font-size="14" lengthAdjust="spacing" textLength="42" x="595.5" y="765.1113">Server</text><rect fill="#E2E2F0" height="32.6211" rx="2.5" ry="2.5" style="stroke:#181818;stroke-width:0.5;" width="39" x="1144" y="44.6211"/><text fill="#000000" font-family="sans-serif" font-size="14" lengthAdjust="spacing" textLength="25" x="1151" y="66.7285">Bob</text><rect fill="#E2E2F0" height="32.6211" rx="2.5" ry="2.5" style="stroke:#181818;stroke-width:0.5;" width="39" x="1144" y="743.0039"/><text fill="#000000" font-family="sans-serif" font-size="14" lengthAdjust="spacing" textLength="25" x="1151" y="765.1113">Bob</text><path d="M503,93.2422 L503,120.2422 L729,120.2422 L729,103.2422 L719,93.2422 L503,93.2422 " fill="#FEFFDD" style="stroke:#181818;stroke-width:0.5;"/><path d="M719,93.2422 L719,103.2422 L729,103.2422 L719,93.2422 " fill="#FEFFDD" style="stroke:#181818;stroke-width:0.5;"/><text fill="#000000" font-family="sans-serif" font-size="13" lengthAdjust="spacing" textLength="205" x="509" y="112.2705">There is a previously created game.</text><polygon fill="#FEFFDD" points="15,93.2422,124,93.2422,134,105.2422,124,118.2422,15,118.2422,5,105.2422,15,93.2422" style="stroke:#181818;stroke-width:0.5;"/><text fill="#000000" font-family="sans-serif" font-size="13" lengthAdjust="spacing" textLength="105" x="17" y="111.2705">AUTHENTICATED</text><polygon fill="#FEFFDD" points="1109,93.2422,1218,93.2422,1228,105.2422,1218,118.2422,1109,118.2422,1099,105.2422,1109,93.2422" style="stroke:#181818;stroke-width:0.5;"/><text fill="#000000" font-family="sans-serif" font-size="13" lengthAdjust="spacing" textLength="105" x="1111" y="111.2705">AUTHENTICATED</text><line style="stroke:#181818;stroke-width:1.0;" x1="614.5" x2="604.5" y1="148.8242" y2="144.8242"/><line style="stroke:#181818;stroke-width:1.0;" x1="614.5" x2="604.5" y1="148.8242" y2="152.8242"/><line style="stroke:#181818;stroke-width:1.0;" x1="69.5" x2="615.5" y1="148.8242" y2="148.8242"/><text fill="#000000" font-family="sans-serif" font-size="13" lengthAdjust="spacing" textLength="107" x="76.5" y="143.5615">joinGame(gameID)</text><path d="M18,163.8242 L79,163.8242 L79,173.1152 L69,183.1152 L18,183.1152 L18,163.8242 " fill="#EEEEEE" style="stroke:#000000;stroke-width:1.5;"/><rect fill="none" height="563.1797" style="stroke:#000000;stroke-width:1.5;" width="1195" x="18" y="163.8242"/><text fill="#000000" font-family="sans-serif" font-size="13" font-weight="bold" lengthAdjust="spacing" textLength="16" x="33" y="178.8525">alt</text><line style="stroke:#181818;stroke-width:1.0;" x1="70.5" x2="80.5" y1="206.4063" y2="202.4063"/><line style="stroke:#181818;stroke-width:1.0;" x1="70.5" x2="80.5" y1="206.4063" y2="210.4063"/><line style="stroke:#181818;stroke-width:1.0;" x1="69.5" x2="615.5" y1="206.4063" y2="206.4063"/><text fill="#000000" font-family="sans-serif" font-size="13" lengthAdjust="spacing" textLength="116" x="86.5" y="201.1436">updateGameStatus(</text><text fill="#000000" font-family="monospace" font-size="13" font-weight="bold" lengthAdjust="spacing" textLength="133" x="202.5" y="201.1436">AWAITING_PLAYERS</text><text fill="#000000" font-family="sans-serif" font-size="13" lengthAdjust="spacing" textLength="4" x="335.5" y="201.1436">)</text><polygon fill="#FEFFDD" points="38,219.4063,100,219.4063,110,231.4063,100,244.4063,38,244.4063,28,231.4063,38,219.4063" style="stroke:#181818;stroke-width:0.5;"/><text fill="#000000" font-family="sans-serif" font-size="13" lengthAdjust="spacing" textLength="58" x="40" y="237.4346">IN_GAME</text><line style="stroke:#181818;stroke-width:1.0;" x1="70.5" x2="80.5" y1="272.9883" y2="268.9883"/><line style="stroke:#181818;stroke-width:1.0;" x1="70.5" x2="80.5" y1="272.9883" y2="276.9883"/><line style="stroke:#181818;stroke-width:1.0;" x1="69.5" x2="615.5" y1="272.9883" y2="272.9883"/><text fill="#000000" font-family="sans-serif" font-size="13" lengthAdjust="spacing" textLength="234" x="86.5" y="267.7256">setMessages(message1, message2, ...)</text><line style="stroke:#181818;stroke-width:1.0;" x1="70.5" x2="80.5" y1="304.2793" y2="300.2793"/><line style="stroke:#181818;stroke-width:1.0;" x1="70.5" x2="80.5" y1="304.2793" y2="308.2793"/><line style="stroke:#181818;stroke-width:1.0;" x1="69.5" x2="615.5" y1="304.2793" y2="304.2793"/><text fill="#000000" font-family="sans-serif" font-size="13" lengthAdjust="spacing" textLength="217" x="86.5" y="299.0166">updatePlayerList(player1, player2, ...)</text><line style="stroke:#181818;stroke-width:1.0;" x1="1161.5" x2="1151.5" y1="335.5703" y2="331.5703"/><line style="stroke:#181818;stroke-width:1.0;" x1="1161.5" x2="1151.5" y1="335.5703" y2="339.5703"/><line style="stroke:#181818;stroke-width:1.0;" x1="616.5" x2="1162.5" y1="335.5703" y2="335.5703"/><text fill="#000000" font-family="sans-serif" font-size="13" lengthAdjust="spacing" textLength="263" x="623.5" y="330.3076">updateGameList(gameData1, gameData2, ...)</text><path d="M27.5,350.5703 L92.5,350.5703 L92.5,359.8613 L82.5,369.8613 L27.5,369.8613 L27.5,350.5703 " fill="#EEEEEE" style="stroke:#000000;stroke-width:1.5;"/><rect fill="none" height="273.5898" style="stroke:#000000;stroke-width:1.5;" width="1175.5" x="27.5" y="350.5703"/><text fill="#000000" font-family="sans-serif" font-size="13" font-weight="bold" lengthAdjust="spacing" textLength="20" x="42.5" y="365.5986">opt</text><text fill="#000000" font-family="sans-serif" font-size="11" font-weight="bold" lengthAdjust="spacing" textLength="130" x="107.5" y="364.4404">[all players have joined]</text><line style="stroke:#181818;stroke-width:1.0;" x1="70.5" x2="80.5" y1="393.1523" y2="389.1523"/><line style="stroke:#181818;stroke-width:1.0;" x1="70.5" x2="80.5" y1="393.1523" y2="397.1523"/><line style="stroke:#181818;stroke-width:1.0;" x1="69.5" x2="615.5" y1="393.1523" y2="393.1523"/><text fill="#000000" font-family="sans-serif" font-size="13" lengthAdjust="spacing" textLength="245" x="86.5" y="387.8896">updateGameStatusAndSetupStartingCard(</text><text fill="#000000" font-family="monospace" font-size="13" font-weight="bold" lengthAdjust="spacing" textLength="196" x="331.5" y="387.8896">SETUP_STARTING_CARD_SIDE</text><text fill="#000000" font-family="sans-serif" font-size="13" lengthAdjust="spacing" textLength="82" x="527.5" y="387.8896">, startingCard)</text><line style="stroke:#181818;stroke-width:1.0;" x1="1161.5" x2="1151.5" y1="424.4434" y2="420.4434"/><line style="stroke:#181818;stroke-width:1.0;" x1="1161.5" x2="1151.5" y1="424.4434" y2="428.4434"/><line style="stroke:#181818;stroke-width:1.0;" x1="616.5" x2="1162.5" y1="424.4434" y2="424.4434"/><text fill="#000000" font-family="sans-serif" font-size="13" lengthAdjust="spacing" textLength="245" x="623.5" y="419.1807">updateGameStatusAndSetupStartingCard(</text><text fill="#000000" font-family="monospace" font-size="13" font-weight="bold" lengthAdjust="spacing" textLength="196" x="868.5" y="419.1807">SETUP_STARTING_CARD_SIDE</text><text fill="#000000" font-family="sans-serif" font-size="13" lengthAdjust="spacing" textLength="82" x="1064.5" y="419.1807">, startingCard)</text><line style="stroke:#000000;stroke-width:1.0;stroke-dasharray:2.0,2.0;" x1="27.5" x2="1203" y1="433.4434" y2="433.4434"/><text fill="#000000" font-family="sans-serif" font-size="11" font-weight="bold" lengthAdjust="spacing" textLength="226" x="32.5" y="445.3135">[someone wants to start the game early]</text><line style="stroke:#181818;stroke-width:1.0;" x1="614.5" x2="604.5" y1="472.3652" y2="468.3652"/><line style="stroke:#181818;stroke-width:1.0;" x1="614.5" x2="604.5" y1="472.3652" y2="476.3652"/><line style="stroke:#181818;stroke-width:1.0;" x1="69.5" x2="615.5" y1="472.3652" y2="472.3652"/><text fill="#000000" font-family="sans-serif" font-size="13" lengthAdjust="spacing" textLength="69" x="76.5" y="467.1025">startGame()</text><path d="M37.5,487.3652 L98.5,487.3652 L98.5,496.6563 L88.5,506.6563 L37.5,506.6563 L37.5,487.3652 " fill="#EEEEEE" style="stroke:#000000;stroke-width:1.5;"/><rect fill="none" height="129.7949" style="stroke:#000000;stroke-width:1.5;" width="1155.5" x="37.5" y="487.3652"/><text fill="#000000" font-family="sans-serif" font-size="13" font-weight="bold" lengthAdjust="spacing" textLength="16" x="52.5" y="502.3936">alt</text><text fill="#000000" font-family="sans-serif" font-size="11" font-weight="bold" lengthAdjust="spacing" textLength="170" x="113.5" y="501.2354">[there are at least two players]</text><line style="stroke:#181818;stroke-width:1.0;" x1="70.5" x2="80.5" y1="529.9473" y2="525.9473"/><line style="stroke:#181818;stroke-width:1.0;" x1="70.5" x2="80.5" y1="529.9473" y2="533.9473"/><line style="stroke:#181818;stroke-width:1.0;" x1="69.5" x2="615.5" y1="529.9473" y2="529.9473"/><text fill="#000000" font-family="sans-serif" font-size="13" lengthAdjust="spacing" textLength="245" x="86.5" y="524.6846">updateGameStatusAndSetupStartingCard(</text><text fill="#000000" font-family="monospace" font-size="13" font-weight="bold" lengthAdjust="spacing" textLength="196" x="331.5" y="524.6846">SETUP_STARTING_CARD_SIDE</text><text fill="#000000" font-family="sans-serif" font-size="13" lengthAdjust="spacing" textLength="82" x="527.5" y="524.6846">, startingCard)</text><line style="stroke:#181818;stroke-width:1.0;" x1="1161.5" x2="1151.5" y1="561.2383" y2="557.2383"/><line style="stroke:#181818;stroke-width:1.0;" x1="1161.5" x2="1151.5" y1="561.2383" y2="565.2383"/><line style="stroke:#181818;stroke-width:1.0;" x1="616.5" x2="1162.5" y1="561.2383" y2="561.2383"/><text fill="#000000" font-family="sans-serif" font-size="13" lengthAdjust="spacing" textLength="245" x="623.5" y="555.9756">updateGameStatusAndSetupStartingCard(</text><text fill="#000000" font-family="monospace" font-size="13" font-weight="bold" lengthAdjust="spacing" textLength="196" x="868.5" y="555.9756">SETUP_STARTING_CARD_SIDE</text><text fill="#000000" font-family="sans-serif" font-size="13" lengthAdjust="spacing" textLength="82" x="1064.5" y="555.9756">, startingCard)</text><line style="stroke:#000000;stroke-width:1.0;stroke-dasharray:2.0,2.0;" x1="37.5" x2="1193" y1="570.2383" y2="570.2383"/><text fill="#000000" font-family="sans-serif" font-size="11" font-weight="bold" lengthAdjust="spacing" textLength="136" x="42.5" y="582.1084">[there is just one player]</text><line style="stroke:#181818;stroke-width:1.0;" x1="70.5" x2="80.5" y1="609.1602" y2="605.1602"/><line style="stroke:#181818;stroke-width:1.0;" x1="70.5" x2="80.5" y1="609.1602" y2="613.1602"/><line style="stroke:#181818;stroke-width:1.0;" x1="69.5" x2="615.5" y1="609.1602" y2="609.1602"/><text fill="#000000" font-family="sans-serif" font-size="13" lengthAdjust="spacing" textLength="140" x="86.5" y="603.8975">KO, insufficientPlayers()</text><line style="stroke:#000000;stroke-width:1.0;stroke-dasharray:2.0,2.0;" x1="18" x2="1213" y1="632.1602" y2="632.1602"/><text fill="#000000" font-family="sans-serif" font-size="11" font-weight="bold" lengthAdjust="spacing" textLength="121" x="23" y="644.0303">[game does not exist]</text><line style="stroke:#181818;stroke-width:1.0;" x1="70.5" x2="80.5" y1="671.082" y2="667.082"/><line style="stroke:#181818;stroke-width:1.0;" x1="70.5" x2="80.5" y1="671.082" y2="675.082"/><line style="stroke:#181818;stroke-width:1.0;" x1="69.5" x2="615.5" y1="671.082" y2="671.082"/><text fill="#000000" font-family="sans-serif" font-size="13" lengthAdjust="spacing" textLength="167" x="86.5" y="665.8193">KO, gameNotFound(gameID)</text><line style="stroke:#000000;stroke-width:1.0;stroke-dasharray:2.0,2.0;" x1="18" x2="1213" y1="680.082" y2="680.082"/><text fill="#000000" font-family="sans-serif" font-size="11" font-weight="bold" lengthAdjust="spacing" textLength="148" x="23" y="691.9521">[game has already started]</text><line style="stroke:#181818;stroke-width:1.0;" x1="70.5" x2="80.5" y1="719.0039" y2="715.0039"/><line style="stroke:#181818;stroke-width:1.0;" x1="70.5" x2="80.5" y1="719.0039" y2="723.0039"/><line style="stroke:#181818;stroke-width:1.0;" x1="69.5" x2="615.5" y1="719.0039" y2="719.0039"/><text fill="#000000" font-family="sans-serif" font-size="13" lengthAdjust="spacing" textLength="197" x="86.5" y="713.7412">KO, gameAlreadyStarted(gameID)</text><!--SRC=[fLHHJ-9047xVNp4GBu44DVf8aAGddCUfI6pDvPwQfHrapTAjtIqUB_xsczssG14vZIIbwUxiV3FVz-qqjE6PqVaK9jvzuBE6I2APnmYunCJeapHVICOQQQOYZFCCuUX9YUIABp3CyBbr54b1SHquqfWjCRlmtQlDW7xb9Xpt-zK-TA4wttgalz6WpHgOnElyxsBfyEvw6yvma-l3kBtUSRNVXJoDkK6Rp7T7MxsPIanteHAbKnvXlpVjbrbxfzD-xzHkzuk4yqGP16Nhht9tOJGEhxpROO7es0ercblKcZ-YhahzU7lNTw5bPApC3vKdySUehRLuVTU1MehFCboMuCaCURpohJFmAuNi9FfCEHgVwuAht6WHEm4lcarQ44dzkz3kmlljZOBH-2gSt7X_XlV-_hB_O-CzGOVzrsR5YSPCKSlHd7Wv0v70DvrAORJ9MblrTg3vsYmXjjnJE7GY-Ggp6w4DePsLKPOnolmMv7m7P8kbWoWseCGuty7OLOS-QJmmPeIH2B-84P4y0dS2ivIK5P58ELd0aoAghnICrvQ-godRtAOomC87SoG324sPqmoNGkLQhY2YHiaw3ko4KIdsB3lTlf4EbkwZzn3y78w3qQKN30Vr409z4y3g3d1PsenBm_Ogx_OxiEkkDZiaO9dqVVQfi69RfGQub92wmnhcV8bkKcAyLh2QCSzXWY_540lzOV0m2Vs0PhUjwjAx7uJ-Q31iDHtsAm6K7a2f4RHQe4eGNaWA3KQ1c_vWvkWO1kIPNAq12sRjzFQhuUtYtVJUE8iuinb8FMuV0nAvfgKNLRMpCU6NsrYtOYg_FEK4Pfigm6fOHGTsDlbReubkOZwRaIEfa48jlTKEcOnLRuVac8aLQY170VubuVPuP7TybzflCimvURiOY0MDfRGV6S5LiYJ-1m00]--></g></svg>