<?xml version="1.0" encoding="us-ascii" standalone="no"?><svg xmlns="http://www.w3.org/2000/svg" xmlns:xlink="http://www.w3.org/1999/xlink" contentStyleType="text/css" height="857px" preserveAspectRatio="none" style="width:1110px;height:857px;background:#FFFFFF;" version="1.1" viewBox="0 0 1110 857" width="1110px" zoomAndPan="magnify"><defs/><g><text fill="#000000" font-family="sans-serif" font-size="14" font-weight="bold" lengthAdjust="spacing" textLength="149" x="476.5" y="30.1074">Create game and join</text><line style="stroke:#181818;stroke-width:0.5;stroke-dasharray:5.0,5.0;" x1="86" x2="86" y1="78.2422" y2="820.3535"/><line style="stroke:#181818;stroke-width:0.5;stroke-dasharray:5.0,5.0;" x1="257.5" x2="257.5" y1="78.2422" y2="820.3535"/><line style="stroke:#181818;stroke-width:0.5;stroke-dasharray:5.0,5.0;" x1="429.5" x2="429.5" y1="78.2422" y2="820.3535"/><line style="stroke:#181818;stroke-width:0.5;stroke-dasharray:5.0,5.0;" x1="1070" x2="1070" y1="78.2422" y2="820.3535"/><rect fill="#E2E2F0" height="32.6211" rx="2.5" ry="2.5" style="stroke:#181818;stroke-width:0.5;" width="44" x="64" y="44.6211"/><text fill="#000000" font-family="sans-serif" font-size="14" lengthAdjust="spacing" textLength="30" x="71" y="66.7285">Alice</text><rect fill="#E2E2F0" height="32.6211" rx="2.5" ry="2.5" style="stroke:#181818;stroke-width:0.5;" width="44" x="64" y="819.3535"/><text fill="#000000" font-family="sans-serif" font-size="14" lengthAdjust="spacing" textLength="30" x="71" y="841.4609">Alice</text><rect fill="#E2E2F0" height="32.6211" rx="2.5" ry="2.5" style="stroke:#181818;stroke-width:0.5;" width="39" x="238.5" y="44.6211"/><text fill="#000000" font-family="sans-serif" font-size="14" lengthAdjust="spacing" textLength="25" x="245.5" y="66.7285">Bob</text><rect fill="#E2E2F0" height="32.6211" rx="2.5" ry="2.5" style="stroke:#181818;stroke-width:0.5;" width="39" x="238.5" y="819.3535"/><text fill="#000000" font-family="sans-serif" font-size="14" lengthAdjust="spacing" textLength="25" x="245.5" y="841.4609">Bob</text><rect fill="#E2E2F0" height="32.6211" rx="2.5" ry="2.5" style="stroke:#181818;stroke-width:0.5;" width="55" x="402.5" y="44.6211"/><text fill="#000000" font-family="sans-serif" font-size="14" lengthAdjust="spacing" textLength="41" x="409.5" y="66.7285">Carlos</text><rect fill="#E2E2F0" height="32.6211" rx="2.5" ry="2.5" style="stroke:#181818;stroke-width:0.5;" width="55" x="402.5" y="819.3535"/><text fill="#000000" font-family="sans-serif" font-size="14" lengthAdjust="spacing" textLength="41" x="409.5" y="841.4609">Carlos</text><rect fill="#E2E2F0" height="32.6211" rx="2.5" ry="2.5" style="stroke:#181818;stroke-width:0.5;" width="56" x="1042" y="44.6211"/><text fill="#000000" font-family="sans-serif" font-size="14" lengthAdjust="spacing" textLength="42" x="1049" y="66.7285">Server</text><rect fill="#E2E2F0" height="32.6211" rx="2.5" ry="2.5" style="stroke:#181818;stroke-width:0.5;" width="56" x="1042" y="819.3535"/><text fill="#000000" font-family="sans-serif" font-size="14" lengthAdjust="spacing" textLength="42" x="1049" y="841.4609">Server</text><line style="stroke:#000000;stroke-width:1.0;stroke-dasharray:2.0,2.0;" x1="0" x2="1103" y1="89.2422" y2="89.2422"/><line style="stroke:#181818;stroke-width:1.0;" x1="1068" x2="1058" y1="113.5332" y2="109.5332"/><line style="stroke:#181818;stroke-width:1.0;" x1="1068" x2="1058" y1="113.5332" y2="117.5332"/><line style="stroke:#181818;stroke-width:1.0;" x1="86" x2="1069" y1="113.5332" y2="113.5332"/><text fill="#000000" font-family="sans-serif" font-size="13" lengthAdjust="spacing" textLength="194" x="93" y="108.2705">createGameAndJoin(maxPlayers)</text><line style="stroke:#181818;stroke-width:1.0;" x1="87" x2="97" y1="144.8242" y2="140.8242"/><line style="stroke:#181818;stroke-width:1.0;" x1="87" x2="97" y1="144.8242" y2="148.8242"/><line style="stroke:#181818;stroke-width:1.0;" x1="86" x2="1069" y1="144.8242" y2="144.8242"/><text fill="#000000" font-family="sans-serif" font-size="13" lengthAdjust="spacing" textLength="116" x="103" y="139.5615">updateGameStatus(</text><text fill="#000000" font-family="monospace" font-size="13" font-weight="bold" lengthAdjust="spacing" textLength="133" x="219" y="139.5615">AWAITING_PLAYERS</text><text fill="#000000" font-family="sans-serif" font-size="13" lengthAdjust="spacing" textLength="4" x="352" y="139.5615">)</text><polygon fill="#FEFFDD" points="55,157.8242,117,157.8242,127,169.8242,117,182.8242,55,182.8242,45,169.8242,55,157.8242" style="stroke:#181818;stroke-width:0.5;"/><text fill="#000000" font-family="sans-serif" font-size="13" lengthAdjust="spacing" textLength="58" x="57" y="175.8525">IN_GAME</text><line style="stroke:#181818;stroke-width:1.0;" x1="87" x2="97" y1="211.4063" y2="207.4063"/><line style="stroke:#181818;stroke-width:1.0;" x1="87" x2="97" y1="211.4063" y2="215.4063"/><line style="stroke:#181818;stroke-width:1.0;" x1="86" x2="1069" y1="211.4063" y2="211.4063"/><text fill="#000000" font-family="sans-serif" font-size="13" lengthAdjust="spacing" textLength="234" x="103" y="206.1436">setMessages(message1, message2, ...)</text><line style="stroke:#181818;stroke-width:1.0;" x1="87" x2="97" y1="242.6973" y2="238.6973"/><line style="stroke:#181818;stroke-width:1.0;" x1="87" x2="97" y1="242.6973" y2="246.6973"/><line style="stroke:#181818;stroke-width:1.0;" x1="86" x2="1069" y1="242.6973" y2="242.6973"/><text fill="#000000" font-family="sans-serif" font-size="13" lengthAdjust="spacing" textLength="217" x="103" y="237.4346">updatePlayerList(player1, player2, ...)</text><line style="stroke:#181818;stroke-width:1.0;" x1="259" x2="269" y1="273.9883" y2="269.9883"/><line style="stroke:#181818;stroke-width:1.0;" x1="259" x2="269" y1="273.9883" y2="277.9883"/><line style="stroke:#181818;stroke-width:1.0;" x1="258" x2="1069" y1="273.9883" y2="273.9883"/><text fill="#000000" font-family="sans-serif" font-size="13" lengthAdjust="spacing" textLength="263" x="275" y="268.7256">updateGameList(gameData1, gameData2, ...)</text><line style="stroke:#181818;stroke-width:1.0;" x1="431" x2="441" y1="305.2793" y2="301.2793"/><line style="stroke:#181818;stroke-width:1.0;" x1="431" x2="441" y1="305.2793" y2="309.2793"/><line style="stroke:#181818;stroke-width:1.0;" x1="430" x2="1069" y1="305.2793" y2="305.2793"/><text fill="#000000" font-family="sans-serif" font-size="13" lengthAdjust="spacing" textLength="263" x="447" y="300.0166">updateGameList(gameData1, gameData2, ...)</text><line style="stroke:#181818;stroke-width:1.0;" x1="1068" x2="1058" y1="361.5703" y2="357.5703"/><line style="stroke:#181818;stroke-width:1.0;" x1="1068" x2="1058" y1="361.5703" y2="365.5703"/><line style="stroke:#181818;stroke-width:1.0;" x1="258" x2="1069" y1="361.5703" y2="361.5703"/><text fill="#000000" font-family="sans-serif" font-size="13" lengthAdjust="spacing" textLength="107" x="265" y="356.3076">joinGame(gameID)</text><line style="stroke:#181818;stroke-width:1.0;" x1="259" x2="269" y1="392.8613" y2="388.8613"/><line style="stroke:#181818;stroke-width:1.0;" x1="259" x2="269" y1="392.8613" y2="396.8613"/><line style="stroke:#181818;stroke-width:1.0;" x1="258" x2="1069" y1="392.8613" y2="392.8613"/><text fill="#000000" font-family="sans-serif" font-size="13" lengthAdjust="spacing" textLength="116" x="275" y="387.5986">updateGameStatus(</text><text fill="#000000" font-family="monospace" font-size="13" font-weight="bold" lengthAdjust="spacing" textLength="133" x="391" y="387.5986">AWAITING_PLAYERS</text><text fill="#000000" font-family="sans-serif" font-size="13" lengthAdjust="spacing" textLength="4" x="524" y="387.5986">)</text><polygon fill="#FEFFDD" points="227,405.8613,289,405.8613,299,417.8613,289,430.8613,227,430.8613,217,417.8613,227,405.8613" style="stroke:#181818;stroke-width:0.5;"/><text fill="#000000" font-family="sans-serif" font-size="13" lengthAdjust="spacing" textLength="58" x="229" y="423.8896">IN_GAME</text><line style="stroke:#181818;stroke-width:1.0;" x1="259" x2="269" y1="459.4434" y2="455.4434"/><line style="stroke:#181818;stroke-width:1.0;" x1="259" x2="269" y1="459.4434" y2="463.4434"/><line style="stroke:#181818;stroke-width:1.0;" x1="258" x2="1069" y1="459.4434" y2="459.4434"/><text fill="#000000" font-family="sans-serif" font-size="13" lengthAdjust="spacing" textLength="234" x="275" y="454.1807">setMessages(message1, message2, ...)</text><line style="stroke:#181818;stroke-width:1.0;" x1="87" x2="97" y1="490.7344" y2="486.7344"/><line style="stroke:#181818;stroke-width:1.0;" x1="87" x2="97" y1="490.7344" y2="494.7344"/><line style="stroke:#181818;stroke-width:1.0;" x1="86" x2="1069" y1="490.7344" y2="490.7344"/><text fill="#000000" font-family="sans-serif" font-size="13" lengthAdjust="spacing" textLength="217" x="103" y="485.4717">updatePlayerList(player1, player2, ...)</text><line style="stroke:#181818;stroke-width:1.0;" x1="259" x2="269" y1="522.0254" y2="518.0254"/><line style="stroke:#181818;stroke-width:1.0;" x1="259" x2="269" y1="522.0254" y2="526.0254"/><line style="stroke:#181818;stroke-width:1.0;" x1="258" x2="1069" y1="522.0254" y2="522.0254"/><text fill="#000000" font-family="sans-serif" font-size="13" lengthAdjust="spacing" textLength="217" x="275" y="516.7627">updatePlayerList(player1, player2, ...)</text><line style="stroke:#181818;stroke-width:1.0;" x1="431" x2="441" y1="553.3164" y2="549.3164"/><line style="stroke:#181818;stroke-width:1.0;" x1="431" x2="441" y1="553.3164" y2="557.3164"/><line style="stroke:#181818;stroke-width:1.0;" x1="430" x2="1069" y1="553.3164" y2="553.3164"/><text fill="#000000" font-family="sans-serif" font-size="13" lengthAdjust="spacing" textLength="263" x="447" y="548.0537">updateGameList(gameData1, gameData2, ...)</text><line style="stroke:#181818;stroke-width:1.0;" x1="1068" x2="1058" y1="609.6074" y2="605.6074"/><line style="stroke:#181818;stroke-width:1.0;" x1="1068" x2="1058" y1="609.6074" y2="613.6074"/><line style="stroke:#181818;stroke-width:1.0;" x1="430" x2="1069" y1="609.6074" y2="609.6074"/><text fill="#000000" font-family="sans-serif" font-size="13" lengthAdjust="spacing" textLength="107" x="437" y="604.3447">joinGame(gameID)</text><line style="stroke:#181818;stroke-width:1.0;" x1="431" x2="441" y1="640.8984" y2="636.8984"/><line style="stroke:#181818;stroke-width:1.0;" x1="431" x2="441" y1="640.8984" y2="644.8984"/><line style="stroke:#181818;stroke-width:1.0;" x1="430" x2="1069" y1="640.8984" y2="640.8984"/><text fill="#000000" font-family="sans-serif" font-size="13" lengthAdjust="spacing" textLength="116" x="447" y="635.6357">updateGameStatus(</text><text fill="#000000" font-family="monospace" font-size="13" font-weight="bold" lengthAdjust="spacing" textLength="133" x="563" y="635.6357">AWAITING_PLAYERS</text><text fill="#000000" font-family="sans-serif" font-size="13" lengthAdjust="spacing" textLength="4" x="696" y="635.6357">)</text><polygon fill="#FEFFDD" points="399,653.8984,461,653.8984,471,665.8984,461,678.8984,399,678.8984,389,665.8984,399,653.8984" style="stroke:#181818;stroke-width:0.5;"/><text fill="#000000" font-family="sans-serif" font-size="13" lengthAdjust="spacing" textLength="58" x="401" y="671.9268">IN_GAME</text><line style="stroke:#181818;stroke-width:1.0;" x1="431" x2="441" y1="707.4805" y2="703.4805"/><line style="stroke:#181818;stroke-width:1.0;" x1="431" x2="441" y1="707.4805" y2="711.4805"/><line style="stroke:#181818;stroke-width:1.0;" x1="430" x2="1069" y1="707.4805" y2="707.4805"/><text fill="#000000" font-family="sans-serif" font-size="13" lengthAdjust="spacing" textLength="234" x="447" y="702.2178">setMessages(message1, message2, ...)</text><line style="stroke:#181818;stroke-width:1.0;" x1="87" x2="97" y1="738.7715" y2="734.7715"/><line style="stroke:#181818;stroke-width:1.0;" x1="87" x2="97" y1="738.7715" y2="742.7715"/><line style="stroke:#181818;stroke-width:1.0;" x1="86" x2="1069" y1="738.7715" y2="738.7715"/><text fill="#000000" font-family="sans-serif" font-size="13" lengthAdjust="spacing" textLength="217" x="103" y="733.5088">updatePlayerList(player1, player2, ...)</text><line style="stroke:#181818;stroke-width:1.0;" x1="259" x2="269" y1="770.0625" y2="766.0625"/><line style="stroke:#181818;stroke-width:1.0;" x1="259" x2="269" y1="770.0625" y2="774.0625"/><line style="stroke:#181818;stroke-width:1.0;" x1="258" x2="1069" y1="770.0625" y2="770.0625"/><text fill="#000000" font-family="sans-serif" font-size="13" lengthAdjust="spacing" textLength="217" x="275" y="764.7998">updatePlayerList(player1, player2, ...)</text><line style="stroke:#181818;stroke-width:1.0;" x1="431" x2="441" y1="801.3535" y2="797.3535"/><line style="stroke:#181818;stroke-width:1.0;" x1="431" x2="441" y1="801.3535" y2="805.3535"/><line style="stroke:#181818;stroke-width:1.0;" x1="430" x2="1069" y1="801.3535" y2="801.3535"/><text fill="#000000" font-family="sans-serif" font-size="13" lengthAdjust="spacing" textLength="217" x="447" y="796.0908">updatePlayerList(player1, player2, ...)</text><line style="stroke:#000000;stroke-width:1.0;stroke-dasharray:2.0,2.0;" x1="0" x2="1103" y1="809.3535" y2="809.3535"/><!--SRC=[jLTTJ-Cu57ttht2ZIcqrQ5cjD5e90L98oz1Tr5PDcD4yHMxYWjdWT6m7D5B5RzzhvnlI1WBjKvgSwtlkFVQnFS3hM60IHNX3Rgb4FSQ3A0affe-KA_d79dc84Egj4nue5dFS3s8krR0lbM3yTeGm_7g2gaHmR9skOwvE7c8Uomq9wFdfwjp2Nt06XYVhz7XrVdgiOUSMwb4UvWCZD5Wp8PMXKR2GoGgJHDtv8LM4HOPDRs4lFHUX3H6A1Mn3kC9sn09QUtCHhsh_7IAYMDPUkLGyKe6GOYgY-4PION91sImWXjCTZnN5CQ3I3FW4p-QURzzuLvEPDtLiRp96nxW2WxJje9HB8mxrJRcI_lBd_mvDqX7QRl_wkjtMFq6YvW_fu2E4E7tIlSIEe0Gotv87YWaFyNtCUAt1WG5yW-yDRQu2TUGE6EfNHgcoFy8MK7rEMLabvMAiiXw0PZ1uCi7Fy7PFJ8e6S2sWp5MqG0TX2PDqKwj7qeW6obLwJl1R20jT5hOr8GrQHEGt5KuSnU9DU9T2VzHyTG_FxB6nWzljtxfAP1QUAH7e0pcLID-TU3SBt_K0EPrzynrxEVRTwNWoR2mxxrUMMjSagCoxbeRiQ5bBgDQZKs23i3N2RQKxy-lvShWlECkSIbAczc7PEM0tO3Kq7FQ3Y46Aiw87_NH6dRqU6RvjZCXdJRPcu5KpUzc1D_986zgL1G0_WKEPgYED5FIIIPkayuj_9eut_JxPAsjUIxbqAjCgTvZM-TWOdLfEjzZ2UjuvdMqUUh1LwlrJ_prRNDi_Z_fwzrpS4KdrVmTM-3ujHfLnmTCkOl2jOIli2go_kT65IrwQ_LTpgHaO21zGROujHXSAyhG31YgMexHfTvIVCTBTRuG6s9kFvoVuIJ3OnonYbYvc0A4anF4QMq4Y1DIQchBLfU_ZfVsZjU_vl2Wg5VHNlaTNNyhIPki33FerQfgHdoa-tDC8lTUF3ZQRjjklVvg5zagY7Gla1Q-ceh9s7gIexbAPCzExXKes8HninZJuJwO4FrFQxBHsE7KBUHlqtMrYh_brLFaZzNKNEZy3TrcKcSRNjklvtirorkpn7UNEBUqDtIW9l5lomj6lIMxeWwfJwwl09UDCtj56j_wGMH_OuhgtvH0-zyah_0EQxwxkFQkywRHsEPrDtQl9k77nlBWW7wLtQhZQcYiNyCVhRA8rNQPRBz9lkKJNCFy3]--></g></svg>