<?xml version="1.0" encoding="us-ascii" standalone="no"?><svg xmlns="http://www.w3.org/2000/svg" xmlns:xlink="http://www.w3.org/1999/xlink" contentStyleType="text/css" height="702px" preserveAspectRatio="none" style="width:1378px;height:702px;background:#FFFFFF;" version="1.1" viewBox="0 0 1378 702" width="1378px" zoomAndPan="magnify"><defs/><g><text fill="#000000" font-family="sans-serif" font-size="14" font-weight="bold" lengthAdjust="spacing" textLength="163" x="608.75" y="30.1074">Select secret objective</text><rect fill="none" height="398.7539" style="stroke:#000000;stroke-width:1.5;" width="1361.5" x="10" y="249.4063"/><rect fill="none" height="207.0371" style="stroke:#000000;stroke-width:1.5;" width="1341.5" x="20" y="338.2793"/><line style="stroke:#181818;stroke-width:0.5;stroke-dasharray:5.0,5.0;" x1="52" x2="52" y1="78.2422" y2="665.1602"/><line style="stroke:#181818;stroke-width:0.5;stroke-dasharray:5.0,5.0;" x1="692" x2="692" y1="78.2422" y2="665.1602"/><line style="stroke:#181818;stroke-width:0.5;stroke-dasharray:5.0,5.0;" x1="1331.5" x2="1331.5" y1="78.2422" y2="665.1602"/><rect fill="#E2E2F0" height="32.6211" rx="2.5" ry="2.5" style="stroke:#181818;stroke-width:0.5;" width="44" x="30" y="44.6211"/><text fill="#000000" font-family="sans-serif" font-size="14" lengthAdjust="spacing" textLength="30" x="37" y="66.7285">Alice</text><rect fill="#E2E2F0" height="32.6211" rx="2.5" ry="2.5" style="stroke:#181818;stroke-width:0.5;" width="44" x="30" y="664.1602"/><text fill="#000000" font-family="sans-serif" font-size="14" lengthAdjust="spacing" textLength="30" x="37" y="686.2676">Alice</text><rect fill="#E2E2F0" height="32.6211" rx="2.5" ry="2.5" style="stroke:#181818;stroke-width:0.5;" width="56" x="664" y="44.6211"/><text fill="#000000" font-family="sans-serif" font-size="14" lengthAdjust="spacing" textLength="42" x="671" y="66.7285">Server</text><rect fill="#E2E2F0" height="32.6211" rx="2.5" ry="2.5" style="stroke:#181818;stroke-width:0.5;" width="56" x="664" y="664.1602"/><text fill="#000000" font-family="sans-serif" font-size="14" lengthAdjust="spacing" textLength="42" x="671" y="686.2676">Server</text><rect fill="#E2E2F0" height="32.6211" rx="2.5" ry="2.5" style="stroke:#181818;stroke-width:0.5;" width="39" x="1312.5" y="44.6211"/><text fill="#000000" font-family="sans-serif" font-size="14" lengthAdjust="spacing" textLength="25" x="1319.5" y="66.7285">Bob</text><rect fill="#E2E2F0" height="32.6211" rx="2.5" ry="2.5" style="stroke:#181818;stroke-width:0.5;" width="39" x="1312.5" y="664.1602"/><text fill="#000000" font-family="sans-serif" font-size="14" lengthAdjust="spacing" textLength="25" x="1319.5" y="686.2676">Bob</text><polygon fill="#FEFFDD" points="21,93.2422,83,93.2422,93,105.2422,83,118.2422,21,118.2422,11,105.2422,21,93.2422" style="stroke:#181818;stroke-width:0.5;"/><text fill="#000000" font-family="sans-serif" font-size="13" lengthAdjust="spacing" textLength="58" x="23" y="111.2705">IN_GAME</text><polygon fill="#FEFFDD" points="1301,93.2422,1363,93.2422,1373,105.2422,1363,118.2422,1301,118.2422,1291,105.2422,1301,93.2422" style="stroke:#181818;stroke-width:0.5;"/><text fill="#000000" font-family="sans-serif" font-size="13" lengthAdjust="spacing" textLength="58" x="1303" y="111.2705">IN_GAME</text><line style="stroke:#181818;stroke-width:1.0;" x1="53" x2="63" y1="146.8242" y2="142.8242"/><line style="stroke:#181818;stroke-width:1.0;" x1="53" x2="63" y1="146.8242" y2="150.8242"/><line style="stroke:#181818;stroke-width:1.0;" x1="52" x2="691" y1="146.8242" y2="146.8242"/><text fill="#000000" font-family="sans-serif" font-size="13" lengthAdjust="spacing" textLength="233" x="69" y="141.5615">updateGameStatusAndSetupObjectives(</text><text fill="#000000" font-family="monospace" font-size="13" font-weight="bold" lengthAdjust="spacing" textLength="122" x="302" y="141.5615">SETUP_OBJECTIVE</text><text fill="#000000" font-family="sans-serif" font-size="13" lengthAdjust="spacing" textLength="134" x="424" y="141.5615">, objective1, objective2)</text><line style="stroke:#181818;stroke-width:1.0;" x1="1330" x2="1320" y1="178.1152" y2="174.1152"/><line style="stroke:#181818;stroke-width:1.0;" x1="1330" x2="1320" y1="178.1152" y2="182.1152"/><line style="stroke:#181818;stroke-width:1.0;" x1="692" x2="1331" y1="178.1152" y2="178.1152"/><text fill="#000000" font-family="sans-serif" font-size="13" lengthAdjust="spacing" textLength="233" x="699" y="172.8525">updateGameStatusAndSetupObjectives(</text><text fill="#000000" font-family="monospace" font-size="13" font-weight="bold" lengthAdjust="spacing" textLength="122" x="932" y="172.8525">SETUP_OBJECTIVE</text><text fill="#000000" font-family="sans-serif" font-size="13" lengthAdjust="spacing" textLength="134" x="1054" y="172.8525">, objective1, objective2)</text><line style="stroke:#181818;stroke-width:1.0;" x1="690" x2="680" y1="234.4063" y2="230.4063"/><line style="stroke:#181818;stroke-width:1.0;" x1="690" x2="680" y1="234.4063" y2="238.4063"/><line style="stroke:#181818;stroke-width:1.0;" x1="52" x2="691" y1="234.4063" y2="234.4063"/><text fill="#000000" font-family="sans-serif" font-size="13" lengthAdjust="spacing" textLength="146" x="59" y="229.1436">selectObjective(objective)</text><path d="M10,249.4063 L71,249.4063 L71,258.6973 L61,268.6973 L10,268.6973 L10,249.4063 " fill="#EEEEEE" style="stroke:#000000;stroke-width:1.5;"/><rect fill="none" height="398.7539" style="stroke:#000000;stroke-width:1.5;" width="1361.5" x="10" y="249.4063"/><text fill="#000000" font-family="sans-serif" font-size="13" font-weight="bold" lengthAdjust="spacing" textLength="16" x="25" y="264.4346">alt</text><line style="stroke:#181818;stroke-width:1.0;" x1="53" x2="63" y1="291.9883" y2="287.9883"/><line style="stroke:#181818;stroke-width:1.0;" x1="53" x2="63" y1="291.9883" y2="295.9883"/><line style="stroke:#181818;stroke-width:1.0;" x1="52" x2="691" y1="291.9883" y2="291.9883"/><text fill="#000000" font-family="sans-serif" font-size="13" lengthAdjust="spacing" textLength="411" x="69" y="286.7256">updateChosenObjectiveList(player1HasChosen, player2HasChosen, ...)</text><line style="stroke:#181818;stroke-width:1.0;" x1="1330" x2="1320" y1="323.2793" y2="319.2793"/><line style="stroke:#181818;stroke-width:1.0;" x1="1330" x2="1320" y1="323.2793" y2="327.2793"/><line style="stroke:#181818;stroke-width:1.0;" x1="692" x2="1331" y1="323.2793" y2="323.2793"/><text fill="#000000" font-family="sans-serif" font-size="13" lengthAdjust="spacing" textLength="411" x="699" y="318.0166">updateChosenObjectiveList(player1HasChosen, player2HasChosen, ...)</text><path d="M20,338.2793 L85,338.2793 L85,347.5703 L75,357.5703 L20,357.5703 L20,338.2793 " fill="#EEEEEE" style="stroke:#000000;stroke-width:1.5;"/><rect fill="none" height="207.0371" style="stroke:#000000;stroke-width:1.5;" width="1341.5" x="20" y="338.2793"/><text fill="#000000" font-family="sans-serif" font-size="13" font-weight="bold" lengthAdjust="spacing" textLength="20" x="35" y="353.3076">opt</text><text fill="#000000" font-family="sans-serif" font-size="11" font-weight="bold" lengthAdjust="spacing" textLength="236" x="100" y="352.1494">[all players have selected secret objective]</text><line style="stroke:#181818;stroke-width:1.0;" x1="53" x2="63" y1="380.8613" y2="376.8613"/><line style="stroke:#181818;stroke-width:1.0;" x1="53" x2="63" y1="380.8613" y2="384.8613"/><line style="stroke:#181818;stroke-width:1.0;" x1="52" x2="691" y1="380.8613" y2="380.8613"/><text fill="#000000" font-family="sans-serif" font-size="13" lengthAdjust="spacing" textLength="164" x="69" y="375.5986">updateGameStatusAndTurn(</text><text fill="#000000" font-family="monospace" font-size="13" font-weight="bold" lengthAdjust="spacing" textLength="34" x="233" y="375.5986">PLAY</text><text fill="#000000" font-family="sans-serif" font-size="13" lengthAdjust="spacing" textLength="4" x="267" y="375.5986">,</text><text fill="#000000" font-family="monospace" font-size="13" font-weight="bold" lengthAdjust="spacing" textLength="58" x="275" y="375.5986">PLACING</text><text fill="#000000" font-family="sans-serif" font-size="13" lengthAdjust="spacing" textLength="89" x="333" y="375.5986">, currentPlayer)</text><line style="stroke:#181818;stroke-width:1.0;" x1="1330" x2="1320" y1="412.1523" y2="408.1523"/><line style="stroke:#181818;stroke-width:1.0;" x1="1330" x2="1320" y1="412.1523" y2="416.1523"/><line style="stroke:#181818;stroke-width:1.0;" x1="692" x2="1331" y1="412.1523" y2="412.1523"/><text fill="#000000" font-family="sans-serif" font-size="13" lengthAdjust="spacing" textLength="164" x="699" y="406.8896">updateGameStatusAndTurn(</text><text fill="#000000" font-family="monospace" font-size="13" font-weight="bold" lengthAdjust="spacing" textLength="34" x="863" y="406.8896">PLAY</text><text fill="#000000" font-family="sans-serif" font-size="13" lengthAdjust="spacing" textLength="4" x="897" y="406.8896">,</text><text fill="#000000" font-family="monospace" font-size="13" font-weight="bold" lengthAdjust="spacing" textLength="58" x="905" y="406.8896">PLACING</text><text fill="#000000" font-family="sans-serif" font-size="13" lengthAdjust="spacing" textLength="89" x="963" y="406.8896">, currentPlayer)</text><line style="stroke:#181818;stroke-width:1.0;" x1="53" x2="63" y1="443.4434" y2="439.4434"/><line style="stroke:#181818;stroke-width:1.0;" x1="53" x2="63" y1="443.4434" y2="447.4434"/><line style="stroke:#181818;stroke-width:1.0;" x1="52" x2="691" y1="443.4434" y2="443.4434"/><text fill="#000000" font-family="sans-serif" font-size="13" lengthAdjust="spacing" textLength="616" x="69" y="438.1807">setBoard(commonObjective1, commonObjective2, faceUpCard1, faceUpCard2, faceUpCard3, faceUpCard4)</text><line style="stroke:#181818;stroke-width:1.0;" x1="1330" x2="1320" y1="474.7344" y2="470.7344"/><line style="stroke:#181818;stroke-width:1.0;" x1="1330" x2="1320" y1="474.7344" y2="478.7344"/><line style="stroke:#181818;stroke-width:1.0;" x1="692" x2="1331" y1="474.7344" y2="474.7344"/><text fill="#000000" font-family="sans-serif" font-size="13" lengthAdjust="spacing" textLength="616" x="699" y="469.4717">setBoard(commonObjective1, commonObjective2, faceUpCard1, faceUpCard2, faceUpCard3, faceUpCard4)</text><line style="stroke:#181818;stroke-width:1.0;" x1="53" x2="63" y1="506.0254" y2="502.0254"/><line style="stroke:#181818;stroke-width:1.0;" x1="53" x2="63" y1="506.0254" y2="510.0254"/><line style="stroke:#181818;stroke-width:1.0;" x1="52" x2="691" y1="506.0254" y2="506.0254"/><text fill="#000000" font-family="sans-serif" font-size="13" lengthAdjust="spacing" textLength="208" x="69" y="500.7627">setHand(card1, card2, card3, card4)</text><line style="stroke:#181818;stroke-width:1.0;" x1="1330" x2="1320" y1="537.3164" y2="533.3164"/><line style="stroke:#181818;stroke-width:1.0;" x1="1330" x2="1320" y1="537.3164" y2="541.3164"/><line style="stroke:#181818;stroke-width:1.0;" x1="692" x2="1331" y1="537.3164" y2="537.3164"/><text fill="#000000" font-family="sans-serif" font-size="13" lengthAdjust="spacing" textLength="208" x="699" y="532.0537">setHand(card1, card2, card3, card4)</text><line style="stroke:#000000;stroke-width:1.0;stroke-dasharray:2.0,2.0;" x1="10" x2="1371.5" y1="553.3164" y2="553.3164"/><text fill="#000000" font-family="sans-serif" font-size="11" font-weight="bold" lengthAdjust="spacing" textLength="152" x="15" y="565.1865">[player has already chosen]</text><line style="stroke:#181818;stroke-width:1.0;" x1="53" x2="63" y1="592.2383" y2="588.2383"/><line style="stroke:#181818;stroke-width:1.0;" x1="53" x2="63" y1="592.2383" y2="596.2383"/><line style="stroke:#181818;stroke-width:1.0;" x1="52" x2="691" y1="592.2383" y2="592.2383"/><text fill="#000000" font-family="sans-serif" font-size="13" lengthAdjust="spacing" textLength="113" x="69" y="586.9756">KO, doubleChoice()</text><line style="stroke:#000000;stroke-width:1.0;stroke-dasharray:2.0,2.0;" x1="10" x2="1371.5" y1="601.2383" y2="601.2383"/><text fill="#000000" font-family="sans-serif" font-size="11" font-weight="bold" lengthAdjust="spacing" textLength="96" x="15" y="613.1084">[invalid objective]</text><line style="stroke:#181818;stroke-width:1.0;" x1="53" x2="63" y1="640.1602" y2="636.1602"/><line style="stroke:#181818;stroke-width:1.0;" x1="53" x2="63" y1="640.1602" y2="644.1602"/><line style="stroke:#181818;stroke-width:1.0;" x1="52" x2="691" y1="640.1602" y2="640.1602"/><text fill="#000000" font-family="sans-serif" font-size="13" lengthAdjust="spacing" textLength="123" x="69" y="634.8975">KO, invalidObjective()</text><!--SRC=[bLHHQzim47xNhv2D1mwu6TjZQGfE26dMhWbpDkXJKAmRrb1bLv8z2g6_VMVPSPtKRLWUakZkk_DtttUoPopJrfGxkev_R1BY2PNAaWE52fGruw9yb8HuXSvJuAK66XYGaDhLxWz-Ymgs6fx289K2uL6TrHNeIU9-HeJYfqtIY-lhG_wIddG9yyE_4V50yUvvvvvjjglRC11gmHvXull33BpVkGQMPXqLeUWdKqXXZTM7weZwBtw3xxE-khfuPLqMd5cOPRa1rR6u4yQ6XMJFeB_SCDDa8zf4llOYu_6uvOCJ8gN_dTJ0avks4_lCs1zPzIwYB-XRB_28kqA85LO2JLmrUfbgiBIpa1IuKY8L1KFzOYdIuqX3yIWqpR5dfd8BDCTSKqGlwV9-kuY_pybdsaiYk9SYRb6TDWh-9fRPqcoJ-URdUhkQVflFDijVyz1t3L-m4Xqc-_sUa45n76n4cBJqGtsE-jN0lB2KITcQRcZ6AcXt7FXRWGvBDi0zLdnJQXK6nXqdwxlu8GeiXjOPCr2VPylxHS_zKox7ZGtOQSuq3y_ZRfWQWA7bAB8qq0w7incS5IyKVwQfMss7QpohhqlItfRRLKHvNkvaVMCm6OwQFa9LJ0f-eiTmVOjzVL5W3oJq3m00]--></g></svg>