<?xml version="1.0" encoding="us-ascii" standalone="no"?><svg xmlns="http://www.w3.org/2000/svg" xmlns:xlink="http://www.w3.org/1999/xlink" contentStyleType="text/css" height="1173px" preserveAspectRatio="none" style="width:1110px;height:1173px;background:#FFFFFF;" version="1.1" viewBox="0 0 1110 1173" width="1110px" zoomAndPan="magnify"><defs/><g><text fill="#000000" font-family="sans-serif" font-size="14" font-weight="bold" lengthAdjust="spacing" textLength="62" x="520" y="30.1074">Last turn</text><line style="stroke:#181818;stroke-width:0.5;stroke-dasharray:5.0,5.0;" x1="86" x2="86" y1="78.2422" y2="1135.6816"/><line style="stroke:#181818;stroke-width:0.5;stroke-dasharray:5.0,5.0;" x1="257.5" x2="257.5" y1="78.2422" y2="1135.6816"/><line style="stroke:#181818;stroke-width:0.5;stroke-dasharray:5.0,5.0;" x1="429.5" x2="429.5" y1="78.2422" y2="1135.6816"/><line style="stroke:#181818;stroke-width:0.5;stroke-dasharray:5.0,5.0;" x1="1070" x2="1070" y1="78.2422" y2="1135.6816"/><rect fill="#E2E2F0" height="32.6211" rx="2.5" ry="2.5" style="stroke:#181818;stroke-width:0.5;" width="44" x="64" y="44.6211"/><text fill="#000000" font-family="sans-serif" font-size="14" lengthAdjust="spacing" textLength="30" x="71" y="66.7285">Alice</text><rect fill="#E2E2F0" height="32.6211" rx="2.5" ry="2.5" style="stroke:#181818;stroke-width:0.5;" width="44" x="64" y="1134.6816"/><text fill="#000000" font-family="sans-serif" font-size="14" lengthAdjust="spacing" textLength="30" x="71" y="1156.7891">Alice</text><rect fill="#E2E2F0" height="32.6211" rx="2.5" ry="2.5" style="stroke:#181818;stroke-width:0.5;" width="39" x="238.5" y="44.6211"/><text fill="#000000" font-family="sans-serif" font-size="14" lengthAdjust="spacing" textLength="25" x="245.5" y="66.7285">Bob</text><rect fill="#E2E2F0" height="32.6211" rx="2.5" ry="2.5" style="stroke:#181818;stroke-width:0.5;" width="39" x="238.5" y="1134.6816"/><text fill="#000000" font-family="sans-serif" font-size="14" lengthAdjust="spacing" textLength="25" x="245.5" y="1156.7891">Bob</text><rect fill="#E2E2F0" height="32.6211" rx="2.5" ry="2.5" style="stroke:#181818;stroke-width:0.5;" width="55" x="402.5" y="44.6211"/><text fill="#000000" font-family="sans-serif" font-size="14" lengthAdjust="spacing" textLength="41" x="409.5" y="66.7285">Carlos</text><rect fill="#E2E2F0" height="32.6211" rx="2.5" ry="2.5" style="stroke:#181818;stroke-width:0.5;" width="55" x="402.5" y="1134.6816"/><text fill="#000000" font-family="sans-serif" font-size="14" lengthAdjust="spacing" textLength="41" x="409.5" y="1156.7891">Carlos</text><rect fill="#E2E2F0" height="32.6211" rx="2.5" ry="2.5" style="stroke:#181818;stroke-width:0.5;" width="56" x="1042" y="44.6211"/><text fill="#000000" font-family="sans-serif" font-size="14" lengthAdjust="spacing" textLength="42" x="1049" y="66.7285">Server</text><rect fill="#E2E2F0" height="32.6211" rx="2.5" ry="2.5" style="stroke:#181818;stroke-width:0.5;" width="56" x="1042" y="1134.6816"/><text fill="#000000" font-family="sans-serif" font-size="14" lengthAdjust="spacing" textLength="42" x="1049" y="1156.7891">Server</text><line style="stroke:#000000;stroke-width:1.0;stroke-dasharray:2.0,2.0;" x1="0" x2="1103" y1="89.2422" y2="89.2422"/><path d="M43,95.2422 L43,122.2422 L128,122.2422 L128,105.2422 L118,95.2422 L43,95.2422 " fill="#FEFFDD" style="stroke:#181818;stroke-width:0.5;"/><path d="M118,95.2422 L118,105.2422 L128,105.2422 L118,95.2422 " fill="#FEFFDD" style="stroke:#181818;stroke-width:0.5;"/><text fill="#000000" font-family="sans-serif" font-size="13" lengthAdjust="spacing" textLength="64" x="49" y="114.2705">Alice's turn</text><line style="stroke:#181818;stroke-width:1.0;" x1="87" x2="97" y1="150.8242" y2="146.8242"/><line style="stroke:#181818;stroke-width:1.0;" x1="87" x2="97" y1="150.8242" y2="154.8242"/><line style="stroke:#181818;stroke-width:1.0;" x1="86" x2="1069" y1="150.8242" y2="150.8242"/><text fill="#000000" font-family="sans-serif" font-size="13" lengthAdjust="spacing" textLength="255" x="103" y="145.5615">setPlayablePosition(position1, position2, ...)</text><line style="stroke:#181818;stroke-width:1.0;" x1="1068" x2="1058" y1="182.1152" y2="178.1152"/><line style="stroke:#181818;stroke-width:1.0;" x1="1068" x2="1058" y1="182.1152" y2="186.1152"/><line style="stroke:#181818;stroke-width:1.0;" x1="86" x2="1069" y1="182.1152" y2="182.1152"/><text fill="#000000" font-family="sans-serif" font-size="13" lengthAdjust="spacing" textLength="153" x="93" y="176.8525">placeCard(cardPlacement)</text><line style="stroke:#181818;stroke-width:1.0;" x1="87" x2="97" y1="213.4063" y2="209.4063"/><line style="stroke:#181818;stroke-width:1.0;" x1="87" x2="97" y1="213.4063" y2="217.4063"/><line style="stroke:#181818;stroke-width:1.0;" x1="86" x2="1069" y1="213.4063" y2="213.4063"/><text fill="#000000" font-family="sans-serif" font-size="13" lengthAdjust="spacing" textLength="312" x="103" y="208.1436">updatePlayArea(currentPlayer, cardPlacement, score)</text><line style="stroke:#181818;stroke-width:1.0;" x1="259" x2="269" y1="244.6973" y2="240.6973"/><line style="stroke:#181818;stroke-width:1.0;" x1="259" x2="269" y1="244.6973" y2="248.6973"/><line style="stroke:#181818;stroke-width:1.0;" x1="258" x2="1069" y1="244.6973" y2="244.6973"/><text fill="#000000" font-family="sans-serif" font-size="13" lengthAdjust="spacing" textLength="312" x="275" y="239.4346">updatePlayArea(currentPlayer, cardPlacement, score)</text><line style="stroke:#181818;stroke-width:1.0;" x1="431" x2="441" y1="275.9883" y2="271.9883"/><line style="stroke:#181818;stroke-width:1.0;" x1="431" x2="441" y1="275.9883" y2="279.9883"/><line style="stroke:#181818;stroke-width:1.0;" x1="430" x2="1069" y1="275.9883" y2="275.9883"/><text fill="#000000" font-family="sans-serif" font-size="13" lengthAdjust="spacing" textLength="312" x="447" y="270.7256">updatePlayArea(currentPlayer, cardPlacement, score)</text><line style="stroke:#181818;stroke-width:1.0;" x1="87" x2="97" y1="307.2793" y2="303.2793"/><line style="stroke:#181818;stroke-width:1.0;" x1="87" x2="97" y1="307.2793" y2="311.2793"/><line style="stroke:#181818;stroke-width:1.0;" x1="86" x2="1069" y1="307.2793" y2="307.2793"/><text fill="#000000" font-family="sans-serif" font-size="13" lengthAdjust="spacing" textLength="164" x="103" y="302.0166">updateGameStatusAndTurn(</text><text fill="#000000" font-family="monospace" font-size="13" font-weight="bold" lengthAdjust="spacing" textLength="76" x="267" y="302.0166">LAST_TURN</text><text fill="#000000" font-family="sans-serif" font-size="13" lengthAdjust="spacing" textLength="4" x="343" y="302.0166">,</text><text fill="#000000" font-family="monospace" font-size="13" font-weight="bold" lengthAdjust="spacing" textLength="58" x="351" y="302.0166">PLACING</text><text fill="#000000" font-family="sans-serif" font-size="13" lengthAdjust="spacing" textLength="89" x="409" y="302.0166">, currentPlayer)</text><line style="stroke:#181818;stroke-width:1.0;" x1="259" x2="269" y1="338.5703" y2="334.5703"/><line style="stroke:#181818;stroke-width:1.0;" x1="259" x2="269" y1="338.5703" y2="342.5703"/><line style="stroke:#181818;stroke-width:1.0;" x1="258" x2="1069" y1="338.5703" y2="338.5703"/><text fill="#000000" font-family="sans-serif" font-size="13" lengthAdjust="spacing" textLength="164" x="275" y="333.3076">updateGameStatusAndTurn(</text><text fill="#000000" font-family="monospace" font-size="13" font-weight="bold" lengthAdjust="spacing" textLength="76" x="439" y="333.3076">LAST_TURN</text><text fill="#000000" font-family="sans-serif" font-size="13" lengthAdjust="spacing" textLength="4" x="515" y="333.3076">,</text><text fill="#000000" font-family="monospace" font-size="13" font-weight="bold" lengthAdjust="spacing" textLength="58" x="523" y="333.3076">PLACING</text><text fill="#000000" font-family="sans-serif" font-size="13" lengthAdjust="spacing" textLength="89" x="581" y="333.3076">, currentPlayer)</text><line style="stroke:#181818;stroke-width:1.0;" x1="431" x2="441" y1="369.8613" y2="365.8613"/><line style="stroke:#181818;stroke-width:1.0;" x1="431" x2="441" y1="369.8613" y2="373.8613"/><line style="stroke:#181818;stroke-width:1.0;" x1="430" x2="1069" y1="369.8613" y2="369.8613"/><text fill="#000000" font-family="sans-serif" font-size="13" lengthAdjust="spacing" textLength="164" x="447" y="364.5986">updateGameStatusAndTurn(</text><text fill="#000000" font-family="monospace" font-size="13" font-weight="bold" lengthAdjust="spacing" textLength="76" x="611" y="364.5986">LAST_TURN</text><text fill="#000000" font-family="sans-serif" font-size="13" lengthAdjust="spacing" textLength="4" x="687" y="364.5986">,</text><text fill="#000000" font-family="monospace" font-size="13" font-weight="bold" lengthAdjust="spacing" textLength="58" x="695" y="364.5986">PLACING</text><text fill="#000000" font-family="sans-serif" font-size="13" lengthAdjust="spacing" textLength="89" x="753" y="364.5986">, currentPlayer)</text><path d="M218,432.8613 L218,459.8613 L297,459.8613 L297,442.8613 L287,432.8613 L218,432.8613 " fill="#FEFFDD" style="stroke:#181818;stroke-width:0.5;"/><path d="M287,432.8613 L287,442.8613 L297,442.8613 L287,432.8613 " fill="#FEFFDD" style="stroke:#181818;stroke-width:0.5;"/><text fill="#000000" font-family="sans-serif" font-size="13" lengthAdjust="spacing" textLength="58" x="224" y="451.8896">Bob's turn</text><line style="stroke:#181818;stroke-width:1.0;" x1="259" x2="269" y1="488.4434" y2="484.4434"/><line style="stroke:#181818;stroke-width:1.0;" x1="259" x2="269" y1="488.4434" y2="492.4434"/><line style="stroke:#181818;stroke-width:1.0;" x1="258" x2="1069" y1="488.4434" y2="488.4434"/><text fill="#000000" font-family="sans-serif" font-size="13" lengthAdjust="spacing" textLength="255" x="275" y="483.1807">setPlayablePosition(position1, position2, ...)</text><line style="stroke:#181818;stroke-width:1.0;" x1="1068" x2="1058" y1="519.7344" y2="515.7344"/><line style="stroke:#181818;stroke-width:1.0;" x1="1068" x2="1058" y1="519.7344" y2="523.7344"/><line style="stroke:#181818;stroke-width:1.0;" x1="258" x2="1069" y1="519.7344" y2="519.7344"/><text fill="#000000" font-family="sans-serif" font-size="13" lengthAdjust="spacing" textLength="153" x="265" y="514.4717">placeCard(cardPlacement)</text><line style="stroke:#181818;stroke-width:1.0;" x1="87" x2="97" y1="551.0254" y2="547.0254"/><line style="stroke:#181818;stroke-width:1.0;" x1="87" x2="97" y1="551.0254" y2="555.0254"/><line style="stroke:#181818;stroke-width:1.0;" x1="86" x2="1069" y1="551.0254" y2="551.0254"/><text fill="#000000" font-family="sans-serif" font-size="13" lengthAdjust="spacing" textLength="312" x="103" y="545.7627">updatePlayArea(currentPlayer, cardPlacement, score)</text><line style="stroke:#181818;stroke-width:1.0;" x1="259" x2="269" y1="582.3164" y2="578.3164"/><line style="stroke:#181818;stroke-width:1.0;" x1="259" x2="269" y1="582.3164" y2="586.3164"/><line style="stroke:#181818;stroke-width:1.0;" x1="258" x2="1069" y1="582.3164" y2="582.3164"/><text fill="#000000" font-family="sans-serif" font-size="13" lengthAdjust="spacing" textLength="312" x="275" y="577.0537">updatePlayArea(currentPlayer, cardPlacement, score)</text><line style="stroke:#181818;stroke-width:1.0;" x1="431" x2="441" y1="613.6074" y2="609.6074"/><line style="stroke:#181818;stroke-width:1.0;" x1="431" x2="441" y1="613.6074" y2="617.6074"/><line style="stroke:#181818;stroke-width:1.0;" x1="430" x2="1069" y1="613.6074" y2="613.6074"/><text fill="#000000" font-family="sans-serif" font-size="13" lengthAdjust="spacing" textLength="312" x="447" y="608.3447">updatePlayArea(currentPlayer, cardPlacement, score)</text><line style="stroke:#181818;stroke-width:1.0;" x1="87" x2="97" y1="644.8984" y2="640.8984"/><line style="stroke:#181818;stroke-width:1.0;" x1="87" x2="97" y1="644.8984" y2="648.8984"/><line style="stroke:#181818;stroke-width:1.0;" x1="86" x2="1069" y1="644.8984" y2="644.8984"/><text fill="#000000" font-family="sans-serif" font-size="13" lengthAdjust="spacing" textLength="164" x="103" y="639.6357">updateGameStatusAndTurn(</text><text fill="#000000" font-family="monospace" font-size="13" font-weight="bold" lengthAdjust="spacing" textLength="76" x="267" y="639.6357">LAST_TURN</text><text fill="#000000" font-family="sans-serif" font-size="13" lengthAdjust="spacing" textLength="4" x="343" y="639.6357">,</text><text fill="#000000" font-family="monospace" font-size="13" font-weight="bold" lengthAdjust="spacing" textLength="58" x="351" y="639.6357">PLACING</text><text fill="#000000" font-family="sans-serif" font-size="13" lengthAdjust="spacing" textLength="89" x="409" y="639.6357">, currentPlayer)</text><line style="stroke:#181818;stroke-width:1.0;" x1="259" x2="269" y1="676.1895" y2="672.1895"/><line style="stroke:#181818;stroke-width:1.0;" x1="259" x2="269" y1="676.1895" y2="680.1895"/><line style="stroke:#181818;stroke-width:1.0;" x1="258" x2="1069" y1="676.1895" y2="676.1895"/><text fill="#000000" font-family="sans-serif" font-size="13" lengthAdjust="spacing" textLength="164" x="275" y="670.9268">updateGameStatusAndTurn(</text><text fill="#000000" font-family="monospace" font-size="13" font-weight="bold" lengthAdjust="spacing" textLength="76" x="439" y="670.9268">LAST_TURN</text><text fill="#000000" font-family="sans-serif" font-size="13" lengthAdjust="spacing" textLength="4" x="515" y="670.9268">,</text><text fill="#000000" font-family="monospace" font-size="13" font-weight="bold" lengthAdjust="spacing" textLength="58" x="523" y="670.9268">PLACING</text><text fill="#000000" font-family="sans-serif" font-size="13" lengthAdjust="spacing" textLength="89" x="581" y="670.9268">, currentPlayer)</text><line style="stroke:#181818;stroke-width:1.0;" x1="431" x2="441" y1="707.4805" y2="703.4805"/><line style="stroke:#181818;stroke-width:1.0;" x1="431" x2="441" y1="707.4805" y2="711.4805"/><line style="stroke:#181818;stroke-width:1.0;" x1="430" x2="1069" y1="707.4805" y2="707.4805"/><text fill="#000000" font-family="sans-serif" font-size="13" lengthAdjust="spacing" textLength="164" x="447" y="702.2178">updateGameStatusAndTurn(</text><text fill="#000000" font-family="monospace" font-size="13" font-weight="bold" lengthAdjust="spacing" textLength="76" x="611" y="702.2178">LAST_TURN</text><text fill="#000000" font-family="sans-serif" font-size="13" lengthAdjust="spacing" textLength="4" x="687" y="702.2178">,</text><text fill="#000000" font-family="monospace" font-size="13" font-weight="bold" lengthAdjust="spacing" textLength="58" x="695" y="702.2178">PLACING</text><text fill="#000000" font-family="sans-serif" font-size="13" lengthAdjust="spacing" textLength="89" x="753" y="702.2178">, currentPlayer)</text><path d="M383,770.4805 L383,797.4805 L476,797.4805 L476,780.4805 L466,770.4805 L383,770.4805 " fill="#FEFFDD" style="stroke:#181818;stroke-width:0.5;"/><path d="M466,770.4805 L466,780.4805 L476,780.4805 L466,770.4805 " fill="#FEFFDD" style="stroke:#181818;stroke-width:0.5;"/><text fill="#000000" font-family="sans-serif" font-size="13" lengthAdjust="spacing" textLength="72" x="389" y="789.5088">Carlos's turn</text><line style="stroke:#181818;stroke-width:1.0;" x1="431" x2="441" y1="826.0625" y2="822.0625"/><line style="stroke:#181818;stroke-width:1.0;" x1="431" x2="441" y1="826.0625" y2="830.0625"/><line style="stroke:#181818;stroke-width:1.0;" x1="430" x2="1069" y1="826.0625" y2="826.0625"/><text fill="#000000" font-family="sans-serif" font-size="13" lengthAdjust="spacing" textLength="255" x="447" y="820.7998">setPlayablePosition(position1, position2, ...)</text><line style="stroke:#181818;stroke-width:1.0;" x1="1068" x2="1058" y1="857.3535" y2="853.3535"/><line style="stroke:#181818;stroke-width:1.0;" x1="1068" x2="1058" y1="857.3535" y2="861.3535"/><line style="stroke:#181818;stroke-width:1.0;" x1="430" x2="1069" y1="857.3535" y2="857.3535"/><text fill="#000000" font-family="sans-serif" font-size="13" lengthAdjust="spacing" textLength="153" x="437" y="852.0908">placeCard(cardPlacement)</text><line style="stroke:#181818;stroke-width:1.0;" x1="87" x2="97" y1="888.6445" y2="884.6445"/><line style="stroke:#181818;stroke-width:1.0;" x1="87" x2="97" y1="888.6445" y2="892.6445"/><line style="stroke:#181818;stroke-width:1.0;" x1="86" x2="1069" y1="888.6445" y2="888.6445"/><text fill="#000000" font-family="sans-serif" font-size="13" lengthAdjust="spacing" textLength="312" x="103" y="883.3818">updatePlayArea(currentPlayer, cardPlacement, score)</text><line style="stroke:#181818;stroke-width:1.0;" x1="259" x2="269" y1="919.9355" y2="915.9355"/><line style="stroke:#181818;stroke-width:1.0;" x1="259" x2="269" y1="919.9355" y2="923.9355"/><line style="stroke:#181818;stroke-width:1.0;" x1="258" x2="1069" y1="919.9355" y2="919.9355"/><text fill="#000000" font-family="sans-serif" font-size="13" lengthAdjust="spacing" textLength="312" x="275" y="914.6729">updatePlayArea(currentPlayer, cardPlacement, score)</text><line style="stroke:#181818;stroke-width:1.0;" x1="431" x2="441" y1="951.2266" y2="947.2266"/><line style="stroke:#181818;stroke-width:1.0;" x1="431" x2="441" y1="951.2266" y2="955.2266"/><line style="stroke:#181818;stroke-width:1.0;" x1="430" x2="1069" y1="951.2266" y2="951.2266"/><text fill="#000000" font-family="sans-serif" font-size="13" lengthAdjust="spacing" textLength="312" x="447" y="945.9639">updatePlayArea(currentPlayer, cardPlacement, score)</text><line style="stroke:#181818;stroke-width:1.0;" x1="87" x2="97" y1="982.5176" y2="978.5176"/><line style="stroke:#181818;stroke-width:1.0;" x1="87" x2="97" y1="982.5176" y2="986.5176"/><line style="stroke:#181818;stroke-width:1.0;" x1="86" x2="1069" y1="982.5176" y2="982.5176"/><text fill="#000000" font-family="sans-serif" font-size="13" lengthAdjust="spacing" textLength="200" x="103" y="977.2549">updateGameStatusFinishedGame(</text><text fill="#000000" font-family="monospace" font-size="13" font-weight="bold" lengthAdjust="spacing" textLength="60" x="303" y="977.2549">FINISHED</text><text fill="#000000" font-family="sans-serif" font-size="13" lengthAdjust="spacing" textLength="192" x="363" y="977.2549">, playerScore1, playerScore2, ...)</text><line style="stroke:#181818;stroke-width:1.0;" x1="259" x2="269" y1="1013.8086" y2="1009.8086"/><line style="stroke:#181818;stroke-width:1.0;" x1="259" x2="269" y1="1013.8086" y2="1017.8086"/><line style="stroke:#181818;stroke-width:1.0;" x1="258" x2="1069" y1="1013.8086" y2="1013.8086"/><text fill="#000000" font-family="sans-serif" font-size="13" lengthAdjust="spacing" textLength="200" x="275" y="1008.5459">updateGameStatusFinishedGame(</text><text fill="#000000" font-family="monospace" font-size="13" font-weight="bold" lengthAdjust="spacing" textLength="60" x="475" y="1008.5459">FINISHED</text><text fill="#000000" font-family="sans-serif" font-size="13" lengthAdjust="spacing" textLength="192" x="535" y="1008.5459">, playerScore1, playerScore2, ...)</text><line style="stroke:#181818;stroke-width:1.0;" x1="431" x2="441" y1="1045.0996" y2="1041.0996"/><line style="stroke:#181818;stroke-width:1.0;" x1="431" x2="441" y1="1045.0996" y2="1049.0996"/><line style="stroke:#181818;stroke-width:1.0;" x1="430" x2="1069" y1="1045.0996" y2="1045.0996"/><text fill="#000000" font-family="sans-serif" font-size="13" lengthAdjust="spacing" textLength="200" x="447" y="1039.8369">updateGameStatusFinishedGame(</text><text fill="#000000" font-family="monospace" font-size="13" font-weight="bold" lengthAdjust="spacing" textLength="60" x="647" y="1039.8369">FINISHED</text><text fill="#000000" font-family="sans-serif" font-size="13" lengthAdjust="spacing" textLength="192" x="707" y="1039.8369">, playerScore1, playerScore2, ...)</text><path d="M63,1058.0996 L63,1085.0996 L1092,1085.0996 L1092,1068.0996 L1082,1058.0996 L63,1058.0996 " fill="#FEFFDD" style="stroke:#181818;stroke-width:0.5;"/><path d="M1082,1058.0996 L1082,1068.0996 L1092,1068.0996 L1082,1058.0996 " fill="#FEFFDD" style="stroke:#181818;stroke-width:0.5;"/><text fill="#000000" font-family="sans-serif" font-size="13" lengthAdjust="spacing" textLength="108" x="519" y="1077.1279">Game has finished</text><polygon fill="#FEFFDD" points="31,1095.3906,140,1095.3906,150,1107.3906,140,1120.3906,31,1120.3906,21,1107.3906,31,1095.3906" style="stroke:#181818;stroke-width:0.5;"/><text fill="#000000" font-family="sans-serif" font-size="13" lengthAdjust="spacing" textLength="105" x="33" y="1113.4189">AUTHENTICATED</text><polygon fill="#FEFFDD" points="203,1095.3906,312,1095.3906,322,1107.3906,312,1120.3906,203,1120.3906,193,1107.3906,203,1095.3906" style="stroke:#181818;stroke-width:0.5;"/><text fill="#000000" font-family="sans-serif" font-size="13" lengthAdjust="spacing" textLength="105" x="205" y="1113.4189">AUTHENTICATED</text><polygon fill="#FEFFDD" points="375,1095.3906,484,1095.3906,494,1107.3906,484,1120.3906,375,1120.3906,365,1107.3906,375,1095.3906" style="stroke:#181818;stroke-width:0.5;"/><text fill="#000000" font-family="sans-serif" font-size="13" lengthAdjust="spacing" textLength="105" x="377" y="1113.4189">AUTHENTICATED</text><!--SRC=[jLTTJ-Cu57ttht2ZIcqrQ5cjD5e90L98oz1Tr5PDcD4yHMxYWjdWT6m7D5B5RzzhvnlI1WBjKvgSwtlkFVQnFS3hM60IHNX3Rgb4FSQ3A0affe-KA_d79dc84Egj4nue5dFS3s8krR0lbM3yTeGm_7g2gaHmR9skOwvE7c8Uomq9wFdfwjp2Nt06XYVhz7XrVdgiOUSMwb4UvWCZD5Wp8PMXKR2GoGgJHDtv8LM4HOPDRs4lFHUX3H6A1Mn3kC9sn09QUtCHhsh_7IAYMDPUkLGyKe6GOYgY-4PION91sImWXjCTZnN5CQ3I3FW4p-QURzzuLvEPDtLiRp96nxW2WxJje9HB8mxrJRcI_lBd_mvDqX7QRl_wkjtMFq6YvW_fu2E4E7tIlSIEe0Gotv87YWaFyNtCUAt1WG5yW-yDRQu2TUGE6EfNHgcoFy8MK7rEMLabvMAiiXw0PZ1uCi7Fy7PFJ8e6S2sWp5MqG0TX2PDqKwj7qeW6obLwJl1R20jT5hOr8GrQHEGt5KuSnU9DU9T2VzHyTG_FxB6nWzljtxfAP1QUAH7e0pcLID-TU3SBt_K0EPrzynrxEVRTwNWoR2mxxrUMMjSagCoxbeRiQ5bBgDQZKs23i3N2RQKxy-lvShWlECkSIbAczc7PEM0tO3Kq7FQ3Y46Aiw87_NH6dRqU6RvjZCXdJRPcu5KpUzc1D_986zgL1G0_WKEPgYED5FIIIPkayuj_9eut_JxPAsjUIxbqAjCgTvZM-TWOdLfEjzZ2UjuvdMqUUh1LwlrJ_prRNDi_Z_fwzrpS4KdrVmTM-3ujHfLnmTCkOl2jOIli2go_kT65IrwQ_LTpgHaO21zGROujHXSAyhG31YgMexHfTvIVCTBTRuG6s9kFvoVuIJ3OnonYbYvc0A4anF4QMq4Y1DIQchBLfU_ZfVsZjU_vl2Wg5VHNlaTNNyhIPki33FerQfgHdoa-tDC8lTUF3ZQRjjklVvg5zagY7Gla1Q-ceh9s7gIexbAPCzExXKes8HninZJuJwO4FrFQxBHsE7KBUHlqtMrYh_brLFaZzNKNEZy3TrcKcSRNjklvtirorkpn7UNEBUqDtIW9l5lomj6lIMxeWwfJwwl09UDCtj56j_wGMH_OuhgtvH0-zyah_0EQxwxkFQkywRHsEPrDtQl9k77nlBWW7wLtQhZQcYiNyCVhRA8rNQPRBz9lkKJNCFy3]--></g></svg>