<?xml version="1.0" encoding="us-ascii" standalone="no"?><svg xmlns="http://www.w3.org/2000/svg" xmlns:xlink="http://www.w3.org/1999/xlink" contentStyleType="text/css" height="609px" preserveAspectRatio="none" style="width:1110px;height:609px;background:#FFFFFF;" version="1.1" viewBox="0 0 1110 609" width="1110px" zoomAndPan="magnify"><defs/><g><text fill="#000000" font-family="sans-serif" font-size="14" font-weight="bold" lengthAdjust="spacing" textLength="138" x="482" y="30.1074">User authentication</text><line style="stroke:#181818;stroke-width:0.5;stroke-dasharray:5.0,5.0;" x1="86" x2="86" y1="78.2422" y2="572.0254"/><line style="stroke:#181818;stroke-width:0.5;stroke-dasharray:5.0,5.0;" x1="257.5" x2="257.5" y1="78.2422" y2="572.0254"/><line style="stroke:#181818;stroke-width:0.5;stroke-dasharray:5.0,5.0;" x1="429.5" x2="429.5" y1="78.2422" y2="572.0254"/><line style="stroke:#181818;stroke-width:0.5;stroke-dasharray:5.0,5.0;" x1="1070" x2="1070" y1="78.2422" y2="572.0254"/><rect fill="#E2E2F0" height="32.6211" rx="2.5" ry="2.5" style="stroke:#181818;stroke-width:0.5;" width="44" x="64" y="44.6211"/><text fill="#000000" font-family="sans-serif" font-size="14" lengthAdjust="spacing" textLength="30" x="71" y="66.7285">Alice</text><rect fill="#E2E2F0" height="32.6211" rx="2.5" ry="2.5" style="stroke:#181818;stroke-width:0.5;" width="44" x="64" y="571.0254"/><text fill="#000000" font-family="sans-serif" font-size="14" lengthAdjust="spacing" textLength="30" x="71" y="593.1328">Alice</text><rect fill="#E2E2F0" height="32.6211" rx="2.5" ry="2.5" style="stroke:#181818;stroke-width:0.5;" width="39" x="238.5" y="44.6211"/><text fill="#000000" font-family="sans-serif" font-size="14" lengthAdjust="spacing" textLength="25" x="245.5" y="66.7285">Bob</text><rect fill="#E2E2F0" height="32.6211" rx="2.5" ry="2.5" style="stroke:#181818;stroke-width:0.5;" width="39" x="238.5" y="571.0254"/><text fill="#000000" font-family="sans-serif" font-size="14" lengthAdjust="spacing" textLength="25" x="245.5" y="593.1328">Bob</text><rect fill="#E2E2F0" height="32.6211" rx="2.5" ry="2.5" style="stroke:#181818;stroke-width:0.5;" width="55" x="402.5" y="44.6211"/><text fill="#000000" font-family="sans-serif" font-size="14" lengthAdjust="spacing" textLength="41" x="409.5" y="66.7285">Carlos</text><rect fill="#E2E2F0" height="32.6211" rx="2.5" ry="2.5" style="stroke:#181818;stroke-width:0.5;" width="55" x="402.5" y="571.0254"/><text fill="#000000" font-family="sans-serif" font-size="14" lengthAdjust="spacing" textLength="41" x="409.5" y="593.1328">Carlos</text><rect fill="#E2E2F0" height="32.6211" rx="2.5" ry="2.5" style="stroke:#181818;stroke-width:0.5;" width="56" x="1042" y="44.6211"/><text fill="#000000" font-family="sans-serif" font-size="14" lengthAdjust="spacing" textLength="42" x="1049" y="66.7285">Server</text><rect fill="#E2E2F0" height="32.6211" rx="2.5" ry="2.5" style="stroke:#181818;stroke-width:0.5;" width="56" x="1042" y="571.0254"/><text fill="#000000" font-family="sans-serif" font-size="14" lengthAdjust="spacing" textLength="42" x="1049" y="593.1328">Server</text><polygon fill="#FEFFDD" points="15,93.2422,157,93.2422,167,105.2422,157,118.2422,15,118.2422,5,105.2422,15,93.2422" style="stroke:#181818;stroke-width:0.5;"/><text fill="#000000" font-family="sans-serif" font-size="13" lengthAdjust="spacing" textLength="138" x="17" y="111.2705">NOT_AUTHENTICATED</text><polygon fill="#FEFFDD" points="187,93.2422,329,93.2422,339,105.2422,329,118.2422,187,118.2422,177,105.2422,187,93.2422" style="stroke:#181818;stroke-width:0.5;"/><text fill="#000000" font-family="sans-serif" font-size="13" lengthAdjust="spacing" textLength="138" x="189" y="111.2705">NOT_AUTHENTICATED</text><polygon fill="#FEFFDD" points="359,93.2422,501,93.2422,511,105.2422,501,118.2422,359,118.2422,349,105.2422,359,93.2422" style="stroke:#181818;stroke-width:0.5;"/><text fill="#000000" font-family="sans-serif" font-size="13" lengthAdjust="spacing" textLength="138" x="361" y="111.2705">NOT_AUTHENTICATED</text><line style="stroke:#181818;stroke-width:1.0;" x1="1068" x2="1058" y1="146.8242" y2="142.8242"/><line style="stroke:#181818;stroke-width:1.0;" x1="1068" x2="1058" y1="146.8242" y2="150.8242"/><line style="stroke:#181818;stroke-width:1.0;" x1="86" x2="1069" y1="146.8242" y2="146.8242"/><text fill="#000000" font-family="sans-serif" font-size="13" lengthAdjust="spacing" textLength="111" x="93" y="141.5615">authenticate(name)</text><line style="stroke:#181818;stroke-width:1.0;" x1="87" x2="97" y1="178.1152" y2="174.1152"/><line style="stroke:#181818;stroke-width:1.0;" x1="87" x2="97" y1="178.1152" y2="182.1152"/><line style="stroke:#181818;stroke-width:1.0;" x1="86" x2="1069" y1="178.1152" y2="178.1152"/><text fill="#000000" font-family="sans-serif" font-size="13" lengthAdjust="spacing" textLength="92" x="103" y="172.8525">setName(name)</text><polygon fill="#FEFFDD" points="31,191.1152,140,191.1152,150,203.1152,140,216.1152,31,216.1152,21,203.1152,31,191.1152" style="stroke:#181818;stroke-width:0.5;"/><text fill="#000000" font-family="sans-serif" font-size="13" lengthAdjust="spacing" textLength="105" x="33" y="209.1436">AUTHENTICATED</text><line style="stroke:#181818;stroke-width:1.0;" x1="87" x2="97" y1="244.6973" y2="240.6973"/><line style="stroke:#181818;stroke-width:1.0;" x1="87" x2="97" y1="244.6973" y2="248.6973"/><line style="stroke:#181818;stroke-width:1.0;" x1="86" x2="1069" y1="244.6973" y2="244.6973"/><text fill="#000000" font-family="sans-serif" font-size="13" lengthAdjust="spacing" textLength="263" x="103" y="239.4346">updateGameList(gameData1, gameData2, ...)</text><line style="stroke:#181818;stroke-width:1.0;" x1="1068" x2="1058" y1="300.9883" y2="296.9883"/><line style="stroke:#181818;stroke-width:1.0;" x1="1068" x2="1058" y1="300.9883" y2="304.9883"/><line style="stroke:#181818;stroke-width:1.0;" x1="258" x2="1069" y1="300.9883" y2="300.9883"/><text fill="#000000" font-family="sans-serif" font-size="13" lengthAdjust="spacing" textLength="111" x="265" y="295.7256">authenticate(name)</text><line style="stroke:#181818;stroke-width:1.0;" x1="259" x2="269" y1="332.2793" y2="328.2793"/><line style="stroke:#181818;stroke-width:1.0;" x1="259" x2="269" y1="332.2793" y2="336.2793"/><line style="stroke:#181818;stroke-width:1.0;" x1="258" x2="1069" y1="332.2793" y2="332.2793"/><text fill="#000000" font-family="sans-serif" font-size="13" lengthAdjust="spacing" textLength="92" x="275" y="327.0166">setName(name)</text><polygon fill="#FEFFDD" points="203,345.2793,312,345.2793,322,357.2793,312,370.2793,203,370.2793,193,357.2793,203,345.2793" style="stroke:#181818;stroke-width:0.5;"/><text fill="#000000" font-family="sans-serif" font-size="13" lengthAdjust="spacing" textLength="105" x="205" y="363.3076">AUTHENTICATED</text><line style="stroke:#181818;stroke-width:1.0;" x1="259" x2="269" y1="398.8613" y2="394.8613"/><line style="stroke:#181818;stroke-width:1.0;" x1="259" x2="269" y1="398.8613" y2="402.8613"/><line style="stroke:#181818;stroke-width:1.0;" x1="258" x2="1069" y1="398.8613" y2="398.8613"/><text fill="#000000" font-family="sans-serif" font-size="13" lengthAdjust="spacing" textLength="263" x="275" y="393.5986">updateGameList(gameData1, gameData2, ...)</text><line style="stroke:#181818;stroke-width:1.0;" x1="1068" x2="1058" y1="455.1523" y2="451.1523"/><line style="stroke:#181818;stroke-width:1.0;" x1="1068" x2="1058" y1="455.1523" y2="459.1523"/><line style="stroke:#181818;stroke-width:1.0;" x1="430" x2="1069" y1="455.1523" y2="455.1523"/><text fill="#000000" font-family="sans-serif" font-size="13" lengthAdjust="spacing" textLength="111" x="437" y="449.8896">authenticate(name)</text><line style="stroke:#181818;stroke-width:1.0;" x1="431" x2="441" y1="486.4434" y2="482.4434"/><line style="stroke:#181818;stroke-width:1.0;" x1="431" x2="441" y1="486.4434" y2="490.4434"/><line style="stroke:#181818;stroke-width:1.0;" x1="430" x2="1069" y1="486.4434" y2="486.4434"/><text fill="#000000" font-family="sans-serif" font-size="13" lengthAdjust="spacing" textLength="92" x="447" y="481.1807">setName(name)</text><polygon fill="#FEFFDD" points="375,499.4434,484,499.4434,494,511.4434,484,524.4434,375,524.4434,365,511.4434,375,499.4434" style="stroke:#181818;stroke-width:0.5;"/><text fill="#000000" font-family="sans-serif" font-size="13" lengthAdjust="spacing" textLength="105" x="377" y="517.4717">AUTHENTICATED</text><line style="stroke:#181818;stroke-width:1.0;" x1="431" x2="441" y1="553.0254" y2="549.0254"/><line style="stroke:#181818;stroke-width:1.0;" x1="431" x2="441" y1="553.0254" y2="557.0254"/><line style="stroke:#181818;stroke-width:1.0;" x1="430" x2="1069" y1="553.0254" y2="553.0254"/><text fill="#000000" font-family="sans-serif" font-size="13" lengthAdjust="spacing" textLength="263" x="447" y="547.7627">updateGameList(gameData1, gameData2, ...)</text><line style="stroke:#000000;stroke-width:1.0;stroke-dasharray:2.0,2.0;" x1="0" x2="1103" y1="561.0254" y2="561.0254"/><!--SRC=[jLTTJ-Cu57ttht2ZIcqrQ5cjD5e90L98oz1Tr5PDcD4yHMxYWjdWT6m7D5B5RzzhvnlI1WBjKvgSwtlkFVQnFS3hM60IHNX3Rgb4FSQ3A0affe-KA_d79dc84Egj4nue5dFS3s8krR0lbM3yTeGm_7g2gaHmR9skOwvE7c8Uomq9wFdfwjp2Nt06XYVhz7XrVdgiOUSMwb4UvWCZD5Wp8PMXKR2GoGgJHDtv8LM4HOPDRs4lFHUX3H6A1Mn3kC9sn09QUtCHhsh_7IAYMDPUkLGyKe6GOYgY-4PION91sImWXjCTZnN5CQ3I3FW4p-QURzzuLvEPDtLiRp96nxW2WxJje9HB8mxrJRcI_lBd_mvDqX7QRl_wkjtMFq6YvW_fu2E4E7tIlSIEe0Gotv87YWaFyNtCUAt1WG5yW-yDRQu2TUGE6EfNHgcoFy8MK7rEMLabvMAiiXw0PZ1uCi7Fy7PFJ8e6S2sWp5MqG0TX2PDqKwj7qeW6obLwJl1R20jT5hOr8GrQHEGt5KuSnU9DU9T2VzHyTG_FxB6nWzljtxfAP1QUAH7e0pcLID-TU3SBt_K0EPrzynrxEVRTwNWoR2mxxrUMMjSagCoxbeRiQ5bBgDQZKs23i3N2RQKxy-lvShWlECkSIbAczc7PEM0tO3Kq7FQ3Y46Aiw87_NH6dRqU6RvjZCXdJRPcu5KpUzc1D_986zgL1G0_WKEPgYED5FIIIPkayuj_9eut_JxPAsjUIxbqAjCgTvZM-TWOdLfEjzZ2UjuvdMqUUh1LwlrJ_prRNDi_Z_fwzrpS4KdrVmTM-3ujHfLnmTCkOl2jOIli2go_kT65IrwQ_LTpgHaO21zGROujHXSAyhG31YgMexHfTvIVCTBTRuG6s9kFvoVuIJ3OnonYbYvc0A4anF4QMq4Y1DIQchBLfU_ZfVsZjU_vl2Wg5VHNlaTNNyhIPki33FerQfgHdoa-tDC8lTUF3ZQRjjklVvg5zagY7Gla1Q-ceh9s7gIexbAPCzExXKes8HninZJuJwO4FrFQxBHsE7KBUHlqtMrYh_brLFaZzNKNEZy3TrcKcSRNjklvtirorkpn7UNEBUqDtIW9l5lomj6lIMxeWwfJwwl09UDCtj56j_wGMH_OuhgtvH0-zyah_0EQxwxkFQkywRHsEPrDtQl9k77nlBWW7wLtQhZQcYiNyCVhRA8rNQPRBz9lkKJNCFy3]--></g></svg>