<?xml version="1.0" encoding="us-ascii" standalone="no"?><svg xmlns="http://www.w3.org/2000/svg" xmlns:xlink="http://www.w3.org/1999/xlink" contentStyleType="text/css" height="2735px" preserveAspectRatio="none" style="width:1110px;height:2735px;background:#FFFFFF;" version="1.1" viewBox="0 0 1110 2735" width="1110px" zoomAndPan="magnify"><defs/><g><text fill="#000000" font-family="sans-serif" font-size="14" font-weight="bold" lengthAdjust="spacing" textLength="84" x="509" y="30.1074">Game setup</text><line style="stroke:#181818;stroke-width:0.5;stroke-dasharray:5.0,5.0;" x1="86" x2="86" y1="78.2422" y2="2697.5762"/><line style="stroke:#181818;stroke-width:0.5;stroke-dasharray:5.0,5.0;" x1="257.5" x2="257.5" y1="78.2422" y2="2697.5762"/><line style="stroke:#181818;stroke-width:0.5;stroke-dasharray:5.0,5.0;" x1="429.5" x2="429.5" y1="78.2422" y2="2697.5762"/><line style="stroke:#181818;stroke-width:0.5;stroke-dasharray:5.0,5.0;" x1="1070" x2="1070" y1="78.2422" y2="2697.5762"/><rect fill="#E2E2F0" height="32.6211" rx="2.5" ry="2.5" style="stroke:#181818;stroke-width:0.5;" width="44" x="64" y="44.6211"/><text fill="#000000" font-family="sans-serif" font-size="14" lengthAdjust="spacing" textLength="30" x="71" y="66.7285">Alice</text><rect fill="#E2E2F0" height="32.6211" rx="2.5" ry="2.5" style="stroke:#181818;stroke-width:0.5;" width="44" x="64" y="2696.5762"/><text fill="#000000" font-family="sans-serif" font-size="14" lengthAdjust="spacing" textLength="30" x="71" y="2718.6836">Alice</text><rect fill="#E2E2F0" height="32.6211" rx="2.5" ry="2.5" style="stroke:#181818;stroke-width:0.5;" width="39" x="238.5" y="44.6211"/><text fill="#000000" font-family="sans-serif" font-size="14" lengthAdjust="spacing" textLength="25" x="245.5" y="66.7285">Bob</text><rect fill="#E2E2F0" height="32.6211" rx="2.5" ry="2.5" style="stroke:#181818;stroke-width:0.5;" width="39" x="238.5" y="2696.5762"/><text fill="#000000" font-family="sans-serif" font-size="14" lengthAdjust="spacing" textLength="25" x="245.5" y="2718.6836">Bob</text><rect fill="#E2E2F0" height="32.6211" rx="2.5" ry="2.5" style="stroke:#181818;stroke-width:0.5;" width="55" x="402.5" y="44.6211"/><text fill="#000000" font-family="sans-serif" font-size="14" lengthAdjust="spacing" textLength="41" x="409.5" y="66.7285">Carlos</text><rect fill="#E2E2F0" height="32.6211" rx="2.5" ry="2.5" style="stroke:#181818;stroke-width:0.5;" width="55" x="402.5" y="2696.5762"/><text fill="#000000" font-family="sans-serif" font-size="14" lengthAdjust="spacing" textLength="41" x="409.5" y="2718.6836">Carlos</text><rect fill="#E2E2F0" height="32.6211" rx="2.5" ry="2.5" style="stroke:#181818;stroke-width:0.5;" width="56" x="1042" y="44.6211"/><text fill="#000000" font-family="sans-serif" font-size="14" lengthAdjust="spacing" textLength="42" x="1049" y="66.7285">Server</text><rect fill="#E2E2F0" height="32.6211" rx="2.5" ry="2.5" style="stroke:#181818;stroke-width:0.5;" width="56" x="1042" y="2696.5762"/><text fill="#000000" font-family="sans-serif" font-size="14" lengthAdjust="spacing" textLength="42" x="1049" y="2718.6836">Server</text><line style="stroke:#000000;stroke-width:1.0;stroke-dasharray:2.0,2.0;" x1="0" x2="1103" y1="89.2422" y2="89.2422"/><line style="stroke:#181818;stroke-width:1.0;" x1="87" x2="97" y1="188.5332" y2="184.5332"/><line style="stroke:#181818;stroke-width:1.0;" x1="87" x2="97" y1="188.5332" y2="192.5332"/><line style="stroke:#181818;stroke-width:1.0;" x1="86" x2="1069" y1="188.5332" y2="188.5332"/><text fill="#000000" font-family="sans-serif" font-size="13" lengthAdjust="spacing" textLength="245" x="103" y="183.2705">updateGameStatusAndSetupStartingCard(</text><text fill="#000000" font-family="monospace" font-size="13" font-weight="bold" lengthAdjust="spacing" textLength="196" x="348" y="183.2705">SETUP_STARTING_CARD_SIDE</text><text fill="#000000" font-family="sans-serif" font-size="13" lengthAdjust="spacing" textLength="82" x="544" y="183.2705">, startingCard)</text><line style="stroke:#181818;stroke-width:1.0;" x1="259" x2="269" y1="219.8242" y2="215.8242"/><line style="stroke:#181818;stroke-width:1.0;" x1="259" x2="269" y1="219.8242" y2="223.8242"/><line style="stroke:#181818;stroke-width:1.0;" x1="258" x2="1069" y1="219.8242" y2="219.8242"/><text fill="#000000" font-family="sans-serif" font-size="13" lengthAdjust="spacing" textLength="245" x="275" y="214.5615">updateGameStatusAndSetupStartingCard(</text><text fill="#000000" font-family="monospace" font-size="13" font-weight="bold" lengthAdjust="spacing" textLength="196" x="520" y="214.5615">SETUP_STARTING_CARD_SIDE</text><text fill="#000000" font-family="sans-serif" font-size="13" lengthAdjust="spacing" textLength="82" x="716" y="214.5615">, startingCard)</text><line style="stroke:#181818;stroke-width:1.0;" x1="431" x2="441" y1="251.1152" y2="247.1152"/><line style="stroke:#181818;stroke-width:1.0;" x1="431" x2="441" y1="251.1152" y2="255.1152"/><line style="stroke:#181818;stroke-width:1.0;" x1="430" x2="1069" y1="251.1152" y2="251.1152"/><text fill="#000000" font-family="sans-serif" font-size="13" lengthAdjust="spacing" textLength="245" x="447" y="245.8525">updateGameStatusAndSetupStartingCard(</text><text fill="#000000" font-family="monospace" font-size="13" font-weight="bold" lengthAdjust="spacing" textLength="196" x="692" y="245.8525">SETUP_STARTING_CARD_SIDE</text><text fill="#000000" font-family="sans-serif" font-size="13" lengthAdjust="spacing" textLength="82" x="888" y="245.8525">, startingCard)</text><line style="stroke:#181818;stroke-width:1.0;" x1="1068" x2="1058" y1="307.4063" y2="303.4063"/><line style="stroke:#181818;stroke-width:1.0;" x1="1068" x2="1058" y1="307.4063" y2="311.4063"/><line style="stroke:#181818;stroke-width:1.0;" x1="86" x2="1069" y1="307.4063" y2="307.4063"/><text fill="#000000" font-family="sans-serif" font-size="13" lengthAdjust="spacing" textLength="93" x="93" y="302.1436">selectSide(side)</text><line style="stroke:#181818;stroke-width:1.0;" x1="87" x2="97" y1="338.6973" y2="334.6973"/><line style="stroke:#181818;stroke-width:1.0;" x1="87" x2="97" y1="338.6973" y2="342.6973"/><line style="stroke:#181818;stroke-width:1.0;" x1="86" x2="1069" y1="338.6973" y2="338.6973"/><text fill="#000000" font-family="sans-serif" font-size="13" lengthAdjust="spacing" textLength="384" x="103" y="333.4346">updateSideChosenList(player1HasChosen, player2HasChosen, ...)</text><line style="stroke:#181818;stroke-width:1.0;" x1="259" x2="269" y1="369.9883" y2="365.9883"/><line style="stroke:#181818;stroke-width:1.0;" x1="259" x2="269" y1="369.9883" y2="373.9883"/><line style="stroke:#181818;stroke-width:1.0;" x1="258" x2="1069" y1="369.9883" y2="369.9883"/><text fill="#000000" font-family="sans-serif" font-size="13" lengthAdjust="spacing" textLength="384" x="275" y="364.7256">updateSideChosenList(player1HasChosen, player2HasChosen, ...)</text><line style="stroke:#181818;stroke-width:1.0;" x1="431" x2="441" y1="401.2793" y2="397.2793"/><line style="stroke:#181818;stroke-width:1.0;" x1="431" x2="441" y1="401.2793" y2="405.2793"/><line style="stroke:#181818;stroke-width:1.0;" x1="430" x2="1069" y1="401.2793" y2="401.2793"/><text fill="#000000" font-family="sans-serif" font-size="13" lengthAdjust="spacing" textLength="384" x="447" y="396.0166">updateSideChosenList(player1HasChosen, player2HasChosen, ...)</text><line style="stroke:#181818;stroke-width:1.0;" x1="87" x2="97" y1="432.5703" y2="428.5703"/><line style="stroke:#181818;stroke-width:1.0;" x1="87" x2="97" y1="432.5703" y2="436.5703"/><line style="stroke:#181818;stroke-width:1.0;" x1="86" x2="1069" y1="432.5703" y2="432.5703"/><text fill="#000000" font-family="sans-serif" font-size="13" lengthAdjust="spacing" textLength="264" x="103" y="427.3076">updatePlayArea(Alice, cardPlacement, score)</text><line style="stroke:#181818;stroke-width:1.0;" x1="259" x2="269" y1="463.8613" y2="459.8613"/><line style="stroke:#181818;stroke-width:1.0;" x1="259" x2="269" y1="463.8613" y2="467.8613"/><line style="stroke:#181818;stroke-width:1.0;" x1="258" x2="1069" y1="463.8613" y2="463.8613"/><text fill="#000000" font-family="sans-serif" font-size="13" lengthAdjust="spacing" textLength="264" x="275" y="458.5986">updatePlayArea(Alice, cardPlacement, score)</text><line style="stroke:#181818;stroke-width:1.0;" x1="431" x2="441" y1="495.1523" y2="491.1523"/><line style="stroke:#181818;stroke-width:1.0;" x1="431" x2="441" y1="495.1523" y2="499.1523"/><line style="stroke:#181818;stroke-width:1.0;" x1="430" x2="1069" y1="495.1523" y2="495.1523"/><text fill="#000000" font-family="sans-serif" font-size="13" lengthAdjust="spacing" textLength="264" x="447" y="489.8896">updatePlayArea(Alice, cardPlacement, score)</text><line style="stroke:#181818;stroke-width:1.0;" x1="1068" x2="1058" y1="551.4434" y2="547.4434"/><line style="stroke:#181818;stroke-width:1.0;" x1="1068" x2="1058" y1="551.4434" y2="555.4434"/><line style="stroke:#181818;stroke-width:1.0;" x1="258" x2="1069" y1="551.4434" y2="551.4434"/><text fill="#000000" font-family="sans-serif" font-size="13" lengthAdjust="spacing" textLength="93" x="265" y="546.1807">selectSide(side)</text><line style="stroke:#181818;stroke-width:1.0;" x1="87" x2="97" y1="582.7344" y2="578.7344"/><line style="stroke:#181818;stroke-width:1.0;" x1="87" x2="97" y1="582.7344" y2="586.7344"/><line style="stroke:#181818;stroke-width:1.0;" x1="86" x2="1069" y1="582.7344" y2="582.7344"/><text fill="#000000" font-family="sans-serif" font-size="13" lengthAdjust="spacing" textLength="384" x="103" y="577.4717">updateSideChosenList(player1HasChosen, player2HasChosen, ...)</text><line style="stroke:#181818;stroke-width:1.0;" x1="259" x2="269" y1="614.0254" y2="610.0254"/><line style="stroke:#181818;stroke-width:1.0;" x1="259" x2="269" y1="614.0254" y2="618.0254"/><line style="stroke:#181818;stroke-width:1.0;" x1="258" x2="1069" y1="614.0254" y2="614.0254"/><text fill="#000000" font-family="sans-serif" font-size="13" lengthAdjust="spacing" textLength="384" x="275" y="608.7627">updateSideChosenList(player1HasChosen, player2HasChosen, ...)</text><line style="stroke:#181818;stroke-width:1.0;" x1="431" x2="441" y1="645.3164" y2="641.3164"/><line style="stroke:#181818;stroke-width:1.0;" x1="431" x2="441" y1="645.3164" y2="649.3164"/><line style="stroke:#181818;stroke-width:1.0;" x1="430" x2="1069" y1="645.3164" y2="645.3164"/><text fill="#000000" font-family="sans-serif" font-size="13" lengthAdjust="spacing" textLength="384" x="447" y="640.0537">updateSideChosenList(player1HasChosen, player2HasChosen, ...)</text><line style="stroke:#181818;stroke-width:1.0;" x1="87" x2="97" y1="676.6074" y2="672.6074"/><line style="stroke:#181818;stroke-width:1.0;" x1="87" x2="97" y1="676.6074" y2="680.6074"/><line style="stroke:#181818;stroke-width:1.0;" x1="86" x2="1069" y1="676.6074" y2="676.6074"/><text fill="#000000" font-family="sans-serif" font-size="13" lengthAdjust="spacing" textLength="258" x="103" y="671.3447">updatePlayArea(Bob, cardPlacement, score)</text><line style="stroke:#181818;stroke-width:1.0;" x1="259" x2="269" y1="707.8984" y2="703.8984"/><line style="stroke:#181818;stroke-width:1.0;" x1="259" x2="269" y1="707.8984" y2="711.8984"/><line style="stroke:#181818;stroke-width:1.0;" x1="258" x2="1069" y1="707.8984" y2="707.8984"/><text fill="#000000" font-family="sans-serif" font-size="13" lengthAdjust="spacing" textLength="258" x="275" y="702.6357">updatePlayArea(Bob, cardPlacement, score)</text><line style="stroke:#181818;stroke-width:1.0;" x1="431" x2="441" y1="739.1895" y2="735.1895"/><line style="stroke:#181818;stroke-width:1.0;" x1="431" x2="441" y1="739.1895" y2="743.1895"/><line style="stroke:#181818;stroke-width:1.0;" x1="430" x2="1069" y1="739.1895" y2="739.1895"/><text fill="#000000" font-family="sans-serif" font-size="13" lengthAdjust="spacing" textLength="258" x="447" y="733.9268">updatePlayArea(Bob, cardPlacement, score)</text><line style="stroke:#181818;stroke-width:1.0;" x1="1068" x2="1058" y1="795.4805" y2="791.4805"/><line style="stroke:#181818;stroke-width:1.0;" x1="1068" x2="1058" y1="795.4805" y2="799.4805"/><line style="stroke:#181818;stroke-width:1.0;" x1="430" x2="1069" y1="795.4805" y2="795.4805"/><text fill="#000000" font-family="sans-serif" font-size="13" lengthAdjust="spacing" textLength="93" x="437" y="790.2178">selectSide(side)</text><line style="stroke:#181818;stroke-width:1.0;" x1="87" x2="97" y1="826.7715" y2="822.7715"/><line style="stroke:#181818;stroke-width:1.0;" x1="87" x2="97" y1="826.7715" y2="830.7715"/><line style="stroke:#181818;stroke-width:1.0;" x1="86" x2="1069" y1="826.7715" y2="826.7715"/><text fill="#000000" font-family="sans-serif" font-size="13" lengthAdjust="spacing" textLength="384" x="103" y="821.5088">updateSideChosenList(player1HasChosen, player2HasChosen, ...)</text><line style="stroke:#181818;stroke-width:1.0;" x1="259" x2="269" y1="858.0625" y2="854.0625"/><line style="stroke:#181818;stroke-width:1.0;" x1="259" x2="269" y1="858.0625" y2="862.0625"/><line style="stroke:#181818;stroke-width:1.0;" x1="258" x2="1069" y1="858.0625" y2="858.0625"/><text fill="#000000" font-family="sans-serif" font-size="13" lengthAdjust="spacing" textLength="384" x="275" y="852.7998">updateSideChosenList(player1HasChosen, player2HasChosen, ...)</text><line style="stroke:#181818;stroke-width:1.0;" x1="431" x2="441" y1="889.3535" y2="885.3535"/><line style="stroke:#181818;stroke-width:1.0;" x1="431" x2="441" y1="889.3535" y2="893.3535"/><line style="stroke:#181818;stroke-width:1.0;" x1="430" x2="1069" y1="889.3535" y2="889.3535"/><text fill="#000000" font-family="sans-serif" font-size="13" lengthAdjust="spacing" textLength="384" x="447" y="884.0908">updateSideChosenList(player1HasChosen, player2HasChosen, ...)</text><line style="stroke:#181818;stroke-width:1.0;" x1="87" x2="97" y1="920.6445" y2="916.6445"/><line style="stroke:#181818;stroke-width:1.0;" x1="87" x2="97" y1="920.6445" y2="924.6445"/><line style="stroke:#181818;stroke-width:1.0;" x1="86" x2="1069" y1="920.6445" y2="920.6445"/><text fill="#000000" font-family="sans-serif" font-size="13" lengthAdjust="spacing" textLength="272" x="103" y="915.3818">updatePlayArea(Carlos, cardPlacement, score)</text><line style="stroke:#181818;stroke-width:1.0;" x1="259" x2="269" y1="951.9355" y2="947.9355"/><line style="stroke:#181818;stroke-width:1.0;" x1="259" x2="269" y1="951.9355" y2="955.9355"/><line style="stroke:#181818;stroke-width:1.0;" x1="258" x2="1069" y1="951.9355" y2="951.9355"/><text fill="#000000" font-family="sans-serif" font-size="13" lengthAdjust="spacing" textLength="272" x="275" y="946.6729">updatePlayArea(Carlos, cardPlacement, score)</text><line style="stroke:#181818;stroke-width:1.0;" x1="431" x2="441" y1="983.2266" y2="979.2266"/><line style="stroke:#181818;stroke-width:1.0;" x1="431" x2="441" y1="983.2266" y2="987.2266"/><line style="stroke:#181818;stroke-width:1.0;" x1="430" x2="1069" y1="983.2266" y2="983.2266"/><text fill="#000000" font-family="sans-serif" font-size="13" lengthAdjust="spacing" textLength="272" x="447" y="977.9639">updatePlayArea(Carlos, cardPlacement, score)</text><line style="stroke:#181818;stroke-width:1.0;" x1="87" x2="97" y1="1089.5176" y2="1085.5176"/><line style="stroke:#181818;stroke-width:1.0;" x1="87" x2="97" y1="1089.5176" y2="1093.5176"/><line style="stroke:#181818;stroke-width:1.0;" x1="86" x2="1069" y1="1089.5176" y2="1089.5176"/><text fill="#000000" font-family="sans-serif" font-size="13" lengthAdjust="spacing" textLength="116" x="103" y="1084.2549">updateGameStatus(</text><text fill="#000000" font-family="monospace" font-size="13" font-weight="bold" lengthAdjust="spacing" textLength="96" x="219" y="1084.2549">SETUP_COLOR</text><text fill="#000000" font-family="sans-serif" font-size="13" lengthAdjust="spacing" textLength="4" x="315" y="1084.2549">)</text><line style="stroke:#181818;stroke-width:1.0;" x1="259" x2="269" y1="1120.8086" y2="1116.8086"/><line style="stroke:#181818;stroke-width:1.0;" x1="259" x2="269" y1="1120.8086" y2="1124.8086"/><line style="stroke:#181818;stroke-width:1.0;" x1="258" x2="1069" y1="1120.8086" y2="1120.8086"/><text fill="#000000" font-family="sans-serif" font-size="13" lengthAdjust="spacing" textLength="116" x="275" y="1115.5459">updateGameStatus(</text><text fill="#000000" font-family="monospace" font-size="13" font-weight="bold" lengthAdjust="spacing" textLength="96" x="391" y="1115.5459">SETUP_COLOR</text><text fill="#000000" font-family="sans-serif" font-size="13" lengthAdjust="spacing" textLength="4" x="487" y="1115.5459">)</text><line style="stroke:#181818;stroke-width:1.0;" x1="431" x2="441" y1="1152.0996" y2="1148.0996"/><line style="stroke:#181818;stroke-width:1.0;" x1="431" x2="441" y1="1152.0996" y2="1156.0996"/><line style="stroke:#181818;stroke-width:1.0;" x1="430" x2="1069" y1="1152.0996" y2="1152.0996"/><text fill="#000000" font-family="sans-serif" font-size="13" lengthAdjust="spacing" textLength="116" x="447" y="1146.8369">updateGameStatus(</text><text fill="#000000" font-family="monospace" font-size="13" font-weight="bold" lengthAdjust="spacing" textLength="96" x="563" y="1146.8369">SETUP_COLOR</text><text fill="#000000" font-family="sans-serif" font-size="13" lengthAdjust="spacing" textLength="4" x="659" y="1146.8369">)</text><line style="stroke:#181818;stroke-width:1.0;" x1="1068" x2="1058" y1="1258.3906" y2="1254.3906"/><line style="stroke:#181818;stroke-width:1.0;" x1="1068" x2="1058" y1="1258.3906" y2="1262.3906"/><line style="stroke:#181818;stroke-width:1.0;" x1="86" x2="1069" y1="1258.3906" y2="1258.3906"/><text fill="#000000" font-family="sans-serif" font-size="13" lengthAdjust="spacing" textLength="101" x="93" y="1253.1279">selectColor(color)</text><line style="stroke:#181818;stroke-width:1.0;" x1="87" x2="97" y1="1289.6816" y2="1285.6816"/><line style="stroke:#181818;stroke-width:1.0;" x1="87" x2="97" y1="1289.6816" y2="1293.6816"/><line style="stroke:#181818;stroke-width:1.0;" x1="86" x2="1069" y1="1289.6816" y2="1289.6816"/><text fill="#000000" font-family="sans-serif" font-size="13" lengthAdjust="spacing" textLength="73" x="103" y="1284.4189">updateColor(</text><text fill="#000000" font-family="monospace" font-size="13" font-weight="bold" lengthAdjust="spacing" textLength="32" x="176" y="1284.4189">Alice</text><text fill="#000000" font-family="sans-serif" font-size="13" lengthAdjust="spacing" textLength="84" x="208" y="1284.4189">, chosenColor,</text><text fill="#000000" font-family="monospace" font-size="13" font-weight="bold" lengthAdjust="spacing" textLength="113" x="296" y="1284.4189">NOT_CONTENDED</text><text fill="#000000" font-family="sans-serif" font-size="13" lengthAdjust="spacing" textLength="4" x="409" y="1284.4189">)</text><line style="stroke:#181818;stroke-width:1.0;" x1="259" x2="269" y1="1320.9727" y2="1316.9727"/><line style="stroke:#181818;stroke-width:1.0;" x1="259" x2="269" y1="1320.9727" y2="1324.9727"/><line style="stroke:#181818;stroke-width:1.0;" x1="258" x2="1069" y1="1320.9727" y2="1320.9727"/><text fill="#000000" font-family="sans-serif" font-size="13" lengthAdjust="spacing" textLength="73" x="275" y="1315.71">updateColor(</text><text fill="#000000" font-family="monospace" font-size="13" font-weight="bold" lengthAdjust="spacing" textLength="32" x="348" y="1315.71">Alice</text><text fill="#000000" font-family="sans-serif" font-size="13" lengthAdjust="spacing" textLength="84" x="380" y="1315.71">, chosenColor,</text><text fill="#000000" font-family="monospace" font-size="13" font-weight="bold" lengthAdjust="spacing" textLength="113" x="468" y="1315.71">NOT_CONTENDED</text><text fill="#000000" font-family="sans-serif" font-size="13" lengthAdjust="spacing" textLength="4" x="581" y="1315.71">)</text><line style="stroke:#181818;stroke-width:1.0;" x1="431" x2="441" y1="1352.2637" y2="1348.2637"/><line style="stroke:#181818;stroke-width:1.0;" x1="431" x2="441" y1="1352.2637" y2="1356.2637"/><line style="stroke:#181818;stroke-width:1.0;" x1="430" x2="1069" y1="1352.2637" y2="1352.2637"/><text fill="#000000" font-family="sans-serif" font-size="13" lengthAdjust="spacing" textLength="73" x="447" y="1347.001">updateColor(</text><text fill="#000000" font-family="monospace" font-size="13" font-weight="bold" lengthAdjust="spacing" textLength="32" x="520" y="1347.001">Alice</text><text fill="#000000" font-family="sans-serif" font-size="13" lengthAdjust="spacing" textLength="84" x="552" y="1347.001">, chosenColor,</text><text fill="#000000" font-family="monospace" font-size="13" font-weight="bold" lengthAdjust="spacing" textLength="113" x="640" y="1347.001">NOT_CONTENDED</text><text fill="#000000" font-family="sans-serif" font-size="13" lengthAdjust="spacing" textLength="4" x="753" y="1347.001">)</text><line style="stroke:#181818;stroke-width:1.0;" x1="1068" x2="1058" y1="1408.5547" y2="1404.5547"/><line style="stroke:#181818;stroke-width:1.0;" x1="1068" x2="1058" y1="1408.5547" y2="1412.5547"/><line style="stroke:#181818;stroke-width:1.0;" x1="258" x2="1069" y1="1408.5547" y2="1408.5547"/><text fill="#000000" font-family="sans-serif" font-size="13" lengthAdjust="spacing" textLength="101" x="265" y="1403.292">selectColor(color)</text><line style="stroke:#181818;stroke-width:1.0;" x1="87" x2="97" y1="1439.8457" y2="1435.8457"/><line style="stroke:#181818;stroke-width:1.0;" x1="87" x2="97" y1="1439.8457" y2="1443.8457"/><line style="stroke:#181818;stroke-width:1.0;" x1="86" x2="1069" y1="1439.8457" y2="1439.8457"/><text fill="#000000" font-family="sans-serif" font-size="13" lengthAdjust="spacing" textLength="73" x="103" y="1434.583">updateColor(</text><text fill="#000000" font-family="monospace" font-size="13" font-weight="bold" lengthAdjust="spacing" textLength="25" x="176" y="1434.583">Bob</text><text fill="#000000" font-family="sans-serif" font-size="13" lengthAdjust="spacing" textLength="84" x="201" y="1434.583">, chosenColor,</text><text fill="#000000" font-family="monospace" font-size="13" font-weight="bold" lengthAdjust="spacing" textLength="113" x="289" y="1434.583">NOT_CONTENDED</text><text fill="#000000" font-family="sans-serif" font-size="13" lengthAdjust="spacing" textLength="4" x="402" y="1434.583">)</text><line style="stroke:#181818;stroke-width:1.0;" x1="259" x2="269" y1="1471.1367" y2="1467.1367"/><line style="stroke:#181818;stroke-width:1.0;" x1="259" x2="269" y1="1471.1367" y2="1475.1367"/><line style="stroke:#181818;stroke-width:1.0;" x1="258" x2="1069" y1="1471.1367" y2="1471.1367"/><text fill="#000000" font-family="sans-serif" font-size="13" lengthAdjust="spacing" textLength="73" x="275" y="1465.874">updateColor(</text><text fill="#000000" font-family="monospace" font-size="13" font-weight="bold" lengthAdjust="spacing" textLength="25" x="348" y="1465.874">Bob</text><text fill="#000000" font-family="sans-serif" font-size="13" lengthAdjust="spacing" textLength="84" x="373" y="1465.874">, chosenColor,</text><text fill="#000000" font-family="monospace" font-size="13" font-weight="bold" lengthAdjust="spacing" textLength="113" x="461" y="1465.874">NOT_CONTENDED</text><text fill="#000000" font-family="sans-serif" font-size="13" lengthAdjust="spacing" textLength="4" x="574" y="1465.874">)</text><line style="stroke:#181818;stroke-width:1.0;" x1="431" x2="441" y1="1502.4277" y2="1498.4277"/><line style="stroke:#181818;stroke-width:1.0;" x1="431" x2="441" y1="1502.4277" y2="1506.4277"/><line style="stroke:#181818;stroke-width:1.0;" x1="430" x2="1069" y1="1502.4277" y2="1502.4277"/><text fill="#000000" font-family="sans-serif" font-size="13" lengthAdjust="spacing" textLength="73" x="447" y="1497.165">updateColor(</text><text fill="#000000" font-family="monospace" font-size="13" font-weight="bold" lengthAdjust="spacing" textLength="25" x="520" y="1497.165">Bob</text><text fill="#000000" font-family="sans-serif" font-size="13" lengthAdjust="spacing" textLength="84" x="545" y="1497.165">, chosenColor,</text><text fill="#000000" font-family="monospace" font-size="13" font-weight="bold" lengthAdjust="spacing" textLength="113" x="633" y="1497.165">NOT_CONTENDED</text><text fill="#000000" font-family="sans-serif" font-size="13" lengthAdjust="spacing" textLength="4" x="746" y="1497.165">)</text><line style="stroke:#181818;stroke-width:1.0;" x1="1068" x2="1058" y1="1558.7188" y2="1554.7188"/><line style="stroke:#181818;stroke-width:1.0;" x1="1068" x2="1058" y1="1558.7188" y2="1562.7188"/><line style="stroke:#181818;stroke-width:1.0;" x1="430" x2="1069" y1="1558.7188" y2="1558.7188"/><text fill="#000000" font-family="sans-serif" font-size="13" lengthAdjust="spacing" textLength="101" x="437" y="1553.4561">selectColor(color)</text><line style="stroke:#181818;stroke-width:1.0;" x1="87" x2="97" y1="1590.0098" y2="1586.0098"/><line style="stroke:#181818;stroke-width:1.0;" x1="87" x2="97" y1="1590.0098" y2="1594.0098"/><line style="stroke:#181818;stroke-width:1.0;" x1="86" x2="1069" y1="1590.0098" y2="1590.0098"/><text fill="#000000" font-family="sans-serif" font-size="13" lengthAdjust="spacing" textLength="73" x="103" y="1584.7471">updateColor(</text><text fill="#000000" font-family="monospace" font-size="13" font-weight="bold" lengthAdjust="spacing" textLength="40" x="176" y="1584.7471">Carlos</text><text fill="#000000" font-family="sans-serif" font-size="13" lengthAdjust="spacing" textLength="84" x="216" y="1584.7471">, chosenColor,</text><text fill="#000000" font-family="monospace" font-size="13" font-weight="bold" lengthAdjust="spacing" textLength="113" x="304" y="1584.7471">NOT_CONTENDED</text><text fill="#000000" font-family="sans-serif" font-size="13" lengthAdjust="spacing" textLength="4" x="417" y="1584.7471">)</text><line style="stroke:#181818;stroke-width:1.0;" x1="259" x2="269" y1="1621.3008" y2="1617.3008"/><line style="stroke:#181818;stroke-width:1.0;" x1="259" x2="269" y1="1621.3008" y2="1625.3008"/><line style="stroke:#181818;stroke-width:1.0;" x1="258" x2="1069" y1="1621.3008" y2="1621.3008"/><text fill="#000000" font-family="sans-serif" font-size="13" lengthAdjust="spacing" textLength="73" x="275" y="1616.0381">updateColor(</text><text fill="#000000" font-family="monospace" font-size="13" font-weight="bold" lengthAdjust="spacing" textLength="40" x="348" y="1616.0381">Carlos</text><text fill="#000000" font-family="sans-serif" font-size="13" lengthAdjust="spacing" textLength="84" x="388" y="1616.0381">, chosenColor,</text><text fill="#000000" font-family="monospace" font-size="13" font-weight="bold" lengthAdjust="spacing" textLength="113" x="476" y="1616.0381">NOT_CONTENDED</text><text fill="#000000" font-family="sans-serif" font-size="13" lengthAdjust="spacing" textLength="4" x="589" y="1616.0381">)</text><line style="stroke:#181818;stroke-width:1.0;" x1="431" x2="441" y1="1652.5918" y2="1648.5918"/><line style="stroke:#181818;stroke-width:1.0;" x1="431" x2="441" y1="1652.5918" y2="1656.5918"/><line style="stroke:#181818;stroke-width:1.0;" x1="430" x2="1069" y1="1652.5918" y2="1652.5918"/><text fill="#000000" font-family="sans-serif" font-size="13" lengthAdjust="spacing" textLength="73" x="447" y="1647.3291">updateColor(</text><text fill="#000000" font-family="monospace" font-size="13" font-weight="bold" lengthAdjust="spacing" textLength="40" x="520" y="1647.3291">Carlos</text><text fill="#000000" font-family="sans-serif" font-size="13" lengthAdjust="spacing" textLength="84" x="560" y="1647.3291">, chosenColor,</text><text fill="#000000" font-family="monospace" font-size="13" font-weight="bold" lengthAdjust="spacing" textLength="113" x="648" y="1647.3291">NOT_CONTENDED</text><text fill="#000000" font-family="sans-serif" font-size="13" lengthAdjust="spacing" textLength="4" x="761" y="1647.3291">)</text><line style="stroke:#181818;stroke-width:1.0;" x1="87" x2="97" y1="1758.8828" y2="1754.8828"/><line style="stroke:#181818;stroke-width:1.0;" x1="87" x2="97" y1="1758.8828" y2="1762.8828"/><line style="stroke:#181818;stroke-width:1.0;" x1="86" x2="1069" y1="1758.8828" y2="1758.8828"/><text fill="#000000" font-family="sans-serif" font-size="13" lengthAdjust="spacing" textLength="233" x="103" y="1753.6201">updateGameStatusAndSetupObjectives(</text><text fill="#000000" font-family="monospace" font-size="13" font-weight="bold" lengthAdjust="spacing" textLength="122" x="336" y="1753.6201">SETUP_OBJECTIVE</text><text fill="#000000" font-family="sans-serif" font-size="13" lengthAdjust="spacing" textLength="134" x="458" y="1753.6201">, objective1, objective2)</text><line style="stroke:#181818;stroke-width:1.0;" x1="259" x2="269" y1="1790.1738" y2="1786.1738"/><line style="stroke:#181818;stroke-width:1.0;" x1="259" x2="269" y1="1790.1738" y2="1794.1738"/><line style="stroke:#181818;stroke-width:1.0;" x1="258" x2="1069" y1="1790.1738" y2="1790.1738"/><text fill="#000000" font-family="sans-serif" font-size="13" lengthAdjust="spacing" textLength="233" x="275" y="1784.9111">updateGameStatusAndSetupObjectives(</text><text fill="#000000" font-family="monospace" font-size="13" font-weight="bold" lengthAdjust="spacing" textLength="122" x="508" y="1784.9111">SETUP_OBJECTIVE</text><text fill="#000000" font-family="sans-serif" font-size="13" lengthAdjust="spacing" textLength="134" x="630" y="1784.9111">, objective1, objective2)</text><line style="stroke:#181818;stroke-width:1.0;" x1="431" x2="441" y1="1821.4648" y2="1817.4648"/><line style="stroke:#181818;stroke-width:1.0;" x1="431" x2="441" y1="1821.4648" y2="1825.4648"/><line style="stroke:#181818;stroke-width:1.0;" x1="430" x2="1069" y1="1821.4648" y2="1821.4648"/><text fill="#000000" font-family="sans-serif" font-size="13" lengthAdjust="spacing" textLength="233" x="447" y="1816.2021">updateGameStatusAndSetupObjectives(</text><text fill="#000000" font-family="monospace" font-size="13" font-weight="bold" lengthAdjust="spacing" textLength="122" x="680" y="1816.2021">SETUP_OBJECTIVE</text><text fill="#000000" font-family="sans-serif" font-size="13" lengthAdjust="spacing" textLength="134" x="802" y="1816.2021">, objective1, objective2)</text><line style="stroke:#181818;stroke-width:1.0;" x1="1068" x2="1058" y1="1927.7559" y2="1923.7559"/><line style="stroke:#181818;stroke-width:1.0;" x1="1068" x2="1058" y1="1927.7559" y2="1931.7559"/><line style="stroke:#181818;stroke-width:1.0;" x1="86" x2="1069" y1="1927.7559" y2="1927.7559"/><text fill="#000000" font-family="sans-serif" font-size="13" lengthAdjust="spacing" textLength="146" x="93" y="1922.4932">selectObjective(objective)</text><line style="stroke:#181818;stroke-width:1.0;" x1="87" x2="97" y1="1959.0469" y2="1955.0469"/><line style="stroke:#181818;stroke-width:1.0;" x1="87" x2="97" y1="1959.0469" y2="1963.0469"/><line style="stroke:#181818;stroke-width:1.0;" x1="86" x2="1069" y1="1959.0469" y2="1959.0469"/><text fill="#000000" font-family="sans-serif" font-size="13" lengthAdjust="spacing" textLength="411" x="103" y="1953.7842">updateChosenObjectiveList(player1HasChosen, player2HasChosen, ...)</text><line style="stroke:#181818;stroke-width:1.0;" x1="259" x2="269" y1="1990.3379" y2="1986.3379"/><line style="stroke:#181818;stroke-width:1.0;" x1="259" x2="269" y1="1990.3379" y2="1994.3379"/><line style="stroke:#181818;stroke-width:1.0;" x1="258" x2="1069" y1="1990.3379" y2="1990.3379"/><text fill="#000000" font-family="sans-serif" font-size="13" lengthAdjust="spacing" textLength="411" x="275" y="1985.0752">updateChosenObjectiveList(player1HasChosen, player2HasChosen, ...)</text><line style="stroke:#181818;stroke-width:1.0;" x1="431" x2="441" y1="2021.6289" y2="2017.6289"/><line style="stroke:#181818;stroke-width:1.0;" x1="431" x2="441" y1="2021.6289" y2="2025.6289"/><line style="stroke:#181818;stroke-width:1.0;" x1="430" x2="1069" y1="2021.6289" y2="2021.6289"/><text fill="#000000" font-family="sans-serif" font-size="13" lengthAdjust="spacing" textLength="411" x="447" y="2016.3662">updateChosenObjectiveList(player1HasChosen, player2HasChosen, ...)</text><line style="stroke:#181818;stroke-width:1.0;" x1="1068" x2="1058" y1="2077.9199" y2="2073.9199"/><line style="stroke:#181818;stroke-width:1.0;" x1="1068" x2="1058" y1="2077.9199" y2="2081.9199"/><line style="stroke:#181818;stroke-width:1.0;" x1="258" x2="1069" y1="2077.9199" y2="2077.9199"/><text fill="#000000" font-family="sans-serif" font-size="13" lengthAdjust="spacing" textLength="146" x="265" y="2072.6572">selectObjective(objective)</text><line style="stroke:#181818;stroke-width:1.0;" x1="87" x2="97" y1="2109.2109" y2="2105.2109"/><line style="stroke:#181818;stroke-width:1.0;" x1="87" x2="97" y1="2109.2109" y2="2113.2109"/><line style="stroke:#181818;stroke-width:1.0;" x1="86" x2="1069" y1="2109.2109" y2="2109.2109"/><text fill="#000000" font-family="sans-serif" font-size="13" lengthAdjust="spacing" textLength="411" x="103" y="2103.9482">updateChosenObjectiveList(player1HasChosen, player2HasChosen, ...)</text><line style="stroke:#181818;stroke-width:1.0;" x1="259" x2="269" y1="2140.502" y2="2136.502"/><line style="stroke:#181818;stroke-width:1.0;" x1="259" x2="269" y1="2140.502" y2="2144.502"/><line style="stroke:#181818;stroke-width:1.0;" x1="258" x2="1069" y1="2140.502" y2="2140.502"/><text fill="#000000" font-family="sans-serif" font-size="13" lengthAdjust="spacing" textLength="411" x="275" y="2135.2393">updateChosenObjectiveList(player1HasChosen, player2HasChosen, ...)</text><line style="stroke:#181818;stroke-width:1.0;" x1="431" x2="441" y1="2171.793" y2="2167.793"/><line style="stroke:#181818;stroke-width:1.0;" x1="431" x2="441" y1="2171.793" y2="2175.793"/><line style="stroke:#181818;stroke-width:1.0;" x1="430" x2="1069" y1="2171.793" y2="2171.793"/><text fill="#000000" font-family="sans-serif" font-size="13" lengthAdjust="spacing" textLength="411" x="447" y="2166.5303">updateChosenObjectiveList(player1HasChosen, player2HasChosen, ...)</text><line style="stroke:#181818;stroke-width:1.0;" x1="1068" x2="1058" y1="2228.084" y2="2224.084"/><line style="stroke:#181818;stroke-width:1.0;" x1="1068" x2="1058" y1="2228.084" y2="2232.084"/><line style="stroke:#181818;stroke-width:1.0;" x1="430" x2="1069" y1="2228.084" y2="2228.084"/><text fill="#000000" font-family="sans-serif" font-size="13" lengthAdjust="spacing" textLength="146" x="437" y="2222.8213">selectObjective(objective)</text><line style="stroke:#181818;stroke-width:1.0;" x1="87" x2="97" y1="2259.375" y2="2255.375"/><line style="stroke:#181818;stroke-width:1.0;" x1="87" x2="97" y1="2259.375" y2="2263.375"/><line style="stroke:#181818;stroke-width:1.0;" x1="86" x2="1069" y1="2259.375" y2="2259.375"/><text fill="#000000" font-family="sans-serif" font-size="13" lengthAdjust="spacing" textLength="411" x="103" y="2254.1123">updateChosenObjectiveList(player1HasChosen, player2HasChosen, ...)</text><line style="stroke:#181818;stroke-width:1.0;" x1="259" x2="269" y1="2290.666" y2="2286.666"/><line style="stroke:#181818;stroke-width:1.0;" x1="259" x2="269" y1="2290.666" y2="2294.666"/><line style="stroke:#181818;stroke-width:1.0;" x1="258" x2="1069" y1="2290.666" y2="2290.666"/><text fill="#000000" font-family="sans-serif" font-size="13" lengthAdjust="spacing" textLength="411" x="275" y="2285.4033">updateChosenObjectiveList(player1HasChosen, player2HasChosen, ...)</text><line style="stroke:#181818;stroke-width:1.0;" x1="431" x2="441" y1="2321.957" y2="2317.957"/><line style="stroke:#181818;stroke-width:1.0;" x1="431" x2="441" y1="2321.957" y2="2325.957"/><line style="stroke:#181818;stroke-width:1.0;" x1="430" x2="1069" y1="2321.957" y2="2321.957"/><text fill="#000000" font-family="sans-serif" font-size="13" lengthAdjust="spacing" textLength="411" x="447" y="2316.6943">updateChosenObjectiveList(player1HasChosen, player2HasChosen, ...)</text><line style="stroke:#181818;stroke-width:1.0;" x1="87" x2="97" y1="2428.248" y2="2424.248"/><line style="stroke:#181818;stroke-width:1.0;" x1="87" x2="97" y1="2428.248" y2="2432.248"/><line style="stroke:#181818;stroke-width:1.0;" x1="86" x2="1069" y1="2428.248" y2="2428.248"/><text fill="#000000" font-family="sans-serif" font-size="13" lengthAdjust="spacing" textLength="164" x="103" y="2422.9854">updateGameStatusAndTurn(</text><text fill="#000000" font-family="monospace" font-size="13" font-weight="bold" lengthAdjust="spacing" textLength="34" x="267" y="2422.9854">PLAY</text><text fill="#000000" font-family="sans-serif" font-size="13" lengthAdjust="spacing" textLength="4" x="301" y="2422.9854">,</text><text fill="#000000" font-family="monospace" font-size="13" font-weight="bold" lengthAdjust="spacing" textLength="58" x="309" y="2422.9854">PLACING</text><text fill="#000000" font-family="sans-serif" font-size="13" lengthAdjust="spacing" textLength="89" x="367" y="2422.9854">, currentPlayer)</text><line style="stroke:#181818;stroke-width:1.0;" x1="259" x2="269" y1="2459.5391" y2="2455.5391"/><line style="stroke:#181818;stroke-width:1.0;" x1="259" x2="269" y1="2459.5391" y2="2463.5391"/><line style="stroke:#181818;stroke-width:1.0;" x1="258" x2="1069" y1="2459.5391" y2="2459.5391"/><text fill="#000000" font-family="sans-serif" font-size="13" lengthAdjust="spacing" textLength="164" x="275" y="2454.2764">updateGameStatusAndTurn(</text><text fill="#000000" font-family="monospace" font-size="13" font-weight="bold" lengthAdjust="spacing" textLength="34" x="439" y="2454.2764">PLAY</text><text fill="#000000" font-family="sans-serif" font-size="13" lengthAdjust="spacing" textLength="4" x="473" y="2454.2764">,</text><text fill="#000000" font-family="monospace" font-size="13" font-weight="bold" lengthAdjust="spacing" textLength="58" x="481" y="2454.2764">PLACING</text><text fill="#000000" font-family="sans-serif" font-size="13" lengthAdjust="spacing" textLength="89" x="539" y="2454.2764">, currentPlayer)</text><line style="stroke:#181818;stroke-width:1.0;" x1="431" x2="441" y1="2490.8301" y2="2486.8301"/><line style="stroke:#181818;stroke-width:1.0;" x1="431" x2="441" y1="2490.8301" y2="2494.8301"/><line style="stroke:#181818;stroke-width:1.0;" x1="430" x2="1069" y1="2490.8301" y2="2490.8301"/><text fill="#000000" font-family="sans-serif" font-size="13" lengthAdjust="spacing" textLength="164" x="447" y="2485.5674">updateGameStatusAndTurn(</text><text fill="#000000" font-family="monospace" font-size="13" font-weight="bold" lengthAdjust="spacing" textLength="34" x="611" y="2485.5674">PLAY</text><text fill="#000000" font-family="sans-serif" font-size="13" lengthAdjust="spacing" textLength="4" x="645" y="2485.5674">,</text><text fill="#000000" font-family="monospace" font-size="13" font-weight="bold" lengthAdjust="spacing" textLength="58" x="653" y="2485.5674">PLACING</text><text fill="#000000" font-family="sans-serif" font-size="13" lengthAdjust="spacing" textLength="89" x="711" y="2485.5674">, currentPlayer)</text><line style="stroke:#181818;stroke-width:1.0;" x1="87" x2="97" y1="2522.1211" y2="2518.1211"/><line style="stroke:#181818;stroke-width:1.0;" x1="87" x2="97" y1="2522.1211" y2="2526.1211"/><line style="stroke:#181818;stroke-width:1.0;" x1="86" x2="1069" y1="2522.1211" y2="2522.1211"/><text fill="#000000" font-family="sans-serif" font-size="13" lengthAdjust="spacing" textLength="616" x="103" y="2516.8584">setBoard(commonObjective1, commonObjective2, faceUpCard1, faceUpCard2, faceUpCard3, faceUpCard4)</text><line style="stroke:#181818;stroke-width:1.0;" x1="259" x2="269" y1="2553.4121" y2="2549.4121"/><line style="stroke:#181818;stroke-width:1.0;" x1="259" x2="269" y1="2553.4121" y2="2557.4121"/><line style="stroke:#181818;stroke-width:1.0;" x1="258" x2="1069" y1="2553.4121" y2="2553.4121"/><text fill="#000000" font-family="sans-serif" font-size="13" lengthAdjust="spacing" textLength="616" x="275" y="2548.1494">setBoard(commonObjective1, commonObjective2, faceUpCard1, faceUpCard2, faceUpCard3, faceUpCard4)</text><line style="stroke:#181818;stroke-width:1.0;" x1="431" x2="441" y1="2584.7031" y2="2580.7031"/><line style="stroke:#181818;stroke-width:1.0;" x1="431" x2="441" y1="2584.7031" y2="2588.7031"/><line style="stroke:#181818;stroke-width:1.0;" x1="430" x2="1069" y1="2584.7031" y2="2584.7031"/><text fill="#000000" font-family="sans-serif" font-size="13" lengthAdjust="spacing" textLength="616" x="447" y="2579.4404">setBoard(commonObjective1, commonObjective2, faceUpCard1, faceUpCard2, faceUpCard3, faceUpCard4)</text><line style="stroke:#181818;stroke-width:1.0;" x1="87" x2="97" y1="2615.9941" y2="2611.9941"/><line style="stroke:#181818;stroke-width:1.0;" x1="87" x2="97" y1="2615.9941" y2="2619.9941"/><line style="stroke:#181818;stroke-width:1.0;" x1="86" x2="1069" y1="2615.9941" y2="2615.9941"/><text fill="#000000" font-family="sans-serif" font-size="13" lengthAdjust="spacing" textLength="208" x="103" y="2610.7314">setHand(card1, card2, card3, card4)</text><line style="stroke:#181818;stroke-width:1.0;" x1="259" x2="269" y1="2647.2852" y2="2643.2852"/><line style="stroke:#181818;stroke-width:1.0;" x1="259" x2="269" y1="2647.2852" y2="2651.2852"/><line style="stroke:#181818;stroke-width:1.0;" x1="258" x2="1069" y1="2647.2852" y2="2647.2852"/><text fill="#000000" font-family="sans-serif" font-size="13" lengthAdjust="spacing" textLength="208" x="275" y="2642.0225">setHand(card1, card2, card3, card4)</text><line style="stroke:#181818;stroke-width:1.0;" x1="431" x2="441" y1="2678.5762" y2="2674.5762"/><line style="stroke:#181818;stroke-width:1.0;" x1="431" x2="441" y1="2678.5762" y2="2682.5762"/><line style="stroke:#181818;stroke-width:1.0;" x1="430" x2="1069" y1="2678.5762" y2="2678.5762"/><text fill="#000000" font-family="sans-serif" font-size="13" lengthAdjust="spacing" textLength="208" x="447" y="2673.3135">setHand(card1, card2, card3, card4)</text><line style="stroke:#000000;stroke-width:1.0;stroke-dasharray:2.0,2.0;" x1="0" x2="1103" y1="2686.5762" y2="2686.5762"/><!--SRC=[jLTTJ-Cu57ttht2ZIcqrQ5cjD5e90L98oz1Tr5PDcD4yHMxYWjdWT6m7D5B5RzzhvnlI1WBjKvgSwtlkFVQnFS3hM60IHNX3Rgb4FSQ3A0affe-KA_d79dc84Egj4nue5dFS3s8krR0lbM3yTeGm_7g2gaHmR9skOwvE7c8Uomq9wFdfwjp2Nt06XYVhz7XrVdgiOUSMwb4UvWCZD5Wp8PMXKR2GoGgJHDtv8LM4HOPDRs4lFHUX3H6A1Mn3kC9sn09QUtCHhsh_7IAYMDPUkLGyKe6GOYgY-4PION91sImWXjCTZnN5CQ3I3FW4p-QURzzuLvEPDtLiRp96nxW2WxJje9HB8mxrJRcI_lBd_mvDqX7QRl_wkjtMFq6YvW_fu2E4E7tIlSIEe0Gotv87YWaFyNtCUAt1WG5yW-yDRQu2TUGE6EfNHgcoFy8MK7rEMLabvMAiiXw0PZ1uCi7Fy7PFJ8e6S2sWp5MqG0TX2PDqKwj7qeW6obLwJl1R20jT5hOr8GrQHEGt5KuSnU9DU9T2VzHyTG_FxB6nWzljtxfAP1QUAH7e0pcLID-TU3SBt_K0EPrzynrxEVRTwNWoR2mxxrUMMjSagCoxbeRiQ5bBgDQZKs23i3N2RQKxy-lvShWlECkSIbAczc7PEM0tO3Kq7FQ3Y46Aiw87_NH6dRqU6RvjZCXdJRPcu5KpUzc1D_986zgL1G0_WKEPgYED5FIIIPkayuj_9eut_JxPAsjUIxbqAjCgTvZM-TWOdLfEjzZ2UjuvdMqUUh1LwlrJ_prRNDi_Z_fwzrpS4KdrVmTM-3ujHfLnmTCkOl2jOIli2go_kT65IrwQ_LTpgHaO21zGROujHXSAyhG31YgMexHfTvIVCTBTRuG6s9kFvoVuIJ3OnonYbYvc0A4anF4QMq4Y1DIQchBLfU_ZfVsZjU_vl2Wg5VHNlaTNNyhIPki33FerQfgHdoa-tDC8lTUF3ZQRjjklVvg5zagY7Gla1Q-ceh9s7gIexbAPCzExXKes8HninZJuJwO4FrFQxBHsE7KBUHlqtMrYh_brLFaZzNKNEZy3TrcKcSRNjklvtirorkpn7UNEBUqDtIW9l5lomj6lIMxeWwfJwwl09UDCtj56j_wGMH_OuhgtvH0-zyah_0EQxwxkFQkywRHsEPrDtQl9k77nlBWW7wLtQhZQcYiNyCVhRA8rNQPRBz9lkKJNCFy3]--></g></svg>