<?xml version="1.0" encoding="us-ascii" standalone="no"?><svg xmlns="http://www.w3.org/2000/svg" xmlns:xlink="http://www.w3.org/1999/xlink" contentStyleType="text/css" height="1833px" preserveAspectRatio="none" style="width:1110px;height:1833px;background:#FFFFFF;" version="1.1" viewBox="0 0 1110 1833" width="1110px" zoomAndPan="magnify"><defs/><g><text fill="#000000" font-family="sans-serif" font-size="14" font-weight="bold" lengthAdjust="spacing" textLength="65" x="518.5" y="30.1074">First turn</text><line style="stroke:#181818;stroke-width:0.5;stroke-dasharray:5.0,5.0;" x1="86" x2="86" y1="78.2422" y2="1796.2109"/><line style="stroke:#181818;stroke-width:0.5;stroke-dasharray:5.0,5.0;" x1="257.5" x2="257.5" y1="78.2422" y2="1796.2109"/><line style="stroke:#181818;stroke-width:0.5;stroke-dasharray:5.0,5.0;" x1="429.5" x2="429.5" y1="78.2422" y2="1796.2109"/><line style="stroke:#181818;stroke-width:0.5;stroke-dasharray:5.0,5.0;" x1="1070" x2="1070" y1="78.2422" y2="1796.2109"/><rect fill="#E2E2F0" height="32.6211" rx="2.5" ry="2.5" style="stroke:#181818;stroke-width:0.5;" width="44" x="64" y="44.6211"/><text fill="#000000" font-family="sans-serif" font-size="14" lengthAdjust="spacing" textLength="30" x="71" y="66.7285">Alice</text><rect fill="#E2E2F0" height="32.6211" rx="2.5" ry="2.5" style="stroke:#181818;stroke-width:0.5;" width="44" x="64" y="1795.2109"/><text fill="#000000" font-family="sans-serif" font-size="14" lengthAdjust="spacing" textLength="30" x="71" y="1817.3184">Alice</text><rect fill="#E2E2F0" height="32.6211" rx="2.5" ry="2.5" style="stroke:#181818;stroke-width:0.5;" width="39" x="238.5" y="44.6211"/><text fill="#000000" font-family="sans-serif" font-size="14" lengthAdjust="spacing" textLength="25" x="245.5" y="66.7285">Bob</text><rect fill="#E2E2F0" height="32.6211" rx="2.5" ry="2.5" style="stroke:#181818;stroke-width:0.5;" width="39" x="238.5" y="1795.2109"/><text fill="#000000" font-family="sans-serif" font-size="14" lengthAdjust="spacing" textLength="25" x="245.5" y="1817.3184">Bob</text><rect fill="#E2E2F0" height="32.6211" rx="2.5" ry="2.5" style="stroke:#181818;stroke-width:0.5;" width="55" x="402.5" y="44.6211"/><text fill="#000000" font-family="sans-serif" font-size="14" lengthAdjust="spacing" textLength="41" x="409.5" y="66.7285">Carlos</text><rect fill="#E2E2F0" height="32.6211" rx="2.5" ry="2.5" style="stroke:#181818;stroke-width:0.5;" width="55" x="402.5" y="1795.2109"/><text fill="#000000" font-family="sans-serif" font-size="14" lengthAdjust="spacing" textLength="41" x="409.5" y="1817.3184">Carlos</text><rect fill="#E2E2F0" height="32.6211" rx="2.5" ry="2.5" style="stroke:#181818;stroke-width:0.5;" width="56" x="1042" y="44.6211"/><text fill="#000000" font-family="sans-serif" font-size="14" lengthAdjust="spacing" textLength="42" x="1049" y="66.7285">Server</text><rect fill="#E2E2F0" height="32.6211" rx="2.5" ry="2.5" style="stroke:#181818;stroke-width:0.5;" width="56" x="1042" y="1795.2109"/><text fill="#000000" font-family="sans-serif" font-size="14" lengthAdjust="spacing" textLength="42" x="1049" y="1817.3184">Server</text><line style="stroke:#000000;stroke-width:1.0;stroke-dasharray:2.0,2.0;" x1="0" x2="1103" y1="89.2422" y2="89.2422"/><path d="M43,95.2422 L43,122.2422 L128,122.2422 L128,105.2422 L118,95.2422 L43,95.2422 " fill="#FEFFDD" style="stroke:#181818;stroke-width:0.5;"/><path d="M118,95.2422 L118,105.2422 L128,105.2422 L118,95.2422 " fill="#FEFFDD" style="stroke:#181818;stroke-width:0.5;"/><text fill="#000000" font-family="sans-serif" font-size="13" lengthAdjust="spacing" textLength="64" x="49" y="114.2705">Alice's turn</text><line style="stroke:#181818;stroke-width:1.0;" x1="87" x2="97" y1="150.8242" y2="146.8242"/><line style="stroke:#181818;stroke-width:1.0;" x1="87" x2="97" y1="150.8242" y2="154.8242"/><line style="stroke:#181818;stroke-width:1.0;" x1="86" x2="1069" y1="150.8242" y2="150.8242"/><text fill="#000000" font-family="sans-serif" font-size="13" lengthAdjust="spacing" textLength="255" x="103" y="145.5615">setPlayablePosition(position1, position2, ...)</text><line style="stroke:#181818;stroke-width:1.0;" x1="1068" x2="1058" y1="182.1152" y2="178.1152"/><line style="stroke:#181818;stroke-width:1.0;" x1="1068" x2="1058" y1="182.1152" y2="186.1152"/><line style="stroke:#181818;stroke-width:1.0;" x1="86" x2="1069" y1="182.1152" y2="182.1152"/><text fill="#000000" font-family="sans-serif" font-size="13" lengthAdjust="spacing" textLength="153" x="93" y="176.8525">placeCard(cardPlacement)</text><line style="stroke:#181818;stroke-width:1.0;" x1="87" x2="97" y1="213.4063" y2="209.4063"/><line style="stroke:#181818;stroke-width:1.0;" x1="87" x2="97" y1="213.4063" y2="217.4063"/><line style="stroke:#181818;stroke-width:1.0;" x1="86" x2="1069" y1="213.4063" y2="213.4063"/><text fill="#000000" font-family="sans-serif" font-size="13" lengthAdjust="spacing" textLength="312" x="103" y="208.1436">updatePlayArea(currentPlayer, cardPlacement, score)</text><line style="stroke:#181818;stroke-width:1.0;" x1="259" x2="269" y1="244.6973" y2="240.6973"/><line style="stroke:#181818;stroke-width:1.0;" x1="259" x2="269" y1="244.6973" y2="248.6973"/><line style="stroke:#181818;stroke-width:1.0;" x1="258" x2="1069" y1="244.6973" y2="244.6973"/><text fill="#000000" font-family="sans-serif" font-size="13" lengthAdjust="spacing" textLength="312" x="275" y="239.4346">updatePlayArea(currentPlayer, cardPlacement, score)</text><line style="stroke:#181818;stroke-width:1.0;" x1="431" x2="441" y1="275.9883" y2="271.9883"/><line style="stroke:#181818;stroke-width:1.0;" x1="431" x2="441" y1="275.9883" y2="279.9883"/><line style="stroke:#181818;stroke-width:1.0;" x1="430" x2="1069" y1="275.9883" y2="275.9883"/><text fill="#000000" font-family="sans-serif" font-size="13" lengthAdjust="spacing" textLength="312" x="447" y="270.7256">updatePlayArea(currentPlayer, cardPlacement, score)</text><line style="stroke:#181818;stroke-width:1.0;" x1="87" x2="97" y1="307.2793" y2="303.2793"/><line style="stroke:#181818;stroke-width:1.0;" x1="87" x2="97" y1="307.2793" y2="311.2793"/><line style="stroke:#181818;stroke-width:1.0;" x1="86" x2="1069" y1="307.2793" y2="307.2793"/><text fill="#000000" font-family="sans-serif" font-size="13" lengthAdjust="spacing" textLength="164" x="103" y="302.0166">updateGameStatusAndTurn(</text><text fill="#000000" font-family="monospace" font-size="13" font-weight="bold" lengthAdjust="spacing" textLength="34" x="267" y="302.0166">PLAY</text><text fill="#000000" font-family="sans-serif" font-size="13" lengthAdjust="spacing" textLength="4" x="301" y="302.0166">,</text><text fill="#000000" font-family="monospace" font-size="13" font-weight="bold" lengthAdjust="spacing" textLength="63" x="309" y="302.0166">DRAWING</text><text fill="#000000" font-family="sans-serif" font-size="13" lengthAdjust="spacing" textLength="89" x="372" y="302.0166">, currentPlayer)</text><line style="stroke:#181818;stroke-width:1.0;" x1="259" x2="269" y1="338.5703" y2="334.5703"/><line style="stroke:#181818;stroke-width:1.0;" x1="259" x2="269" y1="338.5703" y2="342.5703"/><line style="stroke:#181818;stroke-width:1.0;" x1="258" x2="1069" y1="338.5703" y2="338.5703"/><text fill="#000000" font-family="sans-serif" font-size="13" lengthAdjust="spacing" textLength="164" x="275" y="333.3076">updateGameStatusAndTurn(</text><text fill="#000000" font-family="monospace" font-size="13" font-weight="bold" lengthAdjust="spacing" textLength="34" x="439" y="333.3076">PLAY</text><text fill="#000000" font-family="sans-serif" font-size="13" lengthAdjust="spacing" textLength="4" x="473" y="333.3076">,</text><text fill="#000000" font-family="monospace" font-size="13" font-weight="bold" lengthAdjust="spacing" textLength="63" x="481" y="333.3076">DRAWING</text><text fill="#000000" font-family="sans-serif" font-size="13" lengthAdjust="spacing" textLength="89" x="544" y="333.3076">, currentPlayer)</text><line style="stroke:#181818;stroke-width:1.0;" x1="431" x2="441" y1="369.8613" y2="365.8613"/><line style="stroke:#181818;stroke-width:1.0;" x1="431" x2="441" y1="369.8613" y2="373.8613"/><line style="stroke:#181818;stroke-width:1.0;" x1="430" x2="1069" y1="369.8613" y2="369.8613"/><text fill="#000000" font-family="sans-serif" font-size="13" lengthAdjust="spacing" textLength="164" x="447" y="364.5986">updateGameStatusAndTurn(</text><text fill="#000000" font-family="monospace" font-size="13" font-weight="bold" lengthAdjust="spacing" textLength="34" x="611" y="364.5986">PLAY</text><text fill="#000000" font-family="sans-serif" font-size="13" lengthAdjust="spacing" textLength="4" x="645" y="364.5986">,</text><text fill="#000000" font-family="monospace" font-size="13" font-weight="bold" lengthAdjust="spacing" textLength="63" x="653" y="364.5986">DRAWING</text><text fill="#000000" font-family="sans-serif" font-size="13" lengthAdjust="spacing" textLength="89" x="716" y="364.5986">, currentPlayer)</text><line style="stroke:#181818;stroke-width:1.0;" x1="1068" x2="1058" y1="426.1523" y2="422.1523"/><line style="stroke:#181818;stroke-width:1.0;" x1="1068" x2="1058" y1="426.1523" y2="430.1523"/><line style="stroke:#181818;stroke-width:1.0;" x1="86" x2="1069" y1="426.1523" y2="426.1523"/><text fill="#000000" font-family="sans-serif" font-size="13" lengthAdjust="spacing" textLength="130" x="93" y="420.8896">drawCard(drawSource)</text><line style="stroke:#181818;stroke-width:1.0;" x1="87" x2="97" y1="457.4434" y2="453.4434"/><line style="stroke:#181818;stroke-width:1.0;" x1="87" x2="97" y1="457.4434" y2="461.4434"/><line style="stroke:#181818;stroke-width:1.0;" x1="86" x2="1069" y1="457.4434" y2="457.4434"/><text fill="#000000" font-family="sans-serif" font-size="13" lengthAdjust="spacing" textLength="374" x="103" y="452.1807">updateDecksStatus(resourceDeckIsEmpty, goldenDeckIsEmpty)</text><line style="stroke:#181818;stroke-width:1.0;" x1="259" x2="269" y1="488.7344" y2="484.7344"/><line style="stroke:#181818;stroke-width:1.0;" x1="259" x2="269" y1="488.7344" y2="492.7344"/><line style="stroke:#181818;stroke-width:1.0;" x1="258" x2="1069" y1="488.7344" y2="488.7344"/><text fill="#000000" font-family="sans-serif" font-size="13" lengthAdjust="spacing" textLength="374" x="275" y="483.4717">updateDecksStatus(resourceDeckIsEmpty, goldenDeckIsEmpty)</text><line style="stroke:#181818;stroke-width:1.0;" x1="431" x2="441" y1="520.0254" y2="516.0254"/><line style="stroke:#181818;stroke-width:1.0;" x1="431" x2="441" y1="520.0254" y2="524.0254"/><line style="stroke:#181818;stroke-width:1.0;" x1="430" x2="1069" y1="520.0254" y2="520.0254"/><text fill="#000000" font-family="sans-serif" font-size="13" lengthAdjust="spacing" textLength="374" x="447" y="514.7627">updateDecksStatus(resourceDeckIsEmpty, goldenDeckIsEmpty)</text><line style="stroke:#181818;stroke-width:1.0;" x1="87" x2="97" y1="551.3164" y2="547.3164"/><line style="stroke:#181818;stroke-width:1.0;" x1="87" x2="97" y1="551.3164" y2="555.3164"/><line style="stroke:#181818;stroke-width:1.0;" x1="86" x2="1069" y1="551.3164" y2="551.3164"/><text fill="#000000" font-family="sans-serif" font-size="13" lengthAdjust="spacing" textLength="164" x="103" y="546.0537">updateGameStatusAndTurn(</text><text fill="#000000" font-family="monospace" font-size="13" font-weight="bold" lengthAdjust="spacing" textLength="34" x="267" y="546.0537">PLAY</text><text fill="#000000" font-family="sans-serif" font-size="13" lengthAdjust="spacing" textLength="4" x="301" y="546.0537">,</text><text fill="#000000" font-family="monospace" font-size="13" font-weight="bold" lengthAdjust="spacing" textLength="58" x="309" y="546.0537">PLACING</text><text fill="#000000" font-family="sans-serif" font-size="13" lengthAdjust="spacing" textLength="89" x="367" y="546.0537">, currentPlayer)</text><line style="stroke:#181818;stroke-width:1.0;" x1="259" x2="269" y1="582.6074" y2="578.6074"/><line style="stroke:#181818;stroke-width:1.0;" x1="259" x2="269" y1="582.6074" y2="586.6074"/><line style="stroke:#181818;stroke-width:1.0;" x1="258" x2="1069" y1="582.6074" y2="582.6074"/><text fill="#000000" font-family="sans-serif" font-size="13" lengthAdjust="spacing" textLength="164" x="275" y="577.3447">updateGameStatusAndTurn(</text><text fill="#000000" font-family="monospace" font-size="13" font-weight="bold" lengthAdjust="spacing" textLength="34" x="439" y="577.3447">PLAY</text><text fill="#000000" font-family="sans-serif" font-size="13" lengthAdjust="spacing" textLength="4" x="473" y="577.3447">,</text><text fill="#000000" font-family="monospace" font-size="13" font-weight="bold" lengthAdjust="spacing" textLength="58" x="481" y="577.3447">PLACING</text><text fill="#000000" font-family="sans-serif" font-size="13" lengthAdjust="spacing" textLength="89" x="539" y="577.3447">, currentPlayer)</text><line style="stroke:#181818;stroke-width:1.0;" x1="431" x2="441" y1="613.8984" y2="609.8984"/><line style="stroke:#181818;stroke-width:1.0;" x1="431" x2="441" y1="613.8984" y2="617.8984"/><line style="stroke:#181818;stroke-width:1.0;" x1="430" x2="1069" y1="613.8984" y2="613.8984"/><text fill="#000000" font-family="sans-serif" font-size="13" lengthAdjust="spacing" textLength="164" x="447" y="608.6357">updateGameStatusAndTurn(</text><text fill="#000000" font-family="monospace" font-size="13" font-weight="bold" lengthAdjust="spacing" textLength="34" x="611" y="608.6357">PLAY</text><text fill="#000000" font-family="sans-serif" font-size="13" lengthAdjust="spacing" textLength="4" x="645" y="608.6357">,</text><text fill="#000000" font-family="monospace" font-size="13" font-weight="bold" lengthAdjust="spacing" textLength="58" x="653" y="608.6357">PLACING</text><text fill="#000000" font-family="sans-serif" font-size="13" lengthAdjust="spacing" textLength="89" x="711" y="608.6357">, currentPlayer)</text><path d="M218,676.8984 L218,703.8984 L297,703.8984 L297,686.8984 L287,676.8984 L218,676.8984 " fill="#FEFFDD" style="stroke:#181818;stroke-width:0.5;"/><path d="M287,676.8984 L287,686.8984 L297,686.8984 L287,676.8984 " fill="#FEFFDD" style="stroke:#181818;stroke-width:0.5;"/><text fill="#000000" font-family="sans-serif" font-size="13" lengthAdjust="spacing" textLength="58" x="224" y="695.9268">Bob's turn</text><line style="stroke:#181818;stroke-width:1.0;" x1="259" x2="269" y1="732.4805" y2="728.4805"/><line style="stroke:#181818;stroke-width:1.0;" x1="259" x2="269" y1="732.4805" y2="736.4805"/><line style="stroke:#181818;stroke-width:1.0;" x1="258" x2="1069" y1="732.4805" y2="732.4805"/><text fill="#000000" font-family="sans-serif" font-size="13" lengthAdjust="spacing" textLength="255" x="275" y="727.2178">setPlayablePosition(position1, position2, ...)</text><line style="stroke:#181818;stroke-width:1.0;" x1="1068" x2="1058" y1="763.7715" y2="759.7715"/><line style="stroke:#181818;stroke-width:1.0;" x1="1068" x2="1058" y1="763.7715" y2="767.7715"/><line style="stroke:#181818;stroke-width:1.0;" x1="258" x2="1069" y1="763.7715" y2="763.7715"/><text fill="#000000" font-family="sans-serif" font-size="13" lengthAdjust="spacing" textLength="153" x="265" y="758.5088">placeCard(cardPlacement)</text><line style="stroke:#181818;stroke-width:1.0;" x1="87" x2="97" y1="795.0625" y2="791.0625"/><line style="stroke:#181818;stroke-width:1.0;" x1="87" x2="97" y1="795.0625" y2="799.0625"/><line style="stroke:#181818;stroke-width:1.0;" x1="86" x2="1069" y1="795.0625" y2="795.0625"/><text fill="#000000" font-family="sans-serif" font-size="13" lengthAdjust="spacing" textLength="312" x="103" y="789.7998">updatePlayArea(currentPlayer, cardPlacement, score)</text><line style="stroke:#181818;stroke-width:1.0;" x1="259" x2="269" y1="826.3535" y2="822.3535"/><line style="stroke:#181818;stroke-width:1.0;" x1="259" x2="269" y1="826.3535" y2="830.3535"/><line style="stroke:#181818;stroke-width:1.0;" x1="258" x2="1069" y1="826.3535" y2="826.3535"/><text fill="#000000" font-family="sans-serif" font-size="13" lengthAdjust="spacing" textLength="312" x="275" y="821.0908">updatePlayArea(currentPlayer, cardPlacement, score)</text><line style="stroke:#181818;stroke-width:1.0;" x1="431" x2="441" y1="857.6445" y2="853.6445"/><line style="stroke:#181818;stroke-width:1.0;" x1="431" x2="441" y1="857.6445" y2="861.6445"/><line style="stroke:#181818;stroke-width:1.0;" x1="430" x2="1069" y1="857.6445" y2="857.6445"/><text fill="#000000" font-family="sans-serif" font-size="13" lengthAdjust="spacing" textLength="312" x="447" y="852.3818">updatePlayArea(currentPlayer, cardPlacement, score)</text><line style="stroke:#181818;stroke-width:1.0;" x1="87" x2="97" y1="888.9355" y2="884.9355"/><line style="stroke:#181818;stroke-width:1.0;" x1="87" x2="97" y1="888.9355" y2="892.9355"/><line style="stroke:#181818;stroke-width:1.0;" x1="86" x2="1069" y1="888.9355" y2="888.9355"/><text fill="#000000" font-family="sans-serif" font-size="13" lengthAdjust="spacing" textLength="164" x="103" y="883.6729">updateGameStatusAndTurn(</text><text fill="#000000" font-family="monospace" font-size="13" font-weight="bold" lengthAdjust="spacing" textLength="34" x="267" y="883.6729">PLAY</text><text fill="#000000" font-family="sans-serif" font-size="13" lengthAdjust="spacing" textLength="4" x="301" y="883.6729">,</text><text fill="#000000" font-family="monospace" font-size="13" font-weight="bold" lengthAdjust="spacing" textLength="63" x="309" y="883.6729">DRAWING</text><text fill="#000000" font-family="sans-serif" font-size="13" lengthAdjust="spacing" textLength="89" x="372" y="883.6729">, currentPlayer)</text><line style="stroke:#181818;stroke-width:1.0;" x1="259" x2="269" y1="920.2266" y2="916.2266"/><line style="stroke:#181818;stroke-width:1.0;" x1="259" x2="269" y1="920.2266" y2="924.2266"/><line style="stroke:#181818;stroke-width:1.0;" x1="258" x2="1069" y1="920.2266" y2="920.2266"/><text fill="#000000" font-family="sans-serif" font-size="13" lengthAdjust="spacing" textLength="164" x="275" y="914.9639">updateGameStatusAndTurn(</text><text fill="#000000" font-family="monospace" font-size="13" font-weight="bold" lengthAdjust="spacing" textLength="34" x="439" y="914.9639">PLAY</text><text fill="#000000" font-family="sans-serif" font-size="13" lengthAdjust="spacing" textLength="4" x="473" y="914.9639">,</text><text fill="#000000" font-family="monospace" font-size="13" font-weight="bold" lengthAdjust="spacing" textLength="63" x="481" y="914.9639">DRAWING</text><text fill="#000000" font-family="sans-serif" font-size="13" lengthAdjust="spacing" textLength="89" x="544" y="914.9639">, currentPlayer)</text><line style="stroke:#181818;stroke-width:1.0;" x1="431" x2="441" y1="951.5176" y2="947.5176"/><line style="stroke:#181818;stroke-width:1.0;" x1="431" x2="441" y1="951.5176" y2="955.5176"/><line style="stroke:#181818;stroke-width:1.0;" x1="430" x2="1069" y1="951.5176" y2="951.5176"/><text fill="#000000" font-family="sans-serif" font-size="13" lengthAdjust="spacing" textLength="164" x="447" y="946.2549">updateGameStatusAndTurn(</text><text fill="#000000" font-family="monospace" font-size="13" font-weight="bold" lengthAdjust="spacing" textLength="34" x="611" y="946.2549">PLAY</text><text fill="#000000" font-family="sans-serif" font-size="13" lengthAdjust="spacing" textLength="4" x="645" y="946.2549">,</text><text fill="#000000" font-family="monospace" font-size="13" font-weight="bold" lengthAdjust="spacing" textLength="63" x="653" y="946.2549">DRAWING</text><text fill="#000000" font-family="sans-serif" font-size="13" lengthAdjust="spacing" textLength="89" x="716" y="946.2549">, currentPlayer)</text><line style="stroke:#181818;stroke-width:1.0;" x1="1068" x2="1058" y1="1007.8086" y2="1003.8086"/><line style="stroke:#181818;stroke-width:1.0;" x1="1068" x2="1058" y1="1007.8086" y2="1011.8086"/><line style="stroke:#181818;stroke-width:1.0;" x1="258" x2="1069" y1="1007.8086" y2="1007.8086"/><text fill="#000000" font-family="sans-serif" font-size="13" lengthAdjust="spacing" textLength="130" x="265" y="1002.5459">drawCard(drawSource)</text><line style="stroke:#181818;stroke-width:1.0;" x1="87" x2="97" y1="1039.0996" y2="1035.0996"/><line style="stroke:#181818;stroke-width:1.0;" x1="87" x2="97" y1="1039.0996" y2="1043.0996"/><line style="stroke:#181818;stroke-width:1.0;" x1="86" x2="1069" y1="1039.0996" y2="1039.0996"/><text fill="#000000" font-family="sans-serif" font-size="13" lengthAdjust="spacing" textLength="374" x="103" y="1033.8369">updateDecksStatus(resourceDeckIsEmpty, goldenDeckIsEmpty)</text><line style="stroke:#181818;stroke-width:1.0;" x1="259" x2="269" y1="1070.3906" y2="1066.3906"/><line style="stroke:#181818;stroke-width:1.0;" x1="259" x2="269" y1="1070.3906" y2="1074.3906"/><line style="stroke:#181818;stroke-width:1.0;" x1="258" x2="1069" y1="1070.3906" y2="1070.3906"/><text fill="#000000" font-family="sans-serif" font-size="13" lengthAdjust="spacing" textLength="374" x="275" y="1065.1279">updateDecksStatus(resourceDeckIsEmpty, goldenDeckIsEmpty)</text><line style="stroke:#181818;stroke-width:1.0;" x1="431" x2="441" y1="1101.6816" y2="1097.6816"/><line style="stroke:#181818;stroke-width:1.0;" x1="431" x2="441" y1="1101.6816" y2="1105.6816"/><line style="stroke:#181818;stroke-width:1.0;" x1="430" x2="1069" y1="1101.6816" y2="1101.6816"/><text fill="#000000" font-family="sans-serif" font-size="13" lengthAdjust="spacing" textLength="374" x="447" y="1096.4189">updateDecksStatus(resourceDeckIsEmpty, goldenDeckIsEmpty)</text><line style="stroke:#181818;stroke-width:1.0;" x1="87" x2="97" y1="1132.9727" y2="1128.9727"/><line style="stroke:#181818;stroke-width:1.0;" x1="87" x2="97" y1="1132.9727" y2="1136.9727"/><line style="stroke:#181818;stroke-width:1.0;" x1="86" x2="1069" y1="1132.9727" y2="1132.9727"/><text fill="#000000" font-family="sans-serif" font-size="13" lengthAdjust="spacing" textLength="164" x="103" y="1127.71">updateGameStatusAndTurn(</text><text fill="#000000" font-family="monospace" font-size="13" font-weight="bold" lengthAdjust="spacing" textLength="34" x="267" y="1127.71">PLAY</text><text fill="#000000" font-family="sans-serif" font-size="13" lengthAdjust="spacing" textLength="4" x="301" y="1127.71">,</text><text fill="#000000" font-family="monospace" font-size="13" font-weight="bold" lengthAdjust="spacing" textLength="58" x="309" y="1127.71">PLACING</text><text fill="#000000" font-family="sans-serif" font-size="13" lengthAdjust="spacing" textLength="89" x="367" y="1127.71">, currentPlayer)</text><line style="stroke:#181818;stroke-width:1.0;" x1="259" x2="269" y1="1164.2637" y2="1160.2637"/><line style="stroke:#181818;stroke-width:1.0;" x1="259" x2="269" y1="1164.2637" y2="1168.2637"/><line style="stroke:#181818;stroke-width:1.0;" x1="258" x2="1069" y1="1164.2637" y2="1164.2637"/><text fill="#000000" font-family="sans-serif" font-size="13" lengthAdjust="spacing" textLength="164" x="275" y="1159.001">updateGameStatusAndTurn(</text><text fill="#000000" font-family="monospace" font-size="13" font-weight="bold" lengthAdjust="spacing" textLength="34" x="439" y="1159.001">PLAY</text><text fill="#000000" font-family="sans-serif" font-size="13" lengthAdjust="spacing" textLength="4" x="473" y="1159.001">,</text><text fill="#000000" font-family="monospace" font-size="13" font-weight="bold" lengthAdjust="spacing" textLength="58" x="481" y="1159.001">PLACING</text><text fill="#000000" font-family="sans-serif" font-size="13" lengthAdjust="spacing" textLength="89" x="539" y="1159.001">, currentPlayer)</text><line style="stroke:#181818;stroke-width:1.0;" x1="431" x2="441" y1="1195.5547" y2="1191.5547"/><line style="stroke:#181818;stroke-width:1.0;" x1="431" x2="441" y1="1195.5547" y2="1199.5547"/><line style="stroke:#181818;stroke-width:1.0;" x1="430" x2="1069" y1="1195.5547" y2="1195.5547"/><text fill="#000000" font-family="sans-serif" font-size="13" lengthAdjust="spacing" textLength="164" x="447" y="1190.292">updateGameStatusAndTurn(</text><text fill="#000000" font-family="monospace" font-size="13" font-weight="bold" lengthAdjust="spacing" textLength="34" x="611" y="1190.292">PLAY</text><text fill="#000000" font-family="sans-serif" font-size="13" lengthAdjust="spacing" textLength="4" x="645" y="1190.292">,</text><text fill="#000000" font-family="monospace" font-size="13" font-weight="bold" lengthAdjust="spacing" textLength="58" x="653" y="1190.292">PLACING</text><text fill="#000000" font-family="sans-serif" font-size="13" lengthAdjust="spacing" textLength="89" x="711" y="1190.292">, currentPlayer)</text><path d="M383,1258.5547 L383,1285.5547 L476,1285.5547 L476,1268.5547 L466,1258.5547 L383,1258.5547 " fill="#FEFFDD" style="stroke:#181818;stroke-width:0.5;"/><path d="M466,1258.5547 L466,1268.5547 L476,1268.5547 L466,1258.5547 " fill="#FEFFDD" style="stroke:#181818;stroke-width:0.5;"/><text fill="#000000" font-family="sans-serif" font-size="13" lengthAdjust="spacing" textLength="72" x="389" y="1277.583">Carlos's turn</text><line style="stroke:#181818;stroke-width:1.0;" x1="431" x2="441" y1="1314.1367" y2="1310.1367"/><line style="stroke:#181818;stroke-width:1.0;" x1="431" x2="441" y1="1314.1367" y2="1318.1367"/><line style="stroke:#181818;stroke-width:1.0;" x1="430" x2="1069" y1="1314.1367" y2="1314.1367"/><text fill="#000000" font-family="sans-serif" font-size="13" lengthAdjust="spacing" textLength="255" x="447" y="1308.874">setPlayablePosition(position1, position2, ...)</text><line style="stroke:#181818;stroke-width:1.0;" x1="1068" x2="1058" y1="1345.4277" y2="1341.4277"/><line style="stroke:#181818;stroke-width:1.0;" x1="1068" x2="1058" y1="1345.4277" y2="1349.4277"/><line style="stroke:#181818;stroke-width:1.0;" x1="430" x2="1069" y1="1345.4277" y2="1345.4277"/><text fill="#000000" font-family="sans-serif" font-size="13" lengthAdjust="spacing" textLength="153" x="437" y="1340.165">placeCard(cardPlacement)</text><line style="stroke:#181818;stroke-width:1.0;" x1="87" x2="97" y1="1376.7188" y2="1372.7188"/><line style="stroke:#181818;stroke-width:1.0;" x1="87" x2="97" y1="1376.7188" y2="1380.7188"/><line style="stroke:#181818;stroke-width:1.0;" x1="86" x2="1069" y1="1376.7188" y2="1376.7188"/><text fill="#000000" font-family="sans-serif" font-size="13" lengthAdjust="spacing" textLength="312" x="103" y="1371.4561">updatePlayArea(currentPlayer, cardPlacement, score)</text><line style="stroke:#181818;stroke-width:1.0;" x1="259" x2="269" y1="1408.0098" y2="1404.0098"/><line style="stroke:#181818;stroke-width:1.0;" x1="259" x2="269" y1="1408.0098" y2="1412.0098"/><line style="stroke:#181818;stroke-width:1.0;" x1="258" x2="1069" y1="1408.0098" y2="1408.0098"/><text fill="#000000" font-family="sans-serif" font-size="13" lengthAdjust="spacing" textLength="312" x="275" y="1402.7471">updatePlayArea(currentPlayer, cardPlacement, score)</text><line style="stroke:#181818;stroke-width:1.0;" x1="431" x2="441" y1="1439.3008" y2="1435.3008"/><line style="stroke:#181818;stroke-width:1.0;" x1="431" x2="441" y1="1439.3008" y2="1443.3008"/><line style="stroke:#181818;stroke-width:1.0;" x1="430" x2="1069" y1="1439.3008" y2="1439.3008"/><text fill="#000000" font-family="sans-serif" font-size="13" lengthAdjust="spacing" textLength="312" x="447" y="1434.0381">updatePlayArea(currentPlayer, cardPlacement, score)</text><line style="stroke:#181818;stroke-width:1.0;" x1="87" x2="97" y1="1470.5918" y2="1466.5918"/><line style="stroke:#181818;stroke-width:1.0;" x1="87" x2="97" y1="1470.5918" y2="1474.5918"/><line style="stroke:#181818;stroke-width:1.0;" x1="86" x2="1069" y1="1470.5918" y2="1470.5918"/><text fill="#000000" font-family="sans-serif" font-size="13" lengthAdjust="spacing" textLength="164" x="103" y="1465.3291">updateGameStatusAndTurn(</text><text fill="#000000" font-family="monospace" font-size="13" font-weight="bold" lengthAdjust="spacing" textLength="34" x="267" y="1465.3291">PLAY</text><text fill="#000000" font-family="sans-serif" font-size="13" lengthAdjust="spacing" textLength="4" x="301" y="1465.3291">,</text><text fill="#000000" font-family="monospace" font-size="13" font-weight="bold" lengthAdjust="spacing" textLength="63" x="309" y="1465.3291">DRAWING</text><text fill="#000000" font-family="sans-serif" font-size="13" lengthAdjust="spacing" textLength="89" x="372" y="1465.3291">, currentPlayer)</text><line style="stroke:#181818;stroke-width:1.0;" x1="259" x2="269" y1="1501.8828" y2="1497.8828"/><line style="stroke:#181818;stroke-width:1.0;" x1="259" x2="269" y1="1501.8828" y2="1505.8828"/><line style="stroke:#181818;stroke-width:1.0;" x1="258" x2="1069" y1="1501.8828" y2="1501.8828"/><text fill="#000000" font-family="sans-serif" font-size="13" lengthAdjust="spacing" textLength="164" x="275" y="1496.6201">updateGameStatusAndTurn(</text><text fill="#000000" font-family="monospace" font-size="13" font-weight="bold" lengthAdjust="spacing" textLength="34" x="439" y="1496.6201">PLAY</text><text fill="#000000" font-family="sans-serif" font-size="13" lengthAdjust="spacing" textLength="4" x="473" y="1496.6201">,</text><text fill="#000000" font-family="monospace" font-size="13" font-weight="bold" lengthAdjust="spacing" textLength="63" x="481" y="1496.6201">DRAWING</text><text fill="#000000" font-family="sans-serif" font-size="13" lengthAdjust="spacing" textLength="89" x="544" y="1496.6201">, currentPlayer)</text><line style="stroke:#181818;stroke-width:1.0;" x1="431" x2="441" y1="1533.1738" y2="1529.1738"/><line style="stroke:#181818;stroke-width:1.0;" x1="431" x2="441" y1="1533.1738" y2="1537.1738"/><line style="stroke:#181818;stroke-width:1.0;" x1="430" x2="1069" y1="1533.1738" y2="1533.1738"/><text fill="#000000" font-family="sans-serif" font-size="13" lengthAdjust="spacing" textLength="164" x="447" y="1527.9111">updateGameStatusAndTurn(</text><text fill="#000000" font-family="monospace" font-size="13" font-weight="bold" lengthAdjust="spacing" textLength="34" x="611" y="1527.9111">PLAY</text><text fill="#000000" font-family="sans-serif" font-size="13" lengthAdjust="spacing" textLength="4" x="645" y="1527.9111">,</text><text fill="#000000" font-family="monospace" font-size="13" font-weight="bold" lengthAdjust="spacing" textLength="63" x="653" y="1527.9111">DRAWING</text><text fill="#000000" font-family="sans-serif" font-size="13" lengthAdjust="spacing" textLength="89" x="716" y="1527.9111">, currentPlayer)</text><line style="stroke:#181818;stroke-width:1.0;" x1="1068" x2="1058" y1="1589.4648" y2="1585.4648"/><line style="stroke:#181818;stroke-width:1.0;" x1="1068" x2="1058" y1="1589.4648" y2="1593.4648"/><line style="stroke:#181818;stroke-width:1.0;" x1="430" x2="1069" y1="1589.4648" y2="1589.4648"/><text fill="#000000" font-family="sans-serif" font-size="13" lengthAdjust="spacing" textLength="130" x="437" y="1584.2021">drawCard(drawSource)</text><line style="stroke:#181818;stroke-width:1.0;" x1="87" x2="97" y1="1620.7559" y2="1616.7559"/><line style="stroke:#181818;stroke-width:1.0;" x1="87" x2="97" y1="1620.7559" y2="1624.7559"/><line style="stroke:#181818;stroke-width:1.0;" x1="86" x2="1069" y1="1620.7559" y2="1620.7559"/><text fill="#000000" font-family="sans-serif" font-size="13" lengthAdjust="spacing" textLength="374" x="103" y="1615.4932">updateDecksStatus(resourceDeckIsEmpty, goldenDeckIsEmpty)</text><line style="stroke:#181818;stroke-width:1.0;" x1="259" x2="269" y1="1652.0469" y2="1648.0469"/><line style="stroke:#181818;stroke-width:1.0;" x1="259" x2="269" y1="1652.0469" y2="1656.0469"/><line style="stroke:#181818;stroke-width:1.0;" x1="258" x2="1069" y1="1652.0469" y2="1652.0469"/><text fill="#000000" font-family="sans-serif" font-size="13" lengthAdjust="spacing" textLength="374" x="275" y="1646.7842">updateDecksStatus(resourceDeckIsEmpty, goldenDeckIsEmpty)</text><line style="stroke:#181818;stroke-width:1.0;" x1="431" x2="441" y1="1683.3379" y2="1679.3379"/><line style="stroke:#181818;stroke-width:1.0;" x1="431" x2="441" y1="1683.3379" y2="1687.3379"/><line style="stroke:#181818;stroke-width:1.0;" x1="430" x2="1069" y1="1683.3379" y2="1683.3379"/><text fill="#000000" font-family="sans-serif" font-size="13" lengthAdjust="spacing" textLength="374" x="447" y="1678.0752">updateDecksStatus(resourceDeckIsEmpty, goldenDeckIsEmpty)</text><line style="stroke:#181818;stroke-width:1.0;" x1="87" x2="97" y1="1714.6289" y2="1710.6289"/><line style="stroke:#181818;stroke-width:1.0;" x1="87" x2="97" y1="1714.6289" y2="1718.6289"/><line style="stroke:#181818;stroke-width:1.0;" x1="86" x2="1069" y1="1714.6289" y2="1714.6289"/><text fill="#000000" font-family="sans-serif" font-size="13" lengthAdjust="spacing" textLength="164" x="103" y="1709.3662">updateGameStatusAndTurn(</text><text fill="#000000" font-family="monospace" font-size="13" font-weight="bold" lengthAdjust="spacing" textLength="76" x="267" y="1709.3662">LAST_TURN</text><text fill="#000000" font-family="sans-serif" font-size="13" lengthAdjust="spacing" textLength="4" x="343" y="1709.3662">,</text><text fill="#000000" font-family="monospace" font-size="13" font-weight="bold" lengthAdjust="spacing" textLength="58" x="351" y="1709.3662">PLACING</text><text fill="#000000" font-family="sans-serif" font-size="13" lengthAdjust="spacing" textLength="89" x="409" y="1709.3662">, currentPlayer)</text><line style="stroke:#181818;stroke-width:1.0;" x1="259" x2="269" y1="1745.9199" y2="1741.9199"/><line style="stroke:#181818;stroke-width:1.0;" x1="259" x2="269" y1="1745.9199" y2="1749.9199"/><line style="stroke:#181818;stroke-width:1.0;" x1="258" x2="1069" y1="1745.9199" y2="1745.9199"/><text fill="#000000" font-family="sans-serif" font-size="13" lengthAdjust="spacing" textLength="164" x="275" y="1740.6572">updateGameStatusAndTurn(</text><text fill="#000000" font-family="monospace" font-size="13" font-weight="bold" lengthAdjust="spacing" textLength="76" x="439" y="1740.6572">LAST_TURN</text><text fill="#000000" font-family="sans-serif" font-size="13" lengthAdjust="spacing" textLength="4" x="515" y="1740.6572">,</text><text fill="#000000" font-family="monospace" font-size="13" font-weight="bold" lengthAdjust="spacing" textLength="58" x="523" y="1740.6572">PLACING</text><text fill="#000000" font-family="sans-serif" font-size="13" lengthAdjust="spacing" textLength="89" x="581" y="1740.6572">, currentPlayer)</text><line style="stroke:#181818;stroke-width:1.0;" x1="431" x2="441" y1="1777.2109" y2="1773.2109"/><line style="stroke:#181818;stroke-width:1.0;" x1="431" x2="441" y1="1777.2109" y2="1781.2109"/><line style="stroke:#181818;stroke-width:1.0;" x1="430" x2="1069" y1="1777.2109" y2="1777.2109"/><text fill="#000000" font-family="sans-serif" font-size="13" lengthAdjust="spacing" textLength="164" x="447" y="1771.9482">updateGameStatusAndTurn(</text><text fill="#000000" font-family="monospace" font-size="13" font-weight="bold" lengthAdjust="spacing" textLength="76" x="611" y="1771.9482">LAST_TURN</text><text fill="#000000" font-family="sans-serif" font-size="13" lengthAdjust="spacing" textLength="4" x="687" y="1771.9482">,</text><text fill="#000000" font-family="monospace" font-size="13" font-weight="bold" lengthAdjust="spacing" textLength="58" x="695" y="1771.9482">PLACING</text><text fill="#000000" font-family="sans-serif" font-size="13" lengthAdjust="spacing" textLength="89" x="753" y="1771.9482">, currentPlayer)</text><line style="stroke:#000000;stroke-width:1.0;stroke-dasharray:2.0,2.0;" x1="0" x2="1103" y1="1785.2109" y2="1785.2109"/><!--SRC=[jLTTJ-Cu57ttht2ZIcqrQ5cjD5e90L98oz1Tr5PDcD4yHMxYWjdWT6m7D5B5RzzhvnlI1WBjKvgSwtlkFVQnFS3hM60IHNX3Rgb4FSQ3A0affe-KA_d79dc84Egj4nue5dFS3s8krR0lbM3yTeGm_7g2gaHmR9skOwvE7c8Uomq9wFdfwjp2Nt06XYVhz7XrVdgiOUSMwb4UvWCZD5Wp8PMXKR2GoGgJHDtv8LM4HOPDRs4lFHUX3H6A1Mn3kC9sn09QUtCHhsh_7IAYMDPUkLGyKe6GOYgY-4PION91sImWXjCTZnN5CQ3I3FW4p-QURzzuLvEPDtLiRp96nxW2WxJje9HB8mxrJRcI_lBd_mvDqX7QRl_wkjtMFq6YvW_fu2E4E7tIlSIEe0Gotv87YWaFyNtCUAt1WG5yW-yDRQu2TUGE6EfNHgcoFy8MK7rEMLabvMAiiXw0PZ1uCi7Fy7PFJ8e6S2sWp5MqG0TX2PDqKwj7qeW6obLwJl1R20jT5hOr8GrQHEGt5KuSnU9DU9T2VzHyTG_FxB6nWzljtxfAP1QUAH7e0pcLID-TU3SBt_K0EPrzynrxEVRTwNWoR2mxxrUMMjSagCoxbeRiQ5bBgDQZKs23i3N2RQKxy-lvShWlECkSIbAczc7PEM0tO3Kq7FQ3Y46Aiw87_NH6dRqU6RvjZCXdJRPcu5KpUzc1D_986zgL1G0_WKEPgYED5FIIIPkayuj_9eut_JxPAsjUIxbqAjCgTvZM-TWOdLfEjzZ2UjuvdMqUUh1LwlrJ_prRNDi_Z_fwzrpS4KdrVmTM-3ujHfLnmTCkOl2jOIli2go_kT65IrwQ_LTpgHaO21zGROujHXSAyhG31YgMexHfTvIVCTBTRuG6s9kFvoVuIJ3OnonYbYvc0A4anF4QMq4Y1DIQchBLfU_ZfVsZjU_vl2Wg5VHNlaTNNyhIPki33FerQfgHdoa-tDC8lTUF3ZQRjjklVvg5zagY7Gla1Q-ceh9s7gIexbAPCzExXKes8HninZJuJwO4FrFQxBHsE7KBUHlqtMrYh_brLFaZzNKNEZy3TrcKcSRNjklvtirorkpn7UNEBUqDtIW9l5lomj6lIMxeWwfJwwl09UDCtj56j_wGMH_OuhgtvH0-zyah_0EQxwxkFQkywRHsEPrDtQl9k77nlBWW7wLtQhZQcYiNyCVhRA8rNQPRBz9lkKJNCFy3]--></g></svg>