<?xml version="1.0" encoding="us-ascii" standalone="no"?><svg xmlns="http://www.w3.org/2000/svg" xmlns:xlink="http://www.w3.org/1999/xlink" contentStyleType="text/css" height="570px" preserveAspectRatio="none" style="width:948px;height:570px;background:#FFFFFF;" version="1.1" viewBox="0 0 948 570" width="948px" zoomAndPan="magnify"><defs/><g><text fill="#000000" font-family="sans-serif" font-size="14" font-weight="bold" lengthAdjust="spacing" textLength="111" x="417" y="30.1074">Send messages</text><rect fill="none" height="129.7949" style="stroke:#000000;stroke-width:1.5;" width="651.5" x="102" y="199.1152"/><line style="stroke:#181818;stroke-width:0.5;stroke-dasharray:5.0,5.0;" x1="134" x2="134" y1="78.2422" y2="533.3652"/><line style="stroke:#181818;stroke-width:0.5;stroke-dasharray:5.0,5.0;" x1="429" x2="429" y1="78.2422" y2="533.3652"/><line style="stroke:#181818;stroke-width:0.5;stroke-dasharray:5.0,5.0;" x1="723.5" x2="723.5" y1="78.2422" y2="533.3652"/><line style="stroke:#181818;stroke-width:0.5;stroke-dasharray:5.0,5.0;" x1="815.5" x2="815.5" y1="78.2422" y2="533.3652"/><rect fill="#E2E2F0" height="32.6211" rx="2.5" ry="2.5" style="stroke:#181818;stroke-width:0.5;" width="44" x="112" y="44.6211"/><text fill="#000000" font-family="sans-serif" font-size="14" lengthAdjust="spacing" textLength="30" x="119" y="66.7285">Alice</text><rect fill="#E2E2F0" height="32.6211" rx="2.5" ry="2.5" style="stroke:#181818;stroke-width:0.5;" width="44" x="112" y="532.3652"/><text fill="#000000" font-family="sans-serif" font-size="14" lengthAdjust="spacing" textLength="30" x="119" y="554.4727">Alice</text><rect fill="#E2E2F0" height="32.6211" rx="2.5" ry="2.5" style="stroke:#181818;stroke-width:0.5;" width="56" x="401" y="44.6211"/><text fill="#000000" font-family="sans-serif" font-size="14" lengthAdjust="spacing" textLength="42" x="408" y="66.7285">Server</text><rect fill="#E2E2F0" height="32.6211" rx="2.5" ry="2.5" style="stroke:#181818;stroke-width:0.5;" width="56" x="401" y="532.3652"/><text fill="#000000" font-family="sans-serif" font-size="14" lengthAdjust="spacing" textLength="42" x="408" y="554.4727">Server</text><rect fill="#E2E2F0" height="32.6211" rx="2.5" ry="2.5" style="stroke:#181818;stroke-width:0.5;" width="39" x="704.5" y="44.6211"/><text fill="#000000" font-family="sans-serif" font-size="14" lengthAdjust="spacing" textLength="25" x="711.5" y="66.7285">Bob</text><rect fill="#E2E2F0" height="32.6211" rx="2.5" ry="2.5" style="stroke:#181818;stroke-width:0.5;" width="39" x="704.5" y="532.3652"/><text fill="#000000" font-family="sans-serif" font-size="14" lengthAdjust="spacing" textLength="25" x="711.5" y="554.4727">Bob</text><rect fill="#E2E2F0" height="32.6211" rx="2.5" ry="2.5" style="stroke:#181818;stroke-width:0.5;" width="55" x="788.5" y="44.6211"/><text fill="#000000" font-family="sans-serif" font-size="14" lengthAdjust="spacing" textLength="41" x="795.5" y="66.7285">Carlos</text><rect fill="#E2E2F0" height="32.6211" rx="2.5" ry="2.5" style="stroke:#181818;stroke-width:0.5;" width="55" x="788.5" y="532.3652"/><text fill="#000000" font-family="sans-serif" font-size="14" lengthAdjust="spacing" textLength="41" x="795.5" y="554.4727">Carlos</text><polygon fill="#FEFFDD" points="103,93.2422,165,93.2422,175,105.2422,165,118.2422,103,118.2422,93,105.2422,103,93.2422" style="stroke:#181818;stroke-width:0.5;"/><text fill="#000000" font-family="sans-serif" font-size="13" lengthAdjust="spacing" textLength="58" x="105" y="111.2705">IN_GAME</text><polygon fill="#FEFFDD" points="693,93.2422,755,93.2422,765,105.2422,755,118.2422,693,118.2422,683,105.2422,693,93.2422" style="stroke:#181818;stroke-width:0.5;"/><text fill="#000000" font-family="sans-serif" font-size="13" lengthAdjust="spacing" textLength="58" x="695" y="111.2705">IN_GAME</text><polygon fill="#FEFFDD" points="785,93.2422,847,93.2422,857,105.2422,847,118.2422,785,118.2422,775,105.2422,785,93.2422" style="stroke:#181818;stroke-width:0.5;"/><text fill="#000000" font-family="sans-serif" font-size="13" lengthAdjust="spacing" textLength="58" x="787" y="111.2705">IN_GAME</text><path d="M5,128.5332 L5,155.5332 L264,155.5332 L264,138.5332 L254,128.5332 L5,128.5332 " fill="#FEFFDD" style="stroke:#181818;stroke-width:0.5;"/><path d="M254,128.5332 L254,138.5332 L264,138.5332 L254,128.5332 " fill="#FEFFDD" style="stroke:#181818;stroke-width:0.5;"/><text fill="#000000" font-family="sans-serif" font-size="13" lengthAdjust="spacing" textLength="238" x="11" y="147.5615">Alice is sending a direct message to Bob</text><line style="stroke:#181818;stroke-width:1.0;" x1="427" x2="417" y1="184.1152" y2="180.1152"/><line style="stroke:#181818;stroke-width:1.0;" x1="427" x2="417" y1="184.1152" y2="188.1152"/><line style="stroke:#181818;stroke-width:1.0;" x1="134" x2="428" y1="184.1152" y2="184.1152"/><text fill="#000000" font-family="sans-serif" font-size="13" lengthAdjust="spacing" textLength="223" x="141" y="178.8525">sendDirectMessage(recipient, content)</text><path d="M102,199.1152 L163,199.1152 L163,208.4063 L153,218.4063 L102,218.4063 L102,199.1152 " fill="#EEEEEE" style="stroke:#000000;stroke-width:1.5;"/><rect fill="none" height="129.7949" style="stroke:#000000;stroke-width:1.5;" width="651.5" x="102" y="199.1152"/><text fill="#000000" font-family="sans-serif" font-size="13" font-weight="bold" lengthAdjust="spacing" textLength="16" x="117" y="214.1436">alt</text><line style="stroke:#181818;stroke-width:1.0;" x1="135" x2="145" y1="241.6973" y2="237.6973"/><line style="stroke:#181818;stroke-width:1.0;" x1="135" x2="145" y1="241.6973" y2="245.6973"/><line style="stroke:#181818;stroke-width:1.0;" x1="134" x2="428" y1="241.6973" y2="241.6973"/><text fill="#000000" font-family="sans-serif" font-size="13" lengthAdjust="spacing" textLength="131" x="151" y="236.4346">updateMailbox(sender,</text><text fill="#000000" font-family="monospace" font-size="13" font-weight="bold" lengthAdjust="spacing" textLength="47" x="286" y="236.4346">DIRECT</text><text fill="#000000" font-family="sans-serif" font-size="13" lengthAdjust="spacing" textLength="55" x="333" y="236.4346">, content)</text><line style="stroke:#181818;stroke-width:1.0;" x1="722" x2="712" y1="272.9883" y2="268.9883"/><line style="stroke:#181818;stroke-width:1.0;" x1="722" x2="712" y1="272.9883" y2="276.9883"/><line style="stroke:#181818;stroke-width:1.0;" x1="429" x2="723" y1="272.9883" y2="272.9883"/><text fill="#000000" font-family="sans-serif" font-size="13" lengthAdjust="spacing" textLength="131" x="436" y="267.7256">updateMailbox(sender,</text><text fill="#000000" font-family="monospace" font-size="13" font-weight="bold" lengthAdjust="spacing" textLength="47" x="571" y="267.7256">DIRECT</text><text fill="#000000" font-family="sans-serif" font-size="13" lengthAdjust="spacing" textLength="55" x="618" y="267.7256">, content)</text><line style="stroke:#000000;stroke-width:1.0;stroke-dasharray:2.0,2.0;" x1="102" x2="753.5" y1="281.9883" y2="281.9883"/><text fill="#000000" font-family="sans-serif" font-size="11" font-weight="bold" lengthAdjust="spacing" textLength="95" x="107" y="293.8584">[invalid recipient]</text><line style="stroke:#181818;stroke-width:1.0;" x1="135" x2="145" y1="320.9102" y2="316.9102"/><line style="stroke:#181818;stroke-width:1.0;" x1="135" x2="145" y1="320.9102" y2="324.9102"/><line style="stroke:#181818;stroke-width:1.0;" x1="134" x2="428" y1="320.9102" y2="320.9102"/><text fill="#000000" font-family="sans-serif" font-size="13" lengthAdjust="spacing" textLength="124" x="151" y="315.6475">KO, invalidRecipient()</text><path d="M691,365.9102 L691,392.9102 L941,392.9102 L941,375.9102 L931,365.9102 L691,365.9102 " fill="#FEFFDD" style="stroke:#181818;stroke-width:0.5;"/><path d="M931,365.9102 L931,375.9102 L941,375.9102 L931,365.9102 " fill="#FEFFDD" style="stroke:#181818;stroke-width:0.5;"/><text fill="#000000" font-family="sans-serif" font-size="13" lengthAdjust="spacing" textLength="229" x="697" y="384.9385">Carlos is sending a broadcast message</text><line style="stroke:#181818;stroke-width:1.0;" x1="430" x2="440" y1="421.4922" y2="417.4922"/><line style="stroke:#181818;stroke-width:1.0;" x1="430" x2="440" y1="421.4922" y2="425.4922"/><line style="stroke:#181818;stroke-width:1.0;" x1="429" x2="815" y1="421.4922" y2="421.4922"/><text fill="#000000" font-family="sans-serif" font-size="13" lengthAdjust="spacing" textLength="191" x="446" y="416.2295">sendBroadcastMessage(content)</text><line style="stroke:#181818;stroke-width:1.0;" x1="135" x2="145" y1="452.7832" y2="448.7832"/><line style="stroke:#181818;stroke-width:1.0;" x1="135" x2="145" y1="452.7832" y2="456.7832"/><line style="stroke:#181818;stroke-width:1.0;" x1="134" x2="428" y1="452.7832" y2="452.7832"/><text fill="#000000" font-family="sans-serif" font-size="13" lengthAdjust="spacing" textLength="131" x="151" y="447.5205">updateMailbox(sender,</text><text fill="#000000" font-family="monospace" font-size="13" font-weight="bold" lengthAdjust="spacing" textLength="81" x="286" y="447.5205">BROADCAST</text><text fill="#000000" font-family="sans-serif" font-size="13" lengthAdjust="spacing" textLength="55" x="367" y="447.5205">, content)</text><line style="stroke:#181818;stroke-width:1.0;" x1="722" x2="712" y1="484.0742" y2="480.0742"/><line style="stroke:#181818;stroke-width:1.0;" x1="722" x2="712" y1="484.0742" y2="488.0742"/><line style="stroke:#181818;stroke-width:1.0;" x1="429" x2="723" y1="484.0742" y2="484.0742"/><text fill="#000000" font-family="sans-serif" font-size="13" lengthAdjust="spacing" textLength="131" x="436" y="478.8115">updateMailbox(sender,</text><text fill="#000000" font-family="monospace" font-size="13" font-weight="bold" lengthAdjust="spacing" textLength="81" x="571" y="478.8115">BROADCAST</text><text fill="#000000" font-family="sans-serif" font-size="13" lengthAdjust="spacing" textLength="55" x="652" y="478.8115">, content)</text><line style="stroke:#181818;stroke-width:1.0;" x1="814" x2="804" y1="515.3652" y2="511.3652"/><line style="stroke:#181818;stroke-width:1.0;" x1="814" x2="804" y1="515.3652" y2="519.3652"/><line style="stroke:#181818;stroke-width:1.0;" x1="429" x2="815" y1="515.3652" y2="515.3652"/><text fill="#000000" font-family="sans-serif" font-size="13" lengthAdjust="spacing" textLength="131" x="436" y="510.1025">updateMailbox(sender,</text><text fill="#000000" font-family="monospace" font-size="13" font-weight="bold" lengthAdjust="spacing" textLength="81" x="571" y="510.1025">BROADCAST</text><text fill="#000000" font-family="sans-serif" font-size="13" lengthAdjust="spacing" textLength="55" x="652" y="510.1025">, content)</text><!--SRC=[hPDDRy8m38Rl-HKkuj1AiDqH8F4bX11Z0kvLQ2qMAJGbIT4E4xzz9g7G3j1sM2vjyjfl7iT9O2pNrXHRU1-iDciMY2oHHOg0HyoiUScBlMGioBLAC2qqGjDWbWwrucd2ZLsWCNo7iSP3w1JKhNE8FgBkhTqdOa3Z8aAxtozrwC0Zhp1HcQMz8nQGUjtu7c8iD2R_GL0p2kbVv880Ml1NaXk3YUVBM6H7BaMwAet2PYAzuKCkBqAtswvmpPSjkFEv1w4fzOunAwn4MDCKzXx6i9mQAoYLa_b0YWHhAnwXjZHKszfynBLKXh6FJ5a4TGPpFeGtUukdWyM4lK95fFndahUggEo7P-TYBOnhYSXsm25rZIah0giSufFck_o8SMdziReB71TvoYqkk91RzUbZMZ2UhIQZJVGyZhQvHQ4qMFO2hhVZTgT-w_u5Z2BP5urgwVvOEkNnr8hVbk-Yh9yzVte-FsANOWmUwWMX2PiYc_8zzXeEvqGLddnM8_e6]--></g></svg>