<?xml version="1.0" encoding="us-ascii" standalone="no"?><svg xmlns="http://www.w3.org/2000/svg" xmlns:xlink="http://www.w3.org/1999/xlink" contentStyleType="text/css" height="412px" preserveAspectRatio="none" style="width:699px;height:412px;background:#FFFFFF;" version="1.1" viewBox="0 0 699 412" width="699px" zoomAndPan="magnify"><defs/><g><text fill="#000000" font-family="sans-serif" font-size="14" font-weight="bold" lengthAdjust="spacing" textLength="102" x="300" y="30.1074">Game creation</text><rect fill="none" height="196.377" style="stroke:#000000;stroke-width:1.5;" width="645" x="18" y="161.8242"/><line style="stroke:#181818;stroke-width:0.5;stroke-dasharray:5.0,5.0;" x1="69.5" x2="69.5" y1="78.2422" y2="375.2012"/><line style="stroke:#181818;stroke-width:0.5;stroke-dasharray:5.0,5.0;" x1="346.5" x2="346.5" y1="78.2422" y2="375.2012"/><line style="stroke:#181818;stroke-width:0.5;stroke-dasharray:5.0,5.0;" x1="633" x2="633" y1="78.2422" y2="375.2012"/><rect fill="#E2E2F0" height="32.6211" rx="2.5" ry="2.5" style="stroke:#181818;stroke-width:0.5;" width="44" x="47.5" y="44.6211"/><text fill="#000000" font-family="sans-serif" font-size="14" lengthAdjust="spacing" textLength="30" x="54.5" y="66.7285">Alice</text><rect fill="#E2E2F0" height="32.6211" rx="2.5" ry="2.5" style="stroke:#181818;stroke-width:0.5;" width="44" x="47.5" y="374.2012"/><text fill="#000000" font-family="sans-serif" font-size="14" lengthAdjust="spacing" textLength="30" x="54.5" y="396.3086">Alice</text><rect fill="#E2E2F0" height="32.6211" rx="2.5" ry="2.5" style="stroke:#181818;stroke-width:0.5;" width="56" x="318.5" y="44.6211"/><text fill="#000000" font-family="sans-serif" font-size="14" lengthAdjust="spacing" textLength="42" x="325.5" y="66.7285">Server</text><rect fill="#E2E2F0" height="32.6211" rx="2.5" ry="2.5" style="stroke:#181818;stroke-width:0.5;" width="56" x="318.5" y="374.2012"/><text fill="#000000" font-family="sans-serif" font-size="14" lengthAdjust="spacing" textLength="42" x="325.5" y="396.3086">Server</text><rect fill="#E2E2F0" height="32.6211" rx="2.5" ry="2.5" style="stroke:#181818;stroke-width:0.5;" width="39" x="614" y="44.6211"/><text fill="#000000" font-family="sans-serif" font-size="14" lengthAdjust="spacing" textLength="25" x="621" y="66.7285">Bob</text><rect fill="#E2E2F0" height="32.6211" rx="2.5" ry="2.5" style="stroke:#181818;stroke-width:0.5;" width="39" x="614" y="374.2012"/><text fill="#000000" font-family="sans-serif" font-size="14" lengthAdjust="spacing" textLength="25" x="621" y="396.3086">Bob</text><polygon fill="#FEFFDD" points="15,93.2422,124,93.2422,134,105.2422,124,118.2422,15,118.2422,5,105.2422,15,93.2422" style="stroke:#181818;stroke-width:0.5;"/><text fill="#000000" font-family="sans-serif" font-size="13" lengthAdjust="spacing" textLength="105" x="17" y="111.2705">AUTHENTICATED</text><polygon fill="#FEFFDD" points="579,93.2422,688,93.2422,698,105.2422,688,118.2422,579,118.2422,569,105.2422,579,93.2422" style="stroke:#181818;stroke-width:0.5;"/><text fill="#000000" font-family="sans-serif" font-size="13" lengthAdjust="spacing" textLength="105" x="581" y="111.2705">AUTHENTICATED</text><line style="stroke:#181818;stroke-width:1.0;" x1="344.5" x2="334.5" y1="146.8242" y2="142.8242"/><line style="stroke:#181818;stroke-width:1.0;" x1="344.5" x2="334.5" y1="146.8242" y2="150.8242"/><line style="stroke:#181818;stroke-width:1.0;" x1="69.5" x2="345.5" y1="146.8242" y2="146.8242"/><text fill="#000000" font-family="sans-serif" font-size="13" lengthAdjust="spacing" textLength="194" x="76.5" y="141.5615">createGameAndJoin(maxPlayers)</text><path d="M18,161.8242 L79,161.8242 L79,171.1152 L69,181.1152 L18,181.1152 L18,161.8242 " fill="#EEEEEE" style="stroke:#000000;stroke-width:1.5;"/><rect fill="none" height="196.377" style="stroke:#000000;stroke-width:1.5;" width="645" x="18" y="161.8242"/><text fill="#000000" font-family="sans-serif" font-size="13" font-weight="bold" lengthAdjust="spacing" textLength="16" x="33" y="176.8525">alt</text><line style="stroke:#181818;stroke-width:1.0;" x1="70.5" x2="80.5" y1="204.4063" y2="200.4063"/><line style="stroke:#181818;stroke-width:1.0;" x1="70.5" x2="80.5" y1="204.4063" y2="208.4063"/><line style="stroke:#181818;stroke-width:1.0;" x1="69.5" x2="345.5" y1="204.4063" y2="204.4063"/><text fill="#000000" font-family="sans-serif" font-size="13" lengthAdjust="spacing" textLength="116" x="86.5" y="199.1436">updateGameStatus(</text><text fill="#000000" font-family="monospace" font-size="13" font-weight="bold" lengthAdjust="spacing" textLength="133" x="202.5" y="199.1436">AWAITING_PLAYERS</text><text fill="#000000" font-family="sans-serif" font-size="13" lengthAdjust="spacing" textLength="4" x="335.5" y="199.1436">)</text><polygon fill="#FEFFDD" points="38,217.4063,100,217.4063,110,229.4063,100,242.4063,38,242.4063,28,229.4063,38,217.4063" style="stroke:#181818;stroke-width:0.5;"/><text fill="#000000" font-family="sans-serif" font-size="13" lengthAdjust="spacing" textLength="58" x="40" y="235.4346">IN_GAME</text><line style="stroke:#181818;stroke-width:1.0;" x1="70.5" x2="80.5" y1="270.9883" y2="266.9883"/><line style="stroke:#181818;stroke-width:1.0;" x1="70.5" x2="80.5" y1="270.9883" y2="274.9883"/><line style="stroke:#181818;stroke-width:1.0;" x1="69.5" x2="345.5" y1="270.9883" y2="270.9883"/><text fill="#000000" font-family="sans-serif" font-size="13" lengthAdjust="spacing" textLength="217" x="86.5" y="265.7256">updatePlayerList(player1, player2, ...)</text><line style="stroke:#181818;stroke-width:1.0;" x1="631.5" x2="621.5" y1="302.2793" y2="298.2793"/><line style="stroke:#181818;stroke-width:1.0;" x1="631.5" x2="621.5" y1="302.2793" y2="306.2793"/><line style="stroke:#181818;stroke-width:1.0;" x1="346.5" x2="632.5" y1="302.2793" y2="302.2793"/><text fill="#000000" font-family="sans-serif" font-size="13" lengthAdjust="spacing" textLength="263" x="353.5" y="297.0166">updateGameList(gameData1, gameData2, ...)</text><line style="stroke:#000000;stroke-width:1.0;stroke-dasharray:2.0,2.0;" x1="18" x2="663" y1="311.2793" y2="311.2793"/><text fill="#000000" font-family="sans-serif" font-size="11" font-weight="bold" lengthAdjust="spacing" textLength="184" x="23" y="323.1494">[maxPlayers &lt; 2 || maxPlayers &gt; 4]</text><line style="stroke:#181818;stroke-width:1.0;" x1="70.5" x2="80.5" y1="350.2012" y2="346.2012"/><line style="stroke:#181818;stroke-width:1.0;" x1="70.5" x2="80.5" y1="350.2012" y2="354.2012"/><line style="stroke:#181818;stroke-width:1.0;" x1="69.5" x2="345.5" y1="350.2012" y2="350.2012"/><text fill="#000000" font-family="sans-serif" font-size="13" lengthAdjust="spacing" textLength="139" x="86.5" y="344.9385">KO, invalidMaxPlayers()</text><!--SRC=[bLDTJzim57tthxYfEj5APPCcdb2f5BQATMMqea68fyXDRbLFhXrifzean6_dsab3e1H1NfBSZtEkxpcEhEF6sN89y_WwMJ1s95GconoXy75O6Rs1lrge2xv1M6B6IulWrWW6RQ4L_UWLP0Qvmr0YRCXQ_yrjqygY6jTJxO9fZeuB-RKeDpAg-QF2w0ppqY1qds5JW_UzRYO5AZU0haMpHNEs2Ay-0thg91oFHhiydBO6YrN-csXx6_vlBlb_DBRF8bHvG_SEjKsdirIeBPSY_zFqVsoUuV2uDSzqDe1ze8zEOl4-dKrRlBfqLkGXUTRf71ha_ItMLOqc_hXjalWsdYIJgujqVXdVZQyNTJrkAPkMHKxOrJakXNMxjZuBLT5A4tcsfad958QE3bzi8OMpplJQqm-WyzYfaFVGVRx23Y1LbLyOWRzQdFyZWx76RH20R70OOquuYH1i6fOYj6BUvY8J1IUjOYaoV16f5laYTAwNRAsq8-DxJKCFAHlV9B_6LydaHvoCVx9lq2gXZhq2zbgMW4DhuzAzBKWe-AmSDUhXdT9iVOQIhl7pnO0XV8U7XtPa12TlcEd0lQX9IGls1000]--></g></svg>