<?xml version="1.0" encoding="us-ascii" standalone="no"?><svg xmlns="http://www.w3.org/2000/svg" xmlns:xlink="http://www.w3.org/1999/xlink" contentStyleType="text/css" height="764px" preserveAspectRatio="none" style="width:964px;height:764px;background:#FFFFFF;" version="1.1" viewBox="0 0 964 764" width="964px" zoomAndPan="magnify"><defs/><g><text fill="#000000" font-family="sans-serif" font-size="14" font-weight="bold" lengthAdjust="spacing" textLength="82" x="442" y="30.1074">Draw a card</text><rect fill="none" height="423.4141" style="stroke:#000000;stroke-width:1.5;" width="939" x="18" y="286.6973"/><rect fill="none" height="81.873" style="stroke:#000000;stroke-width:1.5;" width="899.5" x="28" y="375.5703"/><rect fill="none" height="146.4551" style="stroke:#000000;stroke-width:1.5;" width="899.5" x="28" y="471.4434"/><line style="stroke:#181818;stroke-width:0.5;stroke-dasharray:5.0,5.0;" x1="60" x2="60" y1="78.2422" y2="727.1113"/><line style="stroke:#181818;stroke-width:0.5;stroke-dasharray:5.0,5.0;" x1="479" x2="479" y1="78.2422" y2="727.1113"/><line style="stroke:#181818;stroke-width:0.5;stroke-dasharray:5.0,5.0;" x1="897.5" x2="897.5" y1="78.2422" y2="727.1113"/><rect fill="#E2E2F0" height="32.6211" rx="2.5" ry="2.5" style="stroke:#181818;stroke-width:0.5;" width="44" x="38" y="44.6211"/><text fill="#000000" font-family="sans-serif" font-size="14" lengthAdjust="spacing" textLength="30" x="45" y="66.7285">Alice</text><rect fill="#E2E2F0" height="32.6211" rx="2.5" ry="2.5" style="stroke:#181818;stroke-width:0.5;" width="44" x="38" y="726.1113"/><text fill="#000000" font-family="sans-serif" font-size="14" lengthAdjust="spacing" textLength="30" x="45" y="748.2188">Alice</text><rect fill="#E2E2F0" height="32.6211" rx="2.5" ry="2.5" style="stroke:#181818;stroke-width:0.5;" width="56" x="451" y="44.6211"/><text fill="#000000" font-family="sans-serif" font-size="14" lengthAdjust="spacing" textLength="42" x="458" y="66.7285">Server</text><rect fill="#E2E2F0" height="32.6211" rx="2.5" ry="2.5" style="stroke:#181818;stroke-width:0.5;" width="56" x="451" y="726.1113"/><text fill="#000000" font-family="sans-serif" font-size="14" lengthAdjust="spacing" textLength="42" x="458" y="748.2188">Server</text><rect fill="#E2E2F0" height="32.6211" rx="2.5" ry="2.5" style="stroke:#181818;stroke-width:0.5;" width="39" x="878.5" y="44.6211"/><text fill="#000000" font-family="sans-serif" font-size="14" lengthAdjust="spacing" textLength="25" x="885.5" y="66.7285">Bob</text><rect fill="#E2E2F0" height="32.6211" rx="2.5" ry="2.5" style="stroke:#181818;stroke-width:0.5;" width="39" x="878.5" y="726.1113"/><text fill="#000000" font-family="sans-serif" font-size="14" lengthAdjust="spacing" textLength="25" x="885.5" y="748.2188">Bob</text><polygon fill="#FEFFDD" points="29,93.2422,91,93.2422,101,105.2422,91,118.2422,29,118.2422,19,105.2422,29,93.2422" style="stroke:#181818;stroke-width:0.5;"/><text fill="#000000" font-family="sans-serif" font-size="13" lengthAdjust="spacing" textLength="58" x="31" y="111.2705">IN_GAME</text><polygon fill="#FEFFDD" points="867,93.2422,929,93.2422,939,105.2422,929,118.2422,867,118.2422,857,105.2422,867,93.2422" style="stroke:#181818;stroke-width:0.5;"/><text fill="#000000" font-family="sans-serif" font-size="13" lengthAdjust="spacing" textLength="58" x="869" y="111.2705">IN_GAME</text><path d="M5,128.5332 L5,155.5332 L115,155.5332 L115,138.5332 L105,128.5332 L5,128.5332 " fill="#FEFFDD" style="stroke:#181818;stroke-width:0.5;"/><path d="M105,128.5332 L105,138.5332 L115,138.5332 L105,128.5332 " fill="#FEFFDD" style="stroke:#181818;stroke-width:0.5;"/><text fill="#000000" font-family="sans-serif" font-size="13" lengthAdjust="spacing" textLength="89" x="11" y="147.5615">It is Alice's turn</text><line style="stroke:#181818;stroke-width:1.0;" x1="61" x2="71" y1="184.1152" y2="180.1152"/><line style="stroke:#181818;stroke-width:1.0;" x1="61" x2="71" y1="184.1152" y2="188.1152"/><line style="stroke:#181818;stroke-width:1.0;" x1="60" x2="478" y1="184.1152" y2="184.1152"/><text fill="#000000" font-family="sans-serif" font-size="13" lengthAdjust="spacing" textLength="164" x="77" y="178.8525">updateGameStatusAndTurn(</text><text fill="#000000" font-family="monospace" font-size="13" font-weight="bold" lengthAdjust="spacing" textLength="34" x="241" y="178.8525">PLAY</text><text fill="#000000" font-family="sans-serif" font-size="13" lengthAdjust="spacing" textLength="4" x="275" y="178.8525">,</text><text fill="#000000" font-family="monospace" font-size="13" font-weight="bold" lengthAdjust="spacing" textLength="63" x="283" y="178.8525">DRAWING</text><text fill="#000000" font-family="sans-serif" font-size="13" lengthAdjust="spacing" textLength="89" x="346" y="178.8525">, currentPlayer)</text><line style="stroke:#181818;stroke-width:1.0;" x1="896" x2="886" y1="215.4063" y2="211.4063"/><line style="stroke:#181818;stroke-width:1.0;" x1="896" x2="886" y1="215.4063" y2="219.4063"/><line style="stroke:#181818;stroke-width:1.0;" x1="479" x2="897" y1="215.4063" y2="215.4063"/><text fill="#000000" font-family="sans-serif" font-size="13" lengthAdjust="spacing" textLength="164" x="486" y="210.1436">updateGameStatusAndTurn(</text><text fill="#000000" font-family="monospace" font-size="13" font-weight="bold" lengthAdjust="spacing" textLength="34" x="650" y="210.1436">PLAY</text><text fill="#000000" font-family="sans-serif" font-size="13" lengthAdjust="spacing" textLength="4" x="684" y="210.1436">,</text><text fill="#000000" font-family="monospace" font-size="13" font-weight="bold" lengthAdjust="spacing" textLength="63" x="692" y="210.1436">DRAWING</text><text fill="#000000" font-family="sans-serif" font-size="13" lengthAdjust="spacing" textLength="89" x="755" y="210.1436">, currentPlayer)</text><line style="stroke:#181818;stroke-width:1.0;" x1="477" x2="467" y1="271.6973" y2="267.6973"/><line style="stroke:#181818;stroke-width:1.0;" x1="477" x2="467" y1="271.6973" y2="275.6973"/><line style="stroke:#181818;stroke-width:1.0;" x1="60" x2="478" y1="271.6973" y2="271.6973"/><text fill="#000000" font-family="sans-serif" font-size="13" lengthAdjust="spacing" textLength="130" x="67" y="266.4346">drawCard(drawSource)</text><path d="M18,286.6973 L79,286.6973 L79,295.9883 L69,305.9883 L18,305.9883 L18,286.6973 " fill="#EEEEEE" style="stroke:#000000;stroke-width:1.5;"/><rect fill="none" height="423.4141" style="stroke:#000000;stroke-width:1.5;" width="939" x="18" y="286.6973"/><text fill="#000000" font-family="sans-serif" font-size="13" font-weight="bold" lengthAdjust="spacing" textLength="16" x="33" y="301.7256">alt</text><line style="stroke:#181818;stroke-width:1.0;" x1="61" x2="71" y1="329.2793" y2="325.2793"/><line style="stroke:#181818;stroke-width:1.0;" x1="61" x2="71" y1="329.2793" y2="333.2793"/><line style="stroke:#181818;stroke-width:1.0;" x1="60" x2="478" y1="329.2793" y2="329.2793"/><text fill="#000000" font-family="sans-serif" font-size="13" lengthAdjust="spacing" textLength="338" x="77" y="324.0166">updateDecksStatus(resourceDeckColor, goldenDeckColor)</text><line style="stroke:#181818;stroke-width:1.0;" x1="896" x2="886" y1="360.5703" y2="356.5703"/><line style="stroke:#181818;stroke-width:1.0;" x1="896" x2="886" y1="360.5703" y2="364.5703"/><line style="stroke:#181818;stroke-width:1.0;" x1="479" x2="897" y1="360.5703" y2="360.5703"/><text fill="#000000" font-family="sans-serif" font-size="13" lengthAdjust="spacing" textLength="338" x="486" y="355.3076">updateDecksStatus(resourceDeckColor, goldenDeckColor)</text><path d="M28,375.5703 L93,375.5703 L93,384.8613 L83,394.8613 L28,394.8613 L28,375.5703 " fill="#EEEEEE" style="stroke:#000000;stroke-width:1.5;"/><rect fill="none" height="81.873" style="stroke:#000000;stroke-width:1.5;" width="899.5" x="28" y="375.5703"/><text fill="#000000" font-family="sans-serif" font-size="13" font-weight="bold" lengthAdjust="spacing" textLength="20" x="43" y="390.5986">opt</text><text fill="#000000" font-family="sans-serif" font-size="11" font-weight="bold" lengthAdjust="spacing" textLength="182" x="108" y="389.4404">[player has drawn a face up card]</text><line style="stroke:#181818;stroke-width:1.0;" x1="61" x2="71" y1="418.1523" y2="414.1523"/><line style="stroke:#181818;stroke-width:1.0;" x1="61" x2="71" y1="418.1523" y2="422.1523"/><line style="stroke:#181818;stroke-width:1.0;" x1="60" x2="478" y1="418.1523" y2="418.1523"/><text fill="#000000" font-family="sans-serif" font-size="13" lengthAdjust="spacing" textLength="278" x="77" y="412.8896">updateFaceUpCards(card1, card2, card3, card4)</text><line style="stroke:#181818;stroke-width:1.0;" x1="896" x2="886" y1="449.4434" y2="445.4434"/><line style="stroke:#181818;stroke-width:1.0;" x1="896" x2="886" y1="449.4434" y2="453.4434"/><line style="stroke:#181818;stroke-width:1.0;" x1="479" x2="897" y1="449.4434" y2="449.4434"/><text fill="#000000" font-family="sans-serif" font-size="13" lengthAdjust="spacing" textLength="278" x="486" y="444.1807">updateFaceUpCards(card1, card2, card3, card4)</text><path d="M28,471.4434 L89,471.4434 L89,480.7344 L79,490.7344 L28,490.7344 L28,471.4434 " fill="#EEEEEE" style="stroke:#000000;stroke-width:1.5;"/><rect fill="none" height="146.4551" style="stroke:#000000;stroke-width:1.5;" width="899.5" x="28" y="471.4434"/><text fill="#000000" font-family="sans-serif" font-size="13" font-weight="bold" lengthAdjust="spacing" textLength="16" x="43" y="486.4717">alt</text><text fill="#000000" font-family="sans-serif" font-size="11" font-weight="bold" lengthAdjust="spacing" textLength="415" x="104" y="485.3135">[currentPlayer is the last player and someone reached an ending condition]</text><line style="stroke:#181818;stroke-width:1.0;" x1="61" x2="71" y1="514.0254" y2="510.0254"/><line style="stroke:#181818;stroke-width:1.0;" x1="61" x2="71" y1="514.0254" y2="518.0254"/><line style="stroke:#181818;stroke-width:1.0;" x1="60" x2="478" y1="514.0254" y2="514.0254"/><text fill="#000000" font-family="sans-serif" font-size="13" lengthAdjust="spacing" textLength="164" x="77" y="508.7627">updateGameStatusAndTurn(</text><text fill="#000000" font-family="monospace" font-size="13" font-weight="bold" lengthAdjust="spacing" textLength="76" x="241" y="508.7627">LAST_TURN</text><text fill="#000000" font-family="sans-serif" font-size="13" lengthAdjust="spacing" textLength="4" x="317" y="508.7627">,</text><text fill="#000000" font-family="monospace" font-size="13" font-weight="bold" lengthAdjust="spacing" textLength="58" x="325" y="508.7627">PLACING</text><text fill="#000000" font-family="sans-serif" font-size="13" lengthAdjust="spacing" textLength="89" x="383" y="508.7627">, currentPlayer)</text><line style="stroke:#181818;stroke-width:1.0;" x1="896" x2="886" y1="545.3164" y2="541.3164"/><line style="stroke:#181818;stroke-width:1.0;" x1="896" x2="886" y1="545.3164" y2="549.3164"/><line style="stroke:#181818;stroke-width:1.0;" x1="479" x2="897" y1="545.3164" y2="545.3164"/><text fill="#000000" font-family="sans-serif" font-size="13" lengthAdjust="spacing" textLength="164" x="486" y="540.0537">updateGameStatusAndTurn(</text><text fill="#000000" font-family="monospace" font-size="13" font-weight="bold" lengthAdjust="spacing" textLength="76" x="650" y="540.0537">LAST_TURN</text><text fill="#000000" font-family="sans-serif" font-size="13" lengthAdjust="spacing" textLength="4" x="726" y="540.0537">,</text><text fill="#000000" font-family="monospace" font-size="13" font-weight="bold" lengthAdjust="spacing" textLength="58" x="734" y="540.0537">PLACING</text><text fill="#000000" font-family="sans-serif" font-size="13" lengthAdjust="spacing" textLength="89" x="792" y="540.0537">, currentPlayer)</text><line style="stroke:#000000;stroke-width:1.0;stroke-dasharray:2.0,2.0;" x1="28" x2="927.5" y1="554.3164" y2="554.3164"/><line style="stroke:#181818;stroke-width:1.0;" x1="61" x2="71" y1="578.6074" y2="574.6074"/><line style="stroke:#181818;stroke-width:1.0;" x1="61" x2="71" y1="578.6074" y2="582.6074"/><line style="stroke:#181818;stroke-width:1.0;" x1="60" x2="478" y1="578.6074" y2="578.6074"/><text fill="#000000" font-family="sans-serif" font-size="13" lengthAdjust="spacing" textLength="164" x="77" y="573.3447">updateGameStatusAndTurn(</text><text fill="#000000" font-family="monospace" font-size="13" font-weight="bold" lengthAdjust="spacing" textLength="34" x="241" y="573.3447">PLAY</text><text fill="#000000" font-family="sans-serif" font-size="13" lengthAdjust="spacing" textLength="4" x="275" y="573.3447">,</text><text fill="#000000" font-family="monospace" font-size="13" font-weight="bold" lengthAdjust="spacing" textLength="58" x="283" y="573.3447">PLACING</text><text fill="#000000" font-family="sans-serif" font-size="13" lengthAdjust="spacing" textLength="89" x="341" y="573.3447">, currentPlayer)</text><line style="stroke:#181818;stroke-width:1.0;" x1="896" x2="886" y1="609.8984" y2="605.8984"/><line style="stroke:#181818;stroke-width:1.0;" x1="896" x2="886" y1="609.8984" y2="613.8984"/><line style="stroke:#181818;stroke-width:1.0;" x1="479" x2="897" y1="609.8984" y2="609.8984"/><text fill="#000000" font-family="sans-serif" font-size="13" lengthAdjust="spacing" textLength="164" x="486" y="604.6357">updateGameStatusAndTurn(</text><text fill="#000000" font-family="monospace" font-size="13" font-weight="bold" lengthAdjust="spacing" textLength="34" x="650" y="604.6357">PLAY</text><text fill="#000000" font-family="sans-serif" font-size="13" lengthAdjust="spacing" textLength="4" x="684" y="604.6357">,</text><text fill="#000000" font-family="monospace" font-size="13" font-weight="bold" lengthAdjust="spacing" textLength="58" x="692" y="604.6357">PLACING</text><text fill="#000000" font-family="sans-serif" font-size="13" lengthAdjust="spacing" textLength="89" x="750" y="604.6357">, currentPlayer)</text><path d="M848,629.8984 L848,656.8984 L947,656.8984 L947,639.8984 L937,629.8984 L848,629.8984 " fill="#FEFFDD" style="stroke:#181818;stroke-width:0.5;"/><path d="M937,629.8984 L937,639.8984 L947,639.8984 L937,629.8984 " fill="#FEFFDD" style="stroke:#181818;stroke-width:0.5;"/><text fill="#000000" font-family="sans-serif" font-size="13" lengthAdjust="spacing" textLength="78" x="854" y="648.9268">It's Bob's turn</text><line style="stroke:#000000;stroke-width:1.0;stroke-dasharray:2.0,2.0;" x1="18" x2="957" y1="663.1895" y2="663.1895"/><text fill="#000000" font-family="sans-serif" font-size="11" font-weight="bold" lengthAdjust="spacing" textLength="98" x="23" y="675.0596">[source is empty]</text><line style="stroke:#181818;stroke-width:1.0;" x1="61" x2="71" y1="702.1113" y2="698.1113"/><line style="stroke:#181818;stroke-width:1.0;" x1="61" x2="71" y1="702.1113" y2="706.1113"/><line style="stroke:#181818;stroke-width:1.0;" x1="60" x2="478" y1="702.1113" y2="702.1113"/><text fill="#000000" font-family="sans-serif" font-size="13" lengthAdjust="spacing" textLength="112" x="77" y="696.8486">KO, emptySource()</text><!--SRC=[bLJVRzem47xtNt4WfWM9Rk-eLCfWGrKxYWZLrAV8Swx5ch5TssbL2VLlxyKk0KOxTNc9VR- -xxwxfEC3Ty7Nls6UBvO5wqWjL5qXu0FguB_OUgqOwrXd15QrG-XLZZ-EkQjAX_TPJoX9SGFeUNGFw4P5VFKPqFFgX9Epiwr_2Dlqh3aKfdO2-wo3kceXteNpvTL5rfDwojVuDcBdrZZaOjL2ImsVl5Ko-E1sgTtdRehVPtbwUh9ZMTkA1voW-EEBm4FjCuAFP1lRs2ZZ1d1dL8MwDRnIe5Q8nL5BT2ML6GioA8G9TGKS13N6B0r02cavaSYL57XWIUqTcBuPghFI9Y0OygKa6CBvh9pcFx-phx3dfE0z5tiZYrJowVRPGwYTPYmEl_HuNsfyJ0BakbgIB-lvU1tDB_CR6a8JFrznZwFkP97_EfzDksHDGe-wiUepKI2zsMQpOUnmVQA_pxWAQM7-7lP1WIR2s01MyIVYJw1ncJJfUCkfbTecFTl1xhf8u_n1KTUsgU-FAzDyM3mG6H2rSvGxJqWaJrWXAEvRSAuhy6QDHYF4ZSEAR4qHgUz067e7QNJBvGE2NkR5ibnUBsQ7gfBEut-e6eihZ_-3T3owZu3efEpHPWNQ6ZfkTwSX0-bJQOJ3jGrFCJ4jSlmPnDf3kBWQ97_w3MHzre2y0000]--></g></svg>