<?xml version="1.0" encoding="us-ascii" standalone="no"?><svg xmlns="http://www.w3.org/2000/svg" xmlns:xlink="http://www.w3.org/1999/xlink" contentStyleType="text/css" height="750px" preserveAspectRatio="none" style="width:1229px;height:750px;background:#FFFFFF;" version="1.1" viewBox="0 0 1229 750" width="1229px" zoomAndPan="magnify"><defs/><g><text fill="#000000" font-family="sans-serif" font-size="14" font-weight="bold" lengthAdjust="spacing" textLength="106" x="563" y="30.1074">Joining a game</text><rect fill="none" height="531.8887" style="stroke:#000000;stroke-width:1.5;" width="1195" x="18" y="163.8242"/><rect fill="none" height="273.5898" style="stroke:#000000;stroke-width:1.5;" width="1175.5" x="27.5" y="319.2793"/><rect fill="none" height="129.7949" style="stroke:#000000;stroke-width:1.5;" width="1155.5" x="37.5" y="456.0742"/><line style="stroke:#181818;stroke-width:0.5;stroke-dasharray:5.0,5.0;" x1="69.5" x2="69.5" y1="78.2422" y2="712.7129"/><line style="stroke:#181818;stroke-width:0.5;stroke-dasharray:5.0,5.0;" x1="616.5" x2="616.5" y1="78.2422" y2="712.7129"/><line style="stroke:#181818;stroke-width:0.5;stroke-dasharray:5.0,5.0;" x1="1163" x2="1163" y1="78.2422" y2="712.7129"/><rect fill="#E2E2F0" height="32.6211" rx="2.5" ry="2.5" style="stroke:#181818;stroke-width:0.5;" width="44" x="47.5" y="44.6211"/><text fill="#000000" font-family="sans-serif" font-size="14" lengthAdjust="spacing" textLength="30" x="54.5" y="66.7285">Alice</text><rect fill="#E2E2F0" height="32.6211" rx="2.5" ry="2.5" style="stroke:#181818;stroke-width:0.5;" width="44" x="47.5" y="711.7129"/><text fill="#000000" font-family="sans-serif" font-size="14" lengthAdjust="spacing" textLength="30" x="54.5" y="733.8203">Alice</text><rect fill="#E2E2F0" height="32.6211" rx="2.5" ry="2.5" style="stroke:#181818;stroke-width:0.5;" width="56" x="588.5" y="44.6211"/><text fill="#000000" font-family="sans-serif" font-size="14" lengthAdjust="spacing" textLength="42" x="595.5" y="66.7285">Server</text><rect fill="#E2E2F0" height="32.6211" rx="2.5" ry="2.5" style="stroke:#181818;stroke-width:0.5;" width="56" x="588.5" y="711.7129"/><text fill="#000000" font-family="sans-serif" font-size="14" lengthAdjust="spacing" textLength="42" x="595.5" y="733.8203">Server</text><rect fill="#E2E2F0" height="32.6211" rx="2.5" ry="2.5" style="stroke:#181818;stroke-width:0.5;" width="39" x="1144" y="44.6211"/><text fill="#000000" font-family="sans-serif" font-size="14" lengthAdjust="spacing" textLength="25" x="1151" y="66.7285">Bob</text><rect fill="#E2E2F0" height="32.6211" rx="2.5" ry="2.5" style="stroke:#181818;stroke-width:0.5;" width="39" x="1144" y="711.7129"/><text fill="#000000" font-family="sans-serif" font-size="14" lengthAdjust="spacing" textLength="25" x="1151" y="733.8203">Bob</text><path d="M503,93.2422 L503,120.2422 L729,120.2422 L729,103.2422 L719,93.2422 L503,93.2422 " fill="#FEFFDD" style="stroke:#181818;stroke-width:0.5;"/><path d="M719,93.2422 L719,103.2422 L729,103.2422 L719,93.2422 " fill="#FEFFDD" style="stroke:#181818;stroke-width:0.5;"/><text fill="#000000" font-family="sans-serif" font-size="13" lengthAdjust="spacing" textLength="205" x="509" y="112.2705">There is a previously created game.</text><polygon fill="#FEFFDD" points="15,93.2422,124,93.2422,134,105.2422,124,118.2422,15,118.2422,5,105.2422,15,93.2422" style="stroke:#181818;stroke-width:0.5;"/><text fill="#000000" font-family="sans-serif" font-size="13" lengthAdjust="spacing" textLength="105" x="17" y="111.2705">AUTHENTICATED</text><polygon fill="#FEFFDD" points="1109,93.2422,1218,93.2422,1228,105.2422,1218,118.2422,1109,118.2422,1099,105.2422,1109,93.2422" style="stroke:#181818;stroke-width:0.5;"/><text fill="#000000" font-family="sans-serif" font-size="13" lengthAdjust="spacing" textLength="105" x="1111" y="111.2705">AUTHENTICATED</text><line style="stroke:#181818;stroke-width:1.0;" x1="614.5" x2="604.5" y1="148.8242" y2="144.8242"/><line style="stroke:#181818;stroke-width:1.0;" x1="614.5" x2="604.5" y1="148.8242" y2="152.8242"/><line style="stroke:#181818;stroke-width:1.0;" x1="69.5" x2="615.5" y1="148.8242" y2="148.8242"/><text fill="#000000" font-family="sans-serif" font-size="13" lengthAdjust="spacing" textLength="107" x="76.5" y="143.5615">joinGame(gameID)</text><path d="M18,163.8242 L79,163.8242 L79,173.1152 L69,183.1152 L18,183.1152 L18,163.8242 " fill="#EEEEEE" style="stroke:#000000;stroke-width:1.5;"/><rect fill="none" height="531.8887" style="stroke:#000000;stroke-width:1.5;" width="1195" x="18" y="163.8242"/><text fill="#000000" font-family="sans-serif" font-size="13" font-weight="bold" lengthAdjust="spacing" textLength="16" x="33" y="178.8525">alt</text><line style="stroke:#181818;stroke-width:1.0;" x1="70.5" x2="80.5" y1="206.4063" y2="202.4063"/><line style="stroke:#181818;stroke-width:1.0;" x1="70.5" x2="80.5" y1="206.4063" y2="210.4063"/><line style="stroke:#181818;stroke-width:1.0;" x1="69.5" x2="615.5" y1="206.4063" y2="206.4063"/><text fill="#000000" font-family="sans-serif" font-size="13" lengthAdjust="spacing" textLength="116" x="86.5" y="201.1436">updateGameStatus(</text><text fill="#000000" font-family="monospace" font-size="13" font-weight="bold" lengthAdjust="spacing" textLength="133" x="202.5" y="201.1436">AWAITING_PLAYERS</text><text fill="#000000" font-family="sans-serif" font-size="13" lengthAdjust="spacing" textLength="4" x="335.5" y="201.1436">)</text><polygon fill="#FEFFDD" points="38,219.4063,100,219.4063,110,231.4063,100,244.4063,38,244.4063,28,231.4063,38,219.4063" style="stroke:#181818;stroke-width:0.5;"/><text fill="#000000" font-family="sans-serif" font-size="13" lengthAdjust="spacing" textLength="58" x="40" y="237.4346">IN_GAME</text><line style="stroke:#181818;stroke-width:1.0;" x1="70.5" x2="80.5" y1="272.9883" y2="268.9883"/><line style="stroke:#181818;stroke-width:1.0;" x1="70.5" x2="80.5" y1="272.9883" y2="276.9883"/><line style="stroke:#181818;stroke-width:1.0;" x1="69.5" x2="615.5" y1="272.9883" y2="272.9883"/><text fill="#000000" font-family="sans-serif" font-size="13" lengthAdjust="spacing" textLength="217" x="86.5" y="267.7256">updatePlayerList(player1, player2, ...)</text><line style="stroke:#181818;stroke-width:1.0;" x1="1161.5" x2="1151.5" y1="304.2793" y2="300.2793"/><line style="stroke:#181818;stroke-width:1.0;" x1="1161.5" x2="1151.5" y1="304.2793" y2="308.2793"/><line style="stroke:#181818;stroke-width:1.0;" x1="616.5" x2="1162.5" y1="304.2793" y2="304.2793"/><text fill="#000000" font-family="sans-serif" font-size="13" lengthAdjust="spacing" textLength="263" x="623.5" y="299.0166">updateGameList(gameData1, gameData2, ...)</text><path d="M27.5,319.2793 L92.5,319.2793 L92.5,328.5703 L82.5,338.5703 L27.5,338.5703 L27.5,319.2793 " fill="#EEEEEE" style="stroke:#000000;stroke-width:1.5;"/><rect fill="none" height="273.5898" style="stroke:#000000;stroke-width:1.5;" width="1175.5" x="27.5" y="319.2793"/><text fill="#000000" font-family="sans-serif" font-size="13" font-weight="bold" lengthAdjust="spacing" textLength="20" x="42.5" y="334.3076">opt</text><text fill="#000000" font-family="sans-serif" font-size="11" font-weight="bold" lengthAdjust="spacing" textLength="130" x="107.5" y="333.1494">[all players have joined]</text><line style="stroke:#181818;stroke-width:1.0;" x1="70.5" x2="80.5" y1="361.8613" y2="357.8613"/><line style="stroke:#181818;stroke-width:1.0;" x1="70.5" x2="80.5" y1="361.8613" y2="365.8613"/><line style="stroke:#181818;stroke-width:1.0;" x1="69.5" x2="615.5" y1="361.8613" y2="361.8613"/><text fill="#000000" font-family="sans-serif" font-size="13" lengthAdjust="spacing" textLength="245" x="86.5" y="356.5986">updateGameStatusAndSetupStartingCard(</text><text fill="#000000" font-family="monospace" font-size="13" font-weight="bold" lengthAdjust="spacing" textLength="196" x="331.5" y="356.5986">SETUP_STARTING_CARD_SIDE</text><text fill="#000000" font-family="sans-serif" font-size="13" lengthAdjust="spacing" textLength="82" x="527.5" y="356.5986">, startingCard)</text><line style="stroke:#181818;stroke-width:1.0;" x1="1161.5" x2="1151.5" y1="393.1523" y2="389.1523"/><line style="stroke:#181818;stroke-width:1.0;" x1="1161.5" x2="1151.5" y1="393.1523" y2="397.1523"/><line style="stroke:#181818;stroke-width:1.0;" x1="616.5" x2="1162.5" y1="393.1523" y2="393.1523"/><text fill="#000000" font-family="sans-serif" font-size="13" lengthAdjust="spacing" textLength="245" x="623.5" y="387.8896">updateGameStatusAndSetupStartingCard(</text><text fill="#000000" font-family="monospace" font-size="13" font-weight="bold" lengthAdjust="spacing" textLength="196" x="868.5" y="387.8896">SETUP_STARTING_CARD_SIDE</text><text fill="#000000" font-family="sans-serif" font-size="13" lengthAdjust="spacing" textLength="82" x="1064.5" y="387.8896">, startingCard)</text><line style="stroke:#000000;stroke-width:1.0;stroke-dasharray:2.0,2.0;" x1="27.5" x2="1203" y1="402.1523" y2="402.1523"/><text fill="#000000" font-family="sans-serif" font-size="11" font-weight="bold" lengthAdjust="spacing" textLength="226" x="32.5" y="414.0225">[someone wants to start the game early]</text><line style="stroke:#181818;stroke-width:1.0;" x1="614.5" x2="604.5" y1="441.0742" y2="437.0742"/><line style="stroke:#181818;stroke-width:1.0;" x1="614.5" x2="604.5" y1="441.0742" y2="445.0742"/><line style="stroke:#181818;stroke-width:1.0;" x1="69.5" x2="615.5" y1="441.0742" y2="441.0742"/><text fill="#000000" font-family="sans-serif" font-size="13" lengthAdjust="spacing" textLength="69" x="76.5" y="435.8115">startGame()</text><path d="M37.5,456.0742 L98.5,456.0742 L98.5,465.3652 L88.5,475.3652 L37.5,475.3652 L37.5,456.0742 " fill="#EEEEEE" style="stroke:#000000;stroke-width:1.5;"/><rect fill="none" height="129.7949" style="stroke:#000000;stroke-width:1.5;" width="1155.5" x="37.5" y="456.0742"/><text fill="#000000" font-family="sans-serif" font-size="13" font-weight="bold" lengthAdjust="spacing" textLength="16" x="52.5" y="471.1025">alt</text><text fill="#000000" font-family="sans-serif" font-size="11" font-weight="bold" lengthAdjust="spacing" textLength="170" x="113.5" y="469.9443">[there are at least two players]</text><line style="stroke:#181818;stroke-width:1.0;" x1="70.5" x2="80.5" y1="498.6563" y2="494.6563"/><line style="stroke:#181818;stroke-width:1.0;" x1="70.5" x2="80.5" y1="498.6563" y2="502.6563"/><line style="stroke:#181818;stroke-width:1.0;" x1="69.5" x2="615.5" y1="498.6563" y2="498.6563"/><text fill="#000000" font-family="sans-serif" font-size="13" lengthAdjust="spacing" textLength="245" x="86.5" y="493.3936">updateGameStatusAndSetupStartingCard(</text><text fill="#000000" font-family="monospace" font-size="13" font-weight="bold" lengthAdjust="spacing" textLength="196" x="331.5" y="493.3936">SETUP_STARTING_CARD_SIDE</text><text fill="#000000" font-family="sans-serif" font-size="13" lengthAdjust="spacing" textLength="82" x="527.5" y="493.3936">, startingCard)</text><line style="stroke:#181818;stroke-width:1.0;" x1="1161.5" x2="1151.5" y1="529.9473" y2="525.9473"/><line style="stroke:#181818;stroke-width:1.0;" x1="1161.5" x2="1151.5" y1="529.9473" y2="533.9473"/><line style="stroke:#181818;stroke-width:1.0;" x1="616.5" x2="1162.5" y1="529.9473" y2="529.9473"/><text fill="#000000" font-family="sans-serif" font-size="13" lengthAdjust="spacing" textLength="245" x="623.5" y="524.6846">updateGameStatusAndSetupStartingCard(</text><text fill="#000000" font-family="monospace" font-size="13" font-weight="bold" lengthAdjust="spacing" textLength="196" x="868.5" y="524.6846">SETUP_STARTING_CARD_SIDE</text><text fill="#000000" font-family="sans-serif" font-size="13" lengthAdjust="spacing" textLength="82" x="1064.5" y="524.6846">, startingCard)</text><line style="stroke:#000000;stroke-width:1.0;stroke-dasharray:2.0,2.0;" x1="37.5" x2="1193" y1="538.9473" y2="538.9473"/><text fill="#000000" font-family="sans-serif" font-size="11" font-weight="bold" lengthAdjust="spacing" textLength="136" x="42.5" y="550.8174">[there is just one player]</text><line style="stroke:#181818;stroke-width:1.0;" x1="70.5" x2="80.5" y1="577.8691" y2="573.8691"/><line style="stroke:#181818;stroke-width:1.0;" x1="70.5" x2="80.5" y1="577.8691" y2="581.8691"/><line style="stroke:#181818;stroke-width:1.0;" x1="69.5" x2="615.5" y1="577.8691" y2="577.8691"/><text fill="#000000" font-family="sans-serif" font-size="13" lengthAdjust="spacing" textLength="140" x="86.5" y="572.6064">KO, insufficientPlayers()</text><line style="stroke:#000000;stroke-width:1.0;stroke-dasharray:2.0,2.0;" x1="18" x2="1213" y1="600.8691" y2="600.8691"/><text fill="#000000" font-family="sans-serif" font-size="11" font-weight="bold" lengthAdjust="spacing" textLength="121" x="23" y="612.7393">[game does not exist]</text><line style="stroke:#181818;stroke-width:1.0;" x1="70.5" x2="80.5" y1="639.791" y2="635.791"/><line style="stroke:#181818;stroke-width:1.0;" x1="70.5" x2="80.5" y1="639.791" y2="643.791"/><line style="stroke:#181818;stroke-width:1.0;" x1="69.5" x2="615.5" y1="639.791" y2="639.791"/><text fill="#000000" font-family="sans-serif" font-size="13" lengthAdjust="spacing" textLength="167" x="86.5" y="634.5283">KO, gameNotFound(gameID)</text><line style="stroke:#000000;stroke-width:1.0;stroke-dasharray:2.0,2.0;" x1="18" x2="1213" y1="648.791" y2="648.791"/><text fill="#000000" font-family="sans-serif" font-size="11" font-weight="bold" lengthAdjust="spacing" textLength="148" x="23" y="660.6611">[game has already started]</text><line style="stroke:#181818;stroke-width:1.0;" x1="70.5" x2="80.5" y1="687.7129" y2="683.7129"/><line style="stroke:#181818;stroke-width:1.0;" x1="70.5" x2="80.5" y1="687.7129" y2="691.7129"/><line style="stroke:#181818;stroke-width:1.0;" x1="69.5" x2="615.5" y1="687.7129" y2="687.7129"/><text fill="#000000" font-family="sans-serif" font-size="13" lengthAdjust="spacing" textLength="197" x="86.5" y="682.4502">KO, gameAlreadyStarted(gameID)</text><!--SRC=[fLHHJ-9047xVNp4GBu44DVf8aAGddCVf0R4rbtjgbdQGDKktThSeB_xsczssG14zZIJGq9tzlfdvlfc6DZmpEf_1rBiDVDOGIIJp605Nc1XzakPBoLWZpLI4SPuX73qeaLpn9OOPFhQE8YaehWD76hCLPXU-UxGPqASyXED-lpg7BbJtM_VqCngqMGEJU8F_9fSE9zUxT8QRNB_Fs-iTL-TToDEO6xHWlhlQwirLOhfBbIYTyWZxlLc_HEsTplgzKtlSBm0NYJ88okPVONTXD0wllD_33wT_FGbjnMDbVgWyYJ_Mkbe9rvCEr20-sy4o1KzcoEErRvN7hoIo1_IPT3G-rWLLkT4YTW9TD9lqGYJr_uKs5zuVRnICnbVXzCRxExpr3wVz7viU27hVNsrMt6ZC5PKSBQWlPo0I-APJAOmsMMidtmuqNvebXQDninGM3fnAliRiHcX3R6TbbEqO8RycETyZsUdIkomseEGut-FOLuV-qlWpPeIH2B-e8oAv1-u4PYafAoAHShA09qLKVrDqlFRgkvgnxRIK0PO-M20PG6X2JZDS2PLhkOQ82YNhEB8JHgdOk-nqT-8SBSsRTnVy78w3qQKN30Vr429z5S3g3d0eRSQbOGULT-STs7TNEGHl25Y2ljrzIgmuLga1BYMaxhA61L-XsuGORnGi4EnW9FXKBAdG7mPtqz0FQ3VRh2wzsq7eZmR3LjDnln11wG6K6a6h9Qe4uOcaq60KkEqEPe6kmu0ya-iDOT5PkvtzQZcxUBUTjywYdba4Ke_Rhm69NDEh9rMLipNXbylOb68glppaH6QBAiXgN4K5TZVvEwk99Z6VpycHb4YXbjufXqp6ggTZSfs95MeWHm4-at07FBA_laljjmWBJjuk5cBHnbBQZwpW2Yo9_m40]--></g></svg>