<?xml version="1.0" encoding="us-ascii" standalone="no"?><svg xmlns="http://www.w3.org/2000/svg" xmlns:xlink="http://www.w3.org/1999/xlink" contentStyleType="text/css" height="1122px" preserveAspectRatio="none" style="width:1138px;height:1122px;background:#FFFFFF;" version="1.1" viewBox="0 0 1138 1122" width="1138px" zoomAndPan="magnify"><defs/><g><text fill="#000000" font-family="sans-serif" font-size="14" font-weight="bold" lengthAdjust="spacing" textLength="85" x="527.5" y="30.1074">Place a card</text><rect fill="none" height="750.0234" style="stroke:#000000;stroke-width:1.5;" width="1121" x="10" y="317.9883"/><rect fill="none" height="462.4629" style="stroke:#000000;stroke-width:1.5;" width="1101" x="20" y="406.8613"/><line style="stroke:#181818;stroke-width:0.5;stroke-dasharray:5.0,5.0;" x1="94.5" x2="94.5" y1="78.2422" y2="1085.0117"/><line style="stroke:#181818;stroke-width:0.5;stroke-dasharray:5.0,5.0;" x1="570.5" x2="570.5" y1="78.2422" y2="1085.0117"/><line style="stroke:#181818;stroke-width:0.5;stroke-dasharray:5.0,5.0;" x1="1046" x2="1046" y1="78.2422" y2="1085.0117"/><rect fill="#E2E2F0" height="32.6211" rx="2.5" ry="2.5" style="stroke:#181818;stroke-width:0.5;" width="44" x="72.5" y="44.6211"/><text fill="#000000" font-family="sans-serif" font-size="14" lengthAdjust="spacing" textLength="30" x="79.5" y="66.7285">Alice</text><rect fill="#E2E2F0" height="32.6211" rx="2.5" ry="2.5" style="stroke:#181818;stroke-width:0.5;" width="44" x="72.5" y="1084.0117"/><text fill="#000000" font-family="sans-serif" font-size="14" lengthAdjust="spacing" textLength="30" x="79.5" y="1106.1191">Alice</text><rect fill="#E2E2F0" height="32.6211" rx="2.5" ry="2.5" style="stroke:#181818;stroke-width:0.5;" width="56" x="542.5" y="44.6211"/><text fill="#000000" font-family="sans-serif" font-size="14" lengthAdjust="spacing" textLength="42" x="549.5" y="66.7285">Server</text><rect fill="#E2E2F0" height="32.6211" rx="2.5" ry="2.5" style="stroke:#181818;stroke-width:0.5;" width="56" x="542.5" y="1084.0117"/><text fill="#000000" font-family="sans-serif" font-size="14" lengthAdjust="spacing" textLength="42" x="549.5" y="1106.1191">Server</text><rect fill="#E2E2F0" height="32.6211" rx="2.5" ry="2.5" style="stroke:#181818;stroke-width:0.5;" width="39" x="1027" y="44.6211"/><text fill="#000000" font-family="sans-serif" font-size="14" lengthAdjust="spacing" textLength="25" x="1034" y="66.7285">Bob</text><rect fill="#E2E2F0" height="32.6211" rx="2.5" ry="2.5" style="stroke:#181818;stroke-width:0.5;" width="39" x="1027" y="1084.0117"/><text fill="#000000" font-family="sans-serif" font-size="14" lengthAdjust="spacing" textLength="25" x="1034" y="1106.1191">Bob</text><polygon fill="#FEFFDD" points="63,93.2422,125,93.2422,135,105.2422,125,118.2422,63,118.2422,53,105.2422,63,93.2422" style="stroke:#181818;stroke-width:0.5;"/><text fill="#000000" font-family="sans-serif" font-size="13" lengthAdjust="spacing" textLength="58" x="65" y="111.2705">IN_GAME</text><polygon fill="#FEFFDD" points="1015,93.2422,1077,93.2422,1087,105.2422,1077,118.2422,1015,118.2422,1005,105.2422,1015,93.2422" style="stroke:#181818;stroke-width:0.5;"/><text fill="#000000" font-family="sans-serif" font-size="13" lengthAdjust="spacing" textLength="58" x="1017" y="111.2705">IN_GAME</text><line style="stroke:#181818;stroke-width:1.0;" x1="95.5" x2="105.5" y1="146.8242" y2="142.8242"/><line style="stroke:#181818;stroke-width:1.0;" x1="95.5" x2="105.5" y1="146.8242" y2="150.8242"/><line style="stroke:#181818;stroke-width:1.0;" x1="94.5" x2="569.5" y1="146.8242" y2="146.8242"/><text fill="#000000" font-family="sans-serif" font-size="13" lengthAdjust="spacing" textLength="164" x="111.5" y="141.5615">updateGameStatusAndTurn(</text><text fill="#000000" font-family="monospace" font-size="13" font-weight="bold" lengthAdjust="spacing" textLength="34" x="275.5" y="141.5615">PLAY</text><text fill="#000000" font-family="sans-serif" font-size="13" lengthAdjust="spacing" textLength="4" x="309.5" y="141.5615">,</text><text fill="#000000" font-family="monospace" font-size="13" font-weight="bold" lengthAdjust="spacing" textLength="58" x="317.5" y="141.5615">PLACING</text><text fill="#000000" font-family="sans-serif" font-size="13" lengthAdjust="spacing" textLength="89" x="375.5" y="141.5615">, currentPlayer)</text><line style="stroke:#181818;stroke-width:1.0;" x1="1044.5" x2="1034.5" y1="178.1152" y2="174.1152"/><line style="stroke:#181818;stroke-width:1.0;" x1="1044.5" x2="1034.5" y1="178.1152" y2="182.1152"/><line style="stroke:#181818;stroke-width:1.0;" x1="570.5" x2="1045.5" y1="178.1152" y2="178.1152"/><text fill="#000000" font-family="sans-serif" font-size="13" lengthAdjust="spacing" textLength="164" x="577.5" y="172.8525">updateGameStatusAndTurn(</text><text fill="#000000" font-family="monospace" font-size="13" font-weight="bold" lengthAdjust="spacing" textLength="34" x="741.5" y="172.8525">PLAY</text><text fill="#000000" font-family="sans-serif" font-size="13" lengthAdjust="spacing" textLength="4" x="775.5" y="172.8525">,</text><text fill="#000000" font-family="monospace" font-size="13" font-weight="bold" lengthAdjust="spacing" textLength="58" x="783.5" y="172.8525">PLACING</text><text fill="#000000" font-family="sans-serif" font-size="13" lengthAdjust="spacing" textLength="89" x="841.5" y="172.8525">, currentPlayer)</text><line style="stroke:#181818;stroke-width:1.0;" x1="95.5" x2="105.5" y1="234.4063" y2="230.4063"/><line style="stroke:#181818;stroke-width:1.0;" x1="95.5" x2="105.5" y1="234.4063" y2="238.4063"/><line style="stroke:#181818;stroke-width:1.0;" x1="94.5" x2="569.5" y1="234.4063" y2="234.4063"/><text fill="#000000" font-family="sans-serif" font-size="13" lengthAdjust="spacing" textLength="255" x="111.5" y="229.1436">setPlayablePosition(position1, position2, ...)</text><path d="M52,247.4063 L52,274.4063 L137,274.4063 L137,257.4063 L127,247.4063 L52,247.4063 " fill="#FEFFDD" style="stroke:#181818;stroke-width:0.5;"/><path d="M127,247.4063 L127,257.4063 L137,257.4063 L127,247.4063 " fill="#FEFFDD" style="stroke:#181818;stroke-width:0.5;"/><text fill="#000000" font-family="sans-serif" font-size="13" lengthAdjust="spacing" textLength="64" x="58" y="266.4346">Alice's turn</text><line style="stroke:#181818;stroke-width:1.0;" x1="568.5" x2="558.5" y1="302.9883" y2="298.9883"/><line style="stroke:#181818;stroke-width:1.0;" x1="568.5" x2="558.5" y1="302.9883" y2="306.9883"/><line style="stroke:#181818;stroke-width:1.0;" x1="94.5" x2="569.5" y1="302.9883" y2="302.9883"/><text fill="#000000" font-family="sans-serif" font-size="13" lengthAdjust="spacing" textLength="153" x="101.5" y="297.7256">placeCard(cardPlacement)</text><path d="M10,317.9883 L71,317.9883 L71,327.2793 L61,337.2793 L10,337.2793 L10,317.9883 " fill="#EEEEEE" style="stroke:#000000;stroke-width:1.5;"/><rect fill="none" height="750.0234" style="stroke:#000000;stroke-width:1.5;" width="1121" x="10" y="317.9883"/><text fill="#000000" font-family="sans-serif" font-size="13" font-weight="bold" lengthAdjust="spacing" textLength="16" x="25" y="333.0166">alt</text><line style="stroke:#181818;stroke-width:1.0;" x1="95.5" x2="105.5" y1="360.5703" y2="356.5703"/><line style="stroke:#181818;stroke-width:1.0;" x1="95.5" x2="105.5" y1="360.5703" y2="364.5703"/><line style="stroke:#181818;stroke-width:1.0;" x1="94.5" x2="569.5" y1="360.5703" y2="360.5703"/><text fill="#000000" font-family="sans-serif" font-size="13" lengthAdjust="spacing" textLength="312" x="111.5" y="355.3076">updatePlayArea(currentPlayer, cardPlacement, score)</text><line style="stroke:#181818;stroke-width:1.0;" x1="1044.5" x2="1034.5" y1="391.8613" y2="387.8613"/><line style="stroke:#181818;stroke-width:1.0;" x1="1044.5" x2="1034.5" y1="391.8613" y2="395.8613"/><line style="stroke:#181818;stroke-width:1.0;" x1="570.5" x2="1045.5" y1="391.8613" y2="391.8613"/><text fill="#000000" font-family="sans-serif" font-size="13" lengthAdjust="spacing" textLength="312" x="577.5" y="386.5986">updatePlayArea(currentPlayer, cardPlacement, score)</text><path d="M20,406.8613 L81,406.8613 L81,416.1523 L71,426.1523 L20,426.1523 L20,406.8613 " fill="#EEEEEE" style="stroke:#000000;stroke-width:1.5;"/><rect fill="none" height="462.4629" style="stroke:#000000;stroke-width:1.5;" width="1101" x="20" y="406.8613"/><text fill="#000000" font-family="sans-serif" font-size="13" font-weight="bold" lengthAdjust="spacing" textLength="16" x="35" y="421.8896">alt</text><text fill="#000000" font-family="sans-serif" font-size="11" font-weight="bold" lengthAdjust="spacing" textLength="88" x="96" y="420.7314">[status is PLAY]</text><line style="stroke:#181818;stroke-width:1.0;" x1="95.5" x2="105.5" y1="449.4434" y2="445.4434"/><line style="stroke:#181818;stroke-width:1.0;" x1="95.5" x2="105.5" y1="449.4434" y2="453.4434"/><line style="stroke:#181818;stroke-width:1.0;" x1="94.5" x2="569.5" y1="449.4434" y2="449.4434"/><text fill="#000000" font-family="sans-serif" font-size="13" lengthAdjust="spacing" textLength="164" x="111.5" y="444.1807">updateGameStatusAndTurn(</text><text fill="#000000" font-family="monospace" font-size="13" font-weight="bold" lengthAdjust="spacing" textLength="34" x="275.5" y="444.1807">PLAY</text><text fill="#000000" font-family="sans-serif" font-size="13" lengthAdjust="spacing" textLength="4" x="309.5" y="444.1807">,</text><text fill="#000000" font-family="monospace" font-size="13" font-weight="bold" lengthAdjust="spacing" textLength="63" x="317.5" y="444.1807">DRAWING</text><text fill="#000000" font-family="sans-serif" font-size="13" lengthAdjust="spacing" textLength="89" x="380.5" y="444.1807">, currentPlayer)</text><line style="stroke:#181818;stroke-width:1.0;" x1="1044.5" x2="1034.5" y1="480.7344" y2="476.7344"/><line style="stroke:#181818;stroke-width:1.0;" x1="1044.5" x2="1034.5" y1="480.7344" y2="484.7344"/><line style="stroke:#181818;stroke-width:1.0;" x1="570.5" x2="1045.5" y1="480.7344" y2="480.7344"/><text fill="#000000" font-family="sans-serif" font-size="13" lengthAdjust="spacing" textLength="164" x="577.5" y="475.4717">updateGameStatusAndTurn(</text><text fill="#000000" font-family="monospace" font-size="13" font-weight="bold" lengthAdjust="spacing" textLength="34" x="741.5" y="475.4717">PLAY</text><text fill="#000000" font-family="sans-serif" font-size="13" lengthAdjust="spacing" textLength="4" x="775.5" y="475.4717">,</text><text fill="#000000" font-family="monospace" font-size="13" font-weight="bold" lengthAdjust="spacing" textLength="63" x="783.5" y="475.4717">DRAWING</text><text fill="#000000" font-family="sans-serif" font-size="13" lengthAdjust="spacing" textLength="89" x="846.5" y="475.4717">, currentPlayer)</text><path d="M30,493.7344 L30,520.7344 L159,520.7344 L159,503.7344 L149,493.7344 L30,493.7344 " fill="#FEFFDD" style="stroke:#181818;stroke-width:0.5;"/><path d="M149,493.7344 L149,503.7344 L159,503.7344 L149,493.7344 " fill="#FEFFDD" style="stroke:#181818;stroke-width:0.5;"/><text fill="#000000" font-family="sans-serif" font-size="13" lengthAdjust="spacing" textLength="108" x="36" y="512.7627">It's still Alice's turn</text><line style="stroke:#000000;stroke-width:1.0;stroke-dasharray:2.0,2.0;" x1="20" x2="1121" y1="552.0254" y2="552.0254"/><text fill="#000000" font-family="sans-serif" font-size="11" font-weight="bold" lengthAdjust="spacing" textLength="338" x="25" y="563.8955">[status is LAST_TURN and currentPlayer is not the last player]</text><line style="stroke:#181818;stroke-width:1.0;" x1="95.5" x2="105.5" y1="590.9473" y2="586.9473"/><line style="stroke:#181818;stroke-width:1.0;" x1="95.5" x2="105.5" y1="590.9473" y2="594.9473"/><line style="stroke:#181818;stroke-width:1.0;" x1="94.5" x2="569.5" y1="590.9473" y2="590.9473"/><text fill="#000000" font-family="sans-serif" font-size="13" lengthAdjust="spacing" textLength="164" x="111.5" y="585.6846">updateGameStatusAndTurn(</text><text fill="#000000" font-family="monospace" font-size="13" font-weight="bold" lengthAdjust="spacing" textLength="76" x="275.5" y="585.6846">LAST_TURN</text><text fill="#000000" font-family="sans-serif" font-size="13" lengthAdjust="spacing" textLength="4" x="351.5" y="585.6846">,</text><text fill="#000000" font-family="monospace" font-size="13" font-weight="bold" lengthAdjust="spacing" textLength="58" x="359.5" y="585.6846">PLACING</text><text fill="#000000" font-family="sans-serif" font-size="13" lengthAdjust="spacing" textLength="89" x="417.5" y="585.6846">, currentPlayer)</text><line style="stroke:#181818;stroke-width:1.0;" x1="1044.5" x2="1034.5" y1="622.2383" y2="618.2383"/><line style="stroke:#181818;stroke-width:1.0;" x1="1044.5" x2="1034.5" y1="622.2383" y2="626.2383"/><line style="stroke:#181818;stroke-width:1.0;" x1="570.5" x2="1045.5" y1="622.2383" y2="622.2383"/><text fill="#000000" font-family="sans-serif" font-size="13" lengthAdjust="spacing" textLength="164" x="577.5" y="616.9756">updateGameStatusAndTurn(</text><text fill="#000000" font-family="monospace" font-size="13" font-weight="bold" lengthAdjust="spacing" textLength="76" x="741.5" y="616.9756">LAST_TURN</text><text fill="#000000" font-family="sans-serif" font-size="13" lengthAdjust="spacing" textLength="4" x="817.5" y="616.9756">,</text><text fill="#000000" font-family="monospace" font-size="13" font-weight="bold" lengthAdjust="spacing" textLength="58" x="825.5" y="616.9756">PLACING</text><text fill="#000000" font-family="sans-serif" font-size="13" lengthAdjust="spacing" textLength="89" x="883.5" y="616.9756">, currentPlayer)</text><path d="M997,635.2383 L997,662.2383 L1096,662.2383 L1096,645.2383 L1086,635.2383 L997,635.2383 " fill="#FEFFDD" style="stroke:#181818;stroke-width:0.5;"/><path d="M1086,635.2383 L1086,645.2383 L1096,645.2383 L1086,635.2383 " fill="#FEFFDD" style="stroke:#181818;stroke-width:0.5;"/><text fill="#000000" font-family="sans-serif" font-size="13" lengthAdjust="spacing" textLength="78" x="1003" y="654.2666">It's Bob's turn</text><line style="stroke:#000000;stroke-width:1.0;stroke-dasharray:2.0,2.0;" x1="20" x2="1121" y1="693.5293" y2="693.5293"/><text fill="#000000" font-family="sans-serif" font-size="11" font-weight="bold" lengthAdjust="spacing" textLength="317" x="25" y="705.3994">[status is LAST_TURN and currentPlayer is the last player]</text><line style="stroke:#181818;stroke-width:1.0;" x1="95.5" x2="105.5" y1="732.4512" y2="728.4512"/><line style="stroke:#181818;stroke-width:1.0;" x1="95.5" x2="105.5" y1="732.4512" y2="736.4512"/><line style="stroke:#181818;stroke-width:1.0;" x1="94.5" x2="569.5" y1="732.4512" y2="732.4512"/><text fill="#000000" font-family="sans-serif" font-size="13" lengthAdjust="spacing" textLength="200" x="111.5" y="727.1885">updateGameStatusFinishedGame(</text><text fill="#000000" font-family="monospace" font-size="13" font-weight="bold" lengthAdjust="spacing" textLength="60" x="311.5" y="727.1885">FINISHED</text><text fill="#000000" font-family="sans-serif" font-size="13" lengthAdjust="spacing" textLength="192" x="371.5" y="727.1885">, playerScore1, playerScore2, ...)</text><line style="stroke:#181818;stroke-width:1.0;" x1="1044.5" x2="1034.5" y1="763.7422" y2="759.7422"/><line style="stroke:#181818;stroke-width:1.0;" x1="1044.5" x2="1034.5" y1="763.7422" y2="767.7422"/><line style="stroke:#181818;stroke-width:1.0;" x1="570.5" x2="1045.5" y1="763.7422" y2="763.7422"/><text fill="#000000" font-family="sans-serif" font-size="13" lengthAdjust="spacing" textLength="200" x="577.5" y="758.4795">updateGameStatusFinishedGame(</text><text fill="#000000" font-family="monospace" font-size="13" font-weight="bold" lengthAdjust="spacing" textLength="60" x="777.5" y="758.4795">FINISHED</text><text fill="#000000" font-family="sans-serif" font-size="13" lengthAdjust="spacing" textLength="192" x="837.5" y="758.4795">, playerScore1, playerScore2, ...)</text><path d="M76,776.7422 L76,803.7422 L1064,803.7422 L1064,786.7422 L1054,776.7422 L76,776.7422 " fill="#FEFFDD" style="stroke:#181818;stroke-width:0.5;"/><path d="M1054,776.7422 L1054,786.7422 L1064,786.7422 L1054,776.7422 " fill="#FEFFDD" style="stroke:#181818;stroke-width:0.5;"/><text fill="#000000" font-family="sans-serif" font-size="13" lengthAdjust="spacing" textLength="108" x="511.75" y="795.7705">Game has finished</text><polygon fill="#FEFFDD" points="40,814.0332,149,814.0332,159,826.0332,149,839.0332,40,839.0332,30,826.0332,40,814.0332" style="stroke:#181818;stroke-width:0.5;"/><text fill="#000000" font-family="sans-serif" font-size="13" lengthAdjust="spacing" textLength="105" x="42" y="832.0615">AUTHENTICATED</text><polygon fill="#FEFFDD" points="992,814.0332,1101,814.0332,1111,826.0332,1101,839.0332,992,839.0332,982,826.0332,992,814.0332" style="stroke:#181818;stroke-width:0.5;"/><text fill="#000000" font-family="sans-serif" font-size="13" lengthAdjust="spacing" textLength="105" x="994" y="832.0615">AUTHENTICATED</text><line style="stroke:#000000;stroke-width:1.0;stroke-dasharray:2.0,2.0;" x1="10" x2="1131" y1="877.3242" y2="877.3242"/><text fill="#000000" font-family="sans-serif" font-size="11" font-weight="bold" lengthAdjust="spacing" textLength="197" x="15" y="889.1943">[Player has not the card in his hand]</text><line style="stroke:#181818;stroke-width:1.0;" x1="95.5" x2="105.5" y1="916.2461" y2="912.2461"/><line style="stroke:#181818;stroke-width:1.0;" x1="95.5" x2="105.5" y1="916.2461" y2="920.2461"/><line style="stroke:#181818;stroke-width:1.0;" x1="94.5" x2="569.5" y1="916.2461" y2="916.2461"/><text fill="#000000" font-family="sans-serif" font-size="13" lengthAdjust="spacing" textLength="97" x="111.5" y="910.9834">KO, invalidCard()</text><line style="stroke:#000000;stroke-width:1.0;stroke-dasharray:2.0,2.0;" x1="10" x2="1131" y1="925.2461" y2="925.2461"/><text fill="#000000" font-family="sans-serif" font-size="11" font-weight="bold" lengthAdjust="spacing" textLength="182" x="15" y="937.1162">[There aren't enough resources]</text><line style="stroke:#181818;stroke-width:1.0;" x1="95.5" x2="105.5" y1="964.168" y2="960.168"/><line style="stroke:#181818;stroke-width:1.0;" x1="95.5" x2="105.5" y1="964.168" y2="968.168"/><line style="stroke:#181818;stroke-width:1.0;" x1="94.5" x2="569.5" y1="964.168" y2="964.168"/><text fill="#000000" font-family="sans-serif" font-size="13" lengthAdjust="spacing" textLength="158" x="111.5" y="958.9053">KO, insufficientResources()</text><line style="stroke:#000000;stroke-width:1.0;stroke-dasharray:2.0,2.0;" x1="10" x2="1131" y1="973.168" y2="973.168"/><text fill="#000000" font-family="sans-serif" font-size="11" font-weight="bold" lengthAdjust="spacing" textLength="135" x="15" y="985.0381">[Invalid position chosen]</text><line style="stroke:#181818;stroke-width:1.0;" x1="95.5" x2="105.5" y1="1012.0898" y2="1008.0898"/><line style="stroke:#181818;stroke-width:1.0;" x1="95.5" x2="105.5" y1="1012.0898" y2="1016.0898"/><line style="stroke:#181818;stroke-width:1.0;" x1="94.5" x2="569.5" y1="1012.0898" y2="1012.0898"/><text fill="#000000" font-family="sans-serif" font-size="13" lengthAdjust="spacing" textLength="117" x="111.5" y="1006.8271">KO, invalidPosition()</text><line style="stroke:#000000;stroke-width:1.0;stroke-dasharray:2.0,2.0;" x1="10" x2="1131" y1="1021.0898" y2="1021.0898"/><text fill="#000000" font-family="sans-serif" font-size="11" font-weight="bold" lengthAdjust="spacing" textLength="114" x="15" y="1032.96">[Invalid side chosen]</text><line style="stroke:#181818;stroke-width:1.0;" x1="95.5" x2="105.5" y1="1060.0117" y2="1056.0117"/><line style="stroke:#181818;stroke-width:1.0;" x1="95.5" x2="105.5" y1="1060.0117" y2="1064.0117"/><line style="stroke:#181818;stroke-width:1.0;" x1="94.5" x2="569.5" y1="1060.0117" y2="1060.0117"/><text fill="#000000" font-family="sans-serif" font-size="13" lengthAdjust="spacing" textLength="96" x="111.5" y="1054.749">KO, invalidSide()</text><!--SRC=[hLLDRzim3BthLp11XYP0jjq3j83NP6dGBWrY5yDEXcepim1LTYMvmu2YltsK_D4uTRfsM0wn9P6FV8yKFJ2MQslAMzW4soXa0w4IMQO8-83Acaz5UISP6nGwJp0jDSAea3p1SwxJMEFzU9H8GOPJ61dK3wXFG_-OCA1VVGWVpywQyncq_kE4_ZPkTKT64pP0bRPnZiSqyVNbU2JKaj_XwN3O7tcmopNo96jJ40e-c48AQwnklASmV1fMzZxR2gVAjdARGLcat29b-JiWm75IQatxRerw2Xq6Kp09HQqJ83AKmzj86Rptf5ejk-nKIkmE8lUHLhb5o1s5XlMiUJinO4kjgghuqb9G3yPl9Mvo8wp8LPD1NRtUIlUSxLVai8nkHTt5c1LM8dYnW7lXM46T9n9HSCeqa2B1pax5hBFr9IUWx9ccToAIgtMy3Bujs6VOEoJZlIDsqjA-ZnN-YaYDU7CLdA_Mo-Tkye1Fv4bjqJ4FBRUb2LJg_COZuvUdvF-3Ik6KtMJS442DEDohuJucUtnyPEoL0dZZ2Nj9qJ-RAXvKfdRYqXwfJJS7PqEsK940OS3nQAz1dr3pRV3zg52Dupy9LYCV4wp1xgcvwsbZXPHTRHeFfxJFIXhSeteLX54StMpNm5KAdKlbZYaEs0n1ScFTfABjz_1hqT_L5Iz9rhthADBh_w7s3bhnrzLw5LuivkEt56DQPUju0V65dL32P9YszZqtDhY9BXRhQ7KUH8jvQzXpV_iDMmLKofYNeURfuZSrT3F6pVsCo6SaYVS8dsUypsK6bzTJidhWKgJ-gpIf0ACCQKXpql34Kfoy_9a1NQUyr0cQLw5CkTlHn29Ljurz0xggua1HttT8ifpc-zypQmV40P0HzAb-AqX8nWv0fNy0]--></g></svg>