<?xml version="1.0" encoding="us-ascii" standalone="no"?><svg xmlns="http://www.w3.org/2000/svg" xmlns:xlink="http://www.w3.org/1999/xlink" contentStyleType="text/css" height="640px" preserveAspectRatio="none" style="width:1192px;height:640px;background:#FFFFFF;" version="1.1" viewBox="0 0 1192 640" width="1192px" zoomAndPan="magnify"><defs/><g><text fill="#000000" font-family="sans-serif" font-size="14" font-weight="bold" lengthAdjust="spacing" textLength="171" x="511.75" y="30.1074">Select starting card side</text><rect fill="none" height="336.1719" style="stroke:#000000;stroke-width:1.5;" width="1175.5" x="10" y="249.4063"/><rect fill="none" height="81.873" style="stroke:#000000;stroke-width:1.5;" width="1155.5" x="20" y="400.8613"/><line style="stroke:#181818;stroke-width:0.5;stroke-dasharray:5.0,5.0;" x1="52" x2="52" y1="78.2422" y2="602.5781"/><line style="stroke:#181818;stroke-width:0.5;stroke-dasharray:5.0,5.0;" x1="599" x2="599" y1="78.2422" y2="602.5781"/><line style="stroke:#181818;stroke-width:0.5;stroke-dasharray:5.0,5.0;" x1="1145.5" x2="1145.5" y1="78.2422" y2="602.5781"/><rect fill="#E2E2F0" height="32.6211" rx="2.5" ry="2.5" style="stroke:#181818;stroke-width:0.5;" width="44" x="30" y="44.6211"/><text fill="#000000" font-family="sans-serif" font-size="14" lengthAdjust="spacing" textLength="30" x="37" y="66.7285">Alice</text><rect fill="#E2E2F0" height="32.6211" rx="2.5" ry="2.5" style="stroke:#181818;stroke-width:0.5;" width="44" x="30" y="601.5781"/><text fill="#000000" font-family="sans-serif" font-size="14" lengthAdjust="spacing" textLength="30" x="37" y="623.6855">Alice</text><rect fill="#E2E2F0" height="32.6211" rx="2.5" ry="2.5" style="stroke:#181818;stroke-width:0.5;" width="56" x="571" y="44.6211"/><text fill="#000000" font-family="sans-serif" font-size="14" lengthAdjust="spacing" textLength="42" x="578" y="66.7285">Server</text><rect fill="#E2E2F0" height="32.6211" rx="2.5" ry="2.5" style="stroke:#181818;stroke-width:0.5;" width="56" x="571" y="601.5781"/><text fill="#000000" font-family="sans-serif" font-size="14" lengthAdjust="spacing" textLength="42" x="578" y="623.6855">Server</text><rect fill="#E2E2F0" height="32.6211" rx="2.5" ry="2.5" style="stroke:#181818;stroke-width:0.5;" width="39" x="1126.5" y="44.6211"/><text fill="#000000" font-family="sans-serif" font-size="14" lengthAdjust="spacing" textLength="25" x="1133.5" y="66.7285">Bob</text><rect fill="#E2E2F0" height="32.6211" rx="2.5" ry="2.5" style="stroke:#181818;stroke-width:0.5;" width="39" x="1126.5" y="601.5781"/><text fill="#000000" font-family="sans-serif" font-size="14" lengthAdjust="spacing" textLength="25" x="1133.5" y="623.6855">Bob</text><polygon fill="#FEFFDD" points="21,93.2422,83,93.2422,93,105.2422,83,118.2422,21,118.2422,11,105.2422,21,93.2422" style="stroke:#181818;stroke-width:0.5;"/><text fill="#000000" font-family="sans-serif" font-size="13" lengthAdjust="spacing" textLength="58" x="23" y="111.2705">IN_GAME</text><polygon fill="#FEFFDD" points="1115,93.2422,1177,93.2422,1187,105.2422,1177,118.2422,1115,118.2422,1105,105.2422,1115,93.2422" style="stroke:#181818;stroke-width:0.5;"/><text fill="#000000" font-family="sans-serif" font-size="13" lengthAdjust="spacing" textLength="58" x="1117" y="111.2705">IN_GAME</text><line style="stroke:#181818;stroke-width:1.0;" x1="53" x2="63" y1="146.8242" y2="142.8242"/><line style="stroke:#181818;stroke-width:1.0;" x1="53" x2="63" y1="146.8242" y2="150.8242"/><line style="stroke:#181818;stroke-width:1.0;" x1="52" x2="598" y1="146.8242" y2="146.8242"/><text fill="#000000" font-family="sans-serif" font-size="13" lengthAdjust="spacing" textLength="245" x="69" y="141.5615">updateGameStatusAndSetupStartingCard(</text><text fill="#000000" font-family="monospace" font-size="13" font-weight="bold" lengthAdjust="spacing" textLength="196" x="314" y="141.5615">SETUP_STARTING_CARD_SIDE</text><text fill="#000000" font-family="sans-serif" font-size="13" lengthAdjust="spacing" textLength="82" x="510" y="141.5615">, startingCard)</text><line style="stroke:#181818;stroke-width:1.0;" x1="1144" x2="1134" y1="178.1152" y2="174.1152"/><line style="stroke:#181818;stroke-width:1.0;" x1="1144" x2="1134" y1="178.1152" y2="182.1152"/><line style="stroke:#181818;stroke-width:1.0;" x1="599" x2="1145" y1="178.1152" y2="178.1152"/><text fill="#000000" font-family="sans-serif" font-size="13" lengthAdjust="spacing" textLength="245" x="606" y="172.8525">updateGameStatusAndSetupStartingCard(</text><text fill="#000000" font-family="monospace" font-size="13" font-weight="bold" lengthAdjust="spacing" textLength="196" x="851" y="172.8525">SETUP_STARTING_CARD_SIDE</text><text fill="#000000" font-family="sans-serif" font-size="13" lengthAdjust="spacing" textLength="82" x="1047" y="172.8525">, startingCard)</text><line style="stroke:#181818;stroke-width:1.0;" x1="597" x2="587" y1="234.4063" y2="230.4063"/><line style="stroke:#181818;stroke-width:1.0;" x1="597" x2="587" y1="234.4063" y2="238.4063"/><line style="stroke:#181818;stroke-width:1.0;" x1="52" x2="598" y1="234.4063" y2="234.4063"/><text fill="#000000" font-family="sans-serif" font-size="13" lengthAdjust="spacing" textLength="93" x="59" y="229.1436">selectSide(side)</text><path d="M10,249.4063 L71,249.4063 L71,258.6973 L61,268.6973 L10,268.6973 L10,249.4063 " fill="#EEEEEE" style="stroke:#000000;stroke-width:1.5;"/><rect fill="none" height="336.1719" style="stroke:#000000;stroke-width:1.5;" width="1175.5" x="10" y="249.4063"/><text fill="#000000" font-family="sans-serif" font-size="13" font-weight="bold" lengthAdjust="spacing" textLength="16" x="25" y="264.4346">alt</text><line style="stroke:#181818;stroke-width:1.0;" x1="53" x2="63" y1="291.9883" y2="287.9883"/><line style="stroke:#181818;stroke-width:1.0;" x1="53" x2="63" y1="291.9883" y2="295.9883"/><line style="stroke:#181818;stroke-width:1.0;" x1="52" x2="598" y1="291.9883" y2="291.9883"/><text fill="#000000" font-family="sans-serif" font-size="13" lengthAdjust="spacing" textLength="384" x="69" y="286.7256">updateSideChosenList(player1HasChosen, player2HasChosen, ...)</text><line style="stroke:#181818;stroke-width:1.0;" x1="1144" x2="1134" y1="323.2793" y2="319.2793"/><line style="stroke:#181818;stroke-width:1.0;" x1="1144" x2="1134" y1="323.2793" y2="327.2793"/><line style="stroke:#181818;stroke-width:1.0;" x1="599" x2="1145" y1="323.2793" y2="323.2793"/><text fill="#000000" font-family="sans-serif" font-size="13" lengthAdjust="spacing" textLength="384" x="606" y="318.0166">updateSideChosenList(player1HasChosen, player2HasChosen, ...)</text><line style="stroke:#181818;stroke-width:1.0;" x1="53" x2="63" y1="354.5703" y2="350.5703"/><line style="stroke:#181818;stroke-width:1.0;" x1="53" x2="63" y1="354.5703" y2="358.5703"/><line style="stroke:#181818;stroke-width:1.0;" x1="52" x2="598" y1="354.5703" y2="354.5703"/><text fill="#000000" font-family="sans-serif" font-size="13" lengthAdjust="spacing" textLength="264" x="69" y="349.3076">updatePlayArea(Alice, cardPlacement, score)</text><line style="stroke:#181818;stroke-width:1.0;" x1="1144" x2="1134" y1="385.8613" y2="381.8613"/><line style="stroke:#181818;stroke-width:1.0;" x1="1144" x2="1134" y1="385.8613" y2="389.8613"/><line style="stroke:#181818;stroke-width:1.0;" x1="599" x2="1145" y1="385.8613" y2="385.8613"/><text fill="#000000" font-family="sans-serif" font-size="13" lengthAdjust="spacing" textLength="264" x="606" y="380.5986">updatePlayArea(Alice, cardPlacement, score)</text><path d="M20,400.8613 L85,400.8613 L85,410.1523 L75,420.1523 L20,420.1523 L20,400.8613 " fill="#EEEEEE" style="stroke:#000000;stroke-width:1.5;"/><rect fill="none" height="81.873" style="stroke:#000000;stroke-width:1.5;" width="1155.5" x="20" y="400.8613"/><text fill="#000000" font-family="sans-serif" font-size="13" font-weight="bold" lengthAdjust="spacing" textLength="20" x="35" y="415.8896">opt</text><text fill="#000000" font-family="sans-serif" font-size="11" font-weight="bold" lengthAdjust="spacing" textLength="180" x="100" y="414.7314">[all players have selected a side]</text><line style="stroke:#181818;stroke-width:1.0;" x1="53" x2="63" y1="443.4434" y2="439.4434"/><line style="stroke:#181818;stroke-width:1.0;" x1="53" x2="63" y1="443.4434" y2="447.4434"/><line style="stroke:#181818;stroke-width:1.0;" x1="52" x2="598" y1="443.4434" y2="443.4434"/><text fill="#000000" font-family="sans-serif" font-size="13" lengthAdjust="spacing" textLength="116" x="69" y="438.1807">updateGameStatus(</text><text fill="#000000" font-family="monospace" font-size="13" font-weight="bold" lengthAdjust="spacing" textLength="96" x="185" y="438.1807">SETUP_COLOR</text><text fill="#000000" font-family="sans-serif" font-size="13" lengthAdjust="spacing" textLength="4" x="281" y="438.1807">)</text><line style="stroke:#181818;stroke-width:1.0;" x1="1144" x2="1134" y1="474.7344" y2="470.7344"/><line style="stroke:#181818;stroke-width:1.0;" x1="1144" x2="1134" y1="474.7344" y2="478.7344"/><line style="stroke:#181818;stroke-width:1.0;" x1="599" x2="1145" y1="474.7344" y2="474.7344"/><text fill="#000000" font-family="sans-serif" font-size="13" lengthAdjust="spacing" textLength="116" x="606" y="469.4717">updateGameStatus(</text><text fill="#000000" font-family="monospace" font-size="13" font-weight="bold" lengthAdjust="spacing" textLength="96" x="722" y="469.4717">SETUP_COLOR</text><text fill="#000000" font-family="sans-serif" font-size="13" lengthAdjust="spacing" textLength="4" x="818" y="469.4717">)</text><line style="stroke:#000000;stroke-width:1.0;stroke-dasharray:2.0,2.0;" x1="10" x2="1185.5" y1="490.7344" y2="490.7344"/><text fill="#000000" font-family="sans-serif" font-size="11" font-weight="bold" lengthAdjust="spacing" textLength="297" x="15" y="502.6045">[this player has already chosen the starting card side]</text><line style="stroke:#181818;stroke-width:1.0;" x1="53" x2="63" y1="529.6563" y2="525.6563"/><line style="stroke:#181818;stroke-width:1.0;" x1="53" x2="63" y1="529.6563" y2="533.6563"/><line style="stroke:#181818;stroke-width:1.0;" x1="52" x2="598" y1="529.6563" y2="529.6563"/><text fill="#000000" font-family="sans-serif" font-size="13" lengthAdjust="spacing" textLength="147" x="69" y="524.3936">KO, sideAlreadyChosen()</text><line style="stroke:#000000;stroke-width:1.0;stroke-dasharray:2.0,2.0;" x1="10" x2="1185.5" y1="538.6563" y2="538.6563"/><text fill="#000000" font-family="sans-serif" font-size="11" font-weight="bold" lengthAdjust="spacing" textLength="213" x="15" y="550.5264">[the selected side is not a valid option]</text><line style="stroke:#181818;stroke-width:1.0;" x1="53" x2="63" y1="577.5781" y2="573.5781"/><line style="stroke:#181818;stroke-width:1.0;" x1="53" x2="63" y1="577.5781" y2="581.5781"/><line style="stroke:#181818;stroke-width:1.0;" x1="52" x2="598" y1="577.5781" y2="577.5781"/><text fill="#000000" font-family="sans-serif" font-size="13" lengthAdjust="spacing" textLength="96" x="69" y="572.3154">KO, invalidSide()</text><!--SRC=[bLHHRzem47xthxWW9WM9CcsFLLifeuYXTWLX-XnvoMsnv3gfxJ1LGltjkzY1X0vQBGz4t9s_xxxlpeci4yRP-YUialM6iqZgJDKv0cvHEpkfwYV5M5IPCiEyDWX3YmepnsMEgS7dU9WfIPNZ9c6sQAwvVuqOqDCcuUBcPf-_X0uWjlGpOX7g_43m3fbDbtVnKEgvUCBhmU0qPVIhD2Youi0jDNoobPBEEhC_FOR1wo3KzzkykhhesgohN3XigAT5QL7VI-lYIeaND5- -2nk2OmYHhxt8P39fMo5TrCr_wBFux3KUFFr0x9bXd4hspMlpViIUCsXTaPI4pEjSEk2zbK1_QMSOSz8f1Ew9mA-IrByX4oQ7PhQiQYAPh0IvcoYP7KU2bAFGjv9G2rqwX99ouH1Smk8XdIS_Pkmpz99Kt4knJe_6Fzm9LzkKppQFgvHlQBaN3_DqcgnlKxwudNLxv1bU2Ug4nsotsp7srcL_OiI4SkTyxe5-vFKHVulSd2Wh1qAfThyi56ABxTN174ImTx_0vvLFb_VBzR_zqFmOAelW2cbR3gAmH4bDvI-G-MMcD9uQQmCH9jDS6TxUcBlbsAUJW17kGppQ4_NQRwg0Y6cK96KhbCmRmRBKxq1BxGlzXuD0IS5V]--></g></svg>