<?xml version="1.0" encoding="us-ascii" standalone="no"?><svg xmlns="http://www.w3.org/2000/svg" xmlns:xlink="http://www.w3.org/1999/xlink" contentStyleType="text/css" height="608px" preserveAspectRatio="none" style="width:1124px;height:608px;background:#FFFFFF;" version="1.1" viewBox="0 0 1124 608" width="1124px" zoomAndPan="magnify"><defs/><g><text fill="#000000" font-family="sans-serif" font-size="14" font-weight="bold" lengthAdjust="spacing" textLength="131" x="497.75" y="30.1074">Select player color</text><rect fill="none" height="304.8809" style="stroke:#000000;stroke-width:1.5;" width="1107.5" x="10" y="249.4063"/><rect fill="none" height="81.873" style="stroke:#000000;stroke-width:1.5;" width="1087.5" x="20" y="338.2793"/><line style="stroke:#181818;stroke-width:0.5;stroke-dasharray:5.0,5.0;" x1="52" x2="52" y1="78.2422" y2="571.2871"/><line style="stroke:#181818;stroke-width:0.5;stroke-dasharray:5.0,5.0;" x1="565" x2="565" y1="78.2422" y2="571.2871"/><line style="stroke:#181818;stroke-width:0.5;stroke-dasharray:5.0,5.0;" x1="1077.5" x2="1077.5" y1="78.2422" y2="571.2871"/><rect fill="#E2E2F0" height="32.6211" rx="2.5" ry="2.5" style="stroke:#181818;stroke-width:0.5;" width="44" x="30" y="44.6211"/><text fill="#000000" font-family="sans-serif" font-size="14" lengthAdjust="spacing" textLength="30" x="37" y="66.7285">Alice</text><rect fill="#E2E2F0" height="32.6211" rx="2.5" ry="2.5" style="stroke:#181818;stroke-width:0.5;" width="44" x="30" y="570.2871"/><text fill="#000000" font-family="sans-serif" font-size="14" lengthAdjust="spacing" textLength="30" x="37" y="592.3945">Alice</text><rect fill="#E2E2F0" height="32.6211" rx="2.5" ry="2.5" style="stroke:#181818;stroke-width:0.5;" width="56" x="537" y="44.6211"/><text fill="#000000" font-family="sans-serif" font-size="14" lengthAdjust="spacing" textLength="42" x="544" y="66.7285">Server</text><rect fill="#E2E2F0" height="32.6211" rx="2.5" ry="2.5" style="stroke:#181818;stroke-width:0.5;" width="56" x="537" y="570.2871"/><text fill="#000000" font-family="sans-serif" font-size="14" lengthAdjust="spacing" textLength="42" x="544" y="592.3945">Server</text><rect fill="#E2E2F0" height="32.6211" rx="2.5" ry="2.5" style="stroke:#181818;stroke-width:0.5;" width="39" x="1058.5" y="44.6211"/><text fill="#000000" font-family="sans-serif" font-size="14" lengthAdjust="spacing" textLength="25" x="1065.5" y="66.7285">Bob</text><rect fill="#E2E2F0" height="32.6211" rx="2.5" ry="2.5" style="stroke:#181818;stroke-width:0.5;" width="39" x="1058.5" y="570.2871"/><text fill="#000000" font-family="sans-serif" font-size="14" lengthAdjust="spacing" textLength="25" x="1065.5" y="592.3945">Bob</text><polygon fill="#FEFFDD" points="21,93.2422,83,93.2422,93,105.2422,83,118.2422,21,118.2422,11,105.2422,21,93.2422" style="stroke:#181818;stroke-width:0.5;"/><text fill="#000000" font-family="sans-serif" font-size="13" lengthAdjust="spacing" textLength="58" x="23" y="111.2705">IN_GAME</text><polygon fill="#FEFFDD" points="1047,93.2422,1109,93.2422,1119,105.2422,1109,118.2422,1047,118.2422,1037,105.2422,1047,93.2422" style="stroke:#181818;stroke-width:0.5;"/><text fill="#000000" font-family="sans-serif" font-size="13" lengthAdjust="spacing" textLength="58" x="1049" y="111.2705">IN_GAME</text><line style="stroke:#181818;stroke-width:1.0;" x1="53" x2="63" y1="146.8242" y2="142.8242"/><line style="stroke:#181818;stroke-width:1.0;" x1="53" x2="63" y1="146.8242" y2="150.8242"/><line style="stroke:#181818;stroke-width:1.0;" x1="52" x2="564" y1="146.8242" y2="146.8242"/><text fill="#000000" font-family="sans-serif" font-size="13" lengthAdjust="spacing" textLength="116" x="69" y="141.5615">updateGameStatus(</text><text fill="#000000" font-family="monospace" font-size="13" font-weight="bold" lengthAdjust="spacing" textLength="96" x="185" y="141.5615">SETUP_COLOR</text><text fill="#000000" font-family="sans-serif" font-size="13" lengthAdjust="spacing" textLength="4" x="281" y="141.5615">)</text><line style="stroke:#181818;stroke-width:1.0;" x1="1076" x2="1066" y1="178.1152" y2="174.1152"/><line style="stroke:#181818;stroke-width:1.0;" x1="1076" x2="1066" y1="178.1152" y2="182.1152"/><line style="stroke:#181818;stroke-width:1.0;" x1="565" x2="1077" y1="178.1152" y2="178.1152"/><text fill="#000000" font-family="sans-serif" font-size="13" lengthAdjust="spacing" textLength="116" x="572" y="172.8525">updateGameStatus(</text><text fill="#000000" font-family="monospace" font-size="13" font-weight="bold" lengthAdjust="spacing" textLength="96" x="688" y="172.8525">SETUP_COLOR</text><text fill="#000000" font-family="sans-serif" font-size="13" lengthAdjust="spacing" textLength="4" x="784" y="172.8525">)</text><line style="stroke:#181818;stroke-width:1.0;" x1="563" x2="553" y1="234.4063" y2="230.4063"/><line style="stroke:#181818;stroke-width:1.0;" x1="563" x2="553" y1="234.4063" y2="238.4063"/><line style="stroke:#181818;stroke-width:1.0;" x1="52" x2="564" y1="234.4063" y2="234.4063"/><text fill="#000000" font-family="sans-serif" font-size="13" lengthAdjust="spacing" textLength="101" x="59" y="229.1436">selectColor(color)</text><path d="M10,249.4063 L71,249.4063 L71,258.6973 L61,268.6973 L10,268.6973 L10,249.4063 " fill="#EEEEEE" style="stroke:#000000;stroke-width:1.5;"/><rect fill="none" height="304.8809" style="stroke:#000000;stroke-width:1.5;" width="1107.5" x="10" y="249.4063"/><text fill="#000000" font-family="sans-serif" font-size="13" font-weight="bold" lengthAdjust="spacing" textLength="16" x="25" y="264.4346">alt</text><line style="stroke:#181818;stroke-width:1.0;" x1="53" x2="63" y1="291.9883" y2="287.9883"/><line style="stroke:#181818;stroke-width:1.0;" x1="53" x2="63" y1="291.9883" y2="295.9883"/><line style="stroke:#181818;stroke-width:1.0;" x1="52" x2="564" y1="291.9883" y2="291.9883"/><text fill="#000000" font-family="sans-serif" font-size="13" lengthAdjust="spacing" textLength="73" x="69" y="286.7256">updateColor(</text><text fill="#000000" font-family="monospace" font-size="13" font-weight="bold" lengthAdjust="spacing" textLength="32" x="142" y="286.7256">Alice</text><text fill="#000000" font-family="sans-serif" font-size="13" lengthAdjust="spacing" textLength="84" x="174" y="286.7256">, chosenColor,</text><text fill="#000000" font-family="monospace" font-size="13" font-weight="bold" lengthAdjust="spacing" textLength="113" x="262" y="286.7256">NOT_CONTENDED</text><text fill="#000000" font-family="sans-serif" font-size="13" lengthAdjust="spacing" textLength="4" x="375" y="286.7256">)</text><line style="stroke:#181818;stroke-width:1.0;" x1="1076" x2="1066" y1="323.2793" y2="319.2793"/><line style="stroke:#181818;stroke-width:1.0;" x1="1076" x2="1066" y1="323.2793" y2="327.2793"/><line style="stroke:#181818;stroke-width:1.0;" x1="565" x2="1077" y1="323.2793" y2="323.2793"/><text fill="#000000" font-family="sans-serif" font-size="13" lengthAdjust="spacing" textLength="73" x="572" y="318.0166">updateColor(</text><text fill="#000000" font-family="monospace" font-size="13" font-weight="bold" lengthAdjust="spacing" textLength="32" x="645" y="318.0166">Alice</text><text fill="#000000" font-family="sans-serif" font-size="13" lengthAdjust="spacing" textLength="84" x="677" y="318.0166">, chosenColor,</text><text fill="#000000" font-family="monospace" font-size="13" font-weight="bold" lengthAdjust="spacing" textLength="113" x="765" y="318.0166">NOT_CONTENDED</text><text fill="#000000" font-family="sans-serif" font-size="13" lengthAdjust="spacing" textLength="4" x="878" y="318.0166">)</text><path d="M20,338.2793 L85,338.2793 L85,347.5703 L75,357.5703 L20,357.5703 L20,338.2793 " fill="#EEEEEE" style="stroke:#000000;stroke-width:1.5;"/><rect fill="none" height="81.873" style="stroke:#000000;stroke-width:1.5;" width="1087.5" x="20" y="338.2793"/><text fill="#000000" font-family="sans-serif" font-size="13" font-weight="bold" lengthAdjust="spacing" textLength="20" x="35" y="353.3076">opt</text><text fill="#000000" font-family="sans-serif" font-size="11" font-weight="bold" lengthAdjust="spacing" textLength="184" x="100" y="352.1494">[all players have selected a color]</text><line style="stroke:#181818;stroke-width:1.0;" x1="53" x2="63" y1="380.8613" y2="376.8613"/><line style="stroke:#181818;stroke-width:1.0;" x1="53" x2="63" y1="380.8613" y2="384.8613"/><line style="stroke:#181818;stroke-width:1.0;" x1="52" x2="564" y1="380.8613" y2="380.8613"/><text fill="#000000" font-family="sans-serif" font-size="13" lengthAdjust="spacing" textLength="233" x="69" y="375.5986">updateGameStatusAndSetupObjectives(</text><text fill="#000000" font-family="monospace" font-size="13" font-weight="bold" lengthAdjust="spacing" textLength="122" x="302" y="375.5986">SETUP_OBJECTIVE</text><text fill="#000000" font-family="sans-serif" font-size="13" lengthAdjust="spacing" textLength="134" x="424" y="375.5986">, objective1, objective2)</text><line style="stroke:#181818;stroke-width:1.0;" x1="1076" x2="1066" y1="412.1523" y2="408.1523"/><line style="stroke:#181818;stroke-width:1.0;" x1="1076" x2="1066" y1="412.1523" y2="416.1523"/><line style="stroke:#181818;stroke-width:1.0;" x1="565" x2="1077" y1="412.1523" y2="412.1523"/><text fill="#000000" font-family="sans-serif" font-size="13" lengthAdjust="spacing" textLength="233" x="572" y="406.8896">updateGameStatusAndSetupObjectives(</text><text fill="#000000" font-family="monospace" font-size="13" font-weight="bold" lengthAdjust="spacing" textLength="122" x="805" y="406.8896">SETUP_OBJECTIVE</text><text fill="#000000" font-family="sans-serif" font-size="13" lengthAdjust="spacing" textLength="134" x="927" y="406.8896">, objective1, objective2)</text><line style="stroke:#000000;stroke-width:1.0;stroke-dasharray:2.0,2.0;" x1="10" x2="1117.5" y1="428.1523" y2="428.1523"/><text fill="#000000" font-family="sans-serif" font-size="11" font-weight="bold" lengthAdjust="spacing" textLength="276" x="15" y="440.0225">[color has been already chosen by someone else]</text><line style="stroke:#181818;stroke-width:1.0;" x1="53" x2="63" y1="467.0742" y2="463.0742"/><line style="stroke:#181818;stroke-width:1.0;" x1="53" x2="63" y1="467.0742" y2="471.0742"/><line style="stroke:#181818;stroke-width:1.0;" x1="52" x2="564" y1="467.0742" y2="467.0742"/><text fill="#000000" font-family="sans-serif" font-size="13" lengthAdjust="spacing" textLength="73" x="69" y="461.8115">updateColor(</text><text fill="#000000" font-family="monospace" font-size="13" font-weight="bold" lengthAdjust="spacing" textLength="32" x="142" y="461.8115">Alice</text><text fill="#000000" font-family="sans-serif" font-size="13" lengthAdjust="spacing" textLength="84" x="174" y="461.8115">, chosenColor,</text><text fill="#000000" font-family="monospace" font-size="13" font-weight="bold" lengthAdjust="spacing" textLength="79" x="262" y="461.8115">CONTENDED</text><text fill="#000000" font-family="sans-serif" font-size="13" lengthAdjust="spacing" textLength="4" x="341" y="461.8115">)</text><line style="stroke:#181818;stroke-width:1.0;" x1="1076" x2="1066" y1="498.3652" y2="494.3652"/><line style="stroke:#181818;stroke-width:1.0;" x1="1076" x2="1066" y1="498.3652" y2="502.3652"/><line style="stroke:#181818;stroke-width:1.0;" x1="565" x2="1077" y1="498.3652" y2="498.3652"/><text fill="#000000" font-family="sans-serif" font-size="13" lengthAdjust="spacing" textLength="73" x="572" y="493.1025">updateColor(</text><text fill="#000000" font-family="monospace" font-size="13" font-weight="bold" lengthAdjust="spacing" textLength="32" x="645" y="493.1025">Alice</text><text fill="#000000" font-family="sans-serif" font-size="13" lengthAdjust="spacing" textLength="84" x="677" y="493.1025">, chosenColor,</text><text fill="#000000" font-family="monospace" font-size="13" font-weight="bold" lengthAdjust="spacing" textLength="79" x="765" y="493.1025">CONTENDED</text><text fill="#000000" font-family="sans-serif" font-size="13" lengthAdjust="spacing" textLength="4" x="844" y="493.1025">)</text><line style="stroke:#000000;stroke-width:1.0;stroke-dasharray:2.0,2.0;" x1="10" x2="1117.5" y1="507.3652" y2="507.3652"/><text fill="#000000" font-family="sans-serif" font-size="11" font-weight="bold" lengthAdjust="spacing" textLength="74" x="15" y="519.2354">[invalid color]</text><line style="stroke:#181818;stroke-width:1.0;" x1="53" x2="63" y1="546.2871" y2="542.2871"/><line style="stroke:#181818;stroke-width:1.0;" x1="53" x2="63" y1="546.2871" y2="550.2871"/><line style="stroke:#181818;stroke-width:1.0;" x1="52" x2="564" y1="546.2871" y2="546.2871"/><text fill="#000000" font-family="sans-serif" font-size="13" lengthAdjust="spacing" textLength="100" x="69" y="541.0244">KO, invalidColor()</text><!--SRC=[rLHHQzim47xNhr1C1Z6uotjm3MbgIjSjBdMsLwF8Lo9G9DUICmAXltrdIqdSjDaosClyO2FT-RlxFjsdWR6ijgPPqiVfqo8d0w6uR4gWi05bpUUgMKj21bMjEPHD3NHeG0AtCorrNTJmCXfoAJ0rQYFr1khhlFk4XEBZW_GgIVRn2UqXZ7Zx3ia0L7ceyRjwfiWU2gwLnH-W70s5kcDhE2sEwqgoBQu3zmrSEuDdNGFZgqDVGj5FffB26biVmO9Ndz-d4CTNHmfDLJ8BZe8l5L6-qWPKjndH-1cRdAorqgPY799ucSoo-IATtwQtyNYPnECs8V5z8HjixIzbK1hN9qfS1y7_8SOyMnJ_L103B-z5ESpcdzNn0tjcl3-CdZs5e-G7y5Cck4JN4MA5bK3p3fUwPDgPWbHeJC55nL3lgHGStkouxjzitMZ4Ms4_G3N6t4zqGk_dnTtqMqh6j1V4v5w833k_5-ueMmgvPROnepnTV7_4W_gQFKKECBmi5_53GdQx7MAVQkfncBGNghgVtm_cgCFgpKyG1TtMApRW1rTNbZ8flRg6hjW6_2K49MLUxls8EtBjD2duwPWLZbbsyoMTBUv_fADt9R1F0jA0my8AXYu159P5YvLRxmQwt5AZrw0Ltg-OVPRzyOBhLUhv-18TKFsk8w4sJ8gonzBDHMlXt3lu8OlsUSx68S7olm00]--></g></svg>